<?xml version="1.0" encoding="UTF-8" standalone="no"?>
<!-- Created with Inkscape (http://www.inkscape.org/) -->

<svg
   width="293.52954mm"
   height="439.56326mm"
   viewBox="0 0 293.52955 439.56327"
   version="1.1"
   id="svg1"
   xml:space="preserve"
   xmlns="http://www.w3.org/2000/svg"
   xmlns:svg="http://www.w3.org/2000/svg"><defs
     id="defs1"><clipPath
       clipPathUnits="userSpaceOnUse"
       id="clipPath15"><path
         id="path16"
         style="fill:#ff0000;fill-opacity:1;fill-rule:nonzero;stroke:none;stroke-width:0.264583"
         d="M -1.5172157,13.299199 V 284.23253 H 269.41612 V 13.299199 Z M 124.49008,69.177958 c 2.39404,0.01064 4.78838,0.05837 7.18147,0.09147 1.01402,0.01632 2.02813,0.02716 3.0422,0.04082 h 0.60254 8.7018 6.17533 6.78718 c 1.2396,0 2.1662,0.312108 2.7988,0.775147 1.4464,0.03352 2.89279,0.07639 4.33875,0.127125 1.73368,0.06436 3.46771,0.117594 5.20227,0.150894 1.61154,0.03854 3.17228,0.403476 4.70462,0.874366 1.10398,0.436155 2.24307,0.764797 3.3693,1.133263 0.13755,0.04631 0.27484,0.0927 0.41238,0.13901 4.79832,1.615522 3.16621,6.462741 -1.63194,4.846732 -0.13089,-0.04408 -0.26185,-0.0882 -0.39274,-0.132291 -1.08629,-0.369919 -2.20049,-0.661078 -3.2644,-1.099159 -1.07481,-0.332967 -2.16273,-0.617307 -3.29592,-0.648538 -1.76157,-0.03394 -3.52273,-0.08804 -5.2834,-0.15348 -3.0306,-0.106357 -6.06143,-0.209232 -9.09454,-0.159163 -4.3117,0.0071 -8.6235,0.01595 -12.93512,0.04341 -3.68961,0.02902 -7.38051,0.05864 -11.06755,0.209806 -2.71902,0.13343 -5.43082,0.355185 -8.14627,0.543637 -1.94579,0.133004 -3.89411,0.265462 -5.8446,0.290423 -2.25234,0.02883 -3.49629,-0.966573 -3.74448,-2.086179 -3.21503,-1.025575 -2.64426,-4.855001 1.74253,-4.855001 h 2.46238 c 2.39195,-0.116369 4.78537,-0.142933 7.17941,-0.132292 z" /></clipPath><clipPath
       clipPathUnits="userSpaceOnUse"
       id="clipPath23"><path
         id="path24"
         style="fill:#ff0000;fill-opacity:1;fill-rule:nonzero;stroke:none;stroke-width:0.264583"
         d="M 29.860714,70.949944 V 275.11888 H 122.88759 V 70.949944 H 99.953594 c 1.352086,0.04169 2.703966,0.0907 4.056086,0.130742 1.97513,0.05849 3.14541,0.874757 3.55068,1.837097 0.0143,1.48e-4 0.0286,2.64e-4 0.0429,5.29e-4 5.0627,0.05235 5.00948,5.166299 -0.0532,5.113901 -2.84465,-0.02944 -5.68905,-0.06426 -8.532813,-0.144177 C 95.495904,77.776821 91.977816,77.59691 88.467989,77.283421 84.296137,76.956341 80.120707,76.666725 75.941622,76.449365 71.781739,76.272292 67.622055,76.201093 63.458146,76.251443 h -7.218164 c -3.684754,0 -4.674341,-2.703203 -2.995681,-4.178041 -0.139944,-0.369157 -0.17815,-0.753644 -0.09819,-1.123444 z" /></clipPath><clipPath
       clipPathUnits="userSpaceOnUse"
       id="clipPath30"><path
         id="path31"
         style="fill:#ff0000;fill-opacity:1;fill-rule:nonzero;stroke:none;stroke-width:0.264583"
         d="M 98.986967,86.941216 V 329.52124 H 178.59554 V 86.941216 h -17.01653 c 0.18656,0.319899 0.282,0.662632 0.28577,1.005623 2.45313,1.302512 1.7069,4.556828 -2.35386,4.556828 h -15.01665 -17.87385 c -2.61155,0 -3.8498,-1.358085 -3.76721,-2.675806 -0.1898,-0.0013 -0.5697,-0.008 -0.68213,-0.0072 -0.67108,0.0048 -1.23024,0.04166 -1.87585,0.07855 -2.95942,0.169107 -4.37587,-1.488069 -4.03025,-2.95796 z" /></clipPath><clipPath
       clipPathUnits="userSpaceOnUse"
       id="clipPath37"><path
         id="path38"
         style="fill:#ff0000;fill-opacity:1;fill-rule:nonzero;stroke:none;stroke-width:0.264583"
         d="M 62.137373,53.174251 V 304.87982 H 147.85669 V 53.174251 h -16.90853 c 0.97253,0.03757 1.94522,0.07011 2.91765,0.109554 5.05882,0.20521 4.85107,5.315153 -0.20774,5.109766 -1.87421,-0.07609 -3.74887,-0.140311 -5.62343,-0.208773 -0.12086,1.232119 -1.39698,2.389678 -3.84421,2.308903 -6.70269,-0.221236 -13.40548,-0.449193 -20.10936,-0.63252 -7.076416,-0.138343 -14.153615,-0.270482 -21.231783,-0.230993 -1.939415,0.01082 -3.121919,-0.735332 -3.575492,-1.658814 -0.783489,0.04164 -1.566648,0.08975 -2.349209,0.145728 -4.724,0.337932 -5.579885,-4.056905 -1.538925,-4.942851 z" /></clipPath><clipPath
       clipPathUnits="userSpaceOnUse"
       id="clipPath41"><path
         id="path41"
         style="fill:#ff0000;fill-opacity:1;fill-rule:nonzero;stroke:none;stroke-width:0.264583"
         d="M 116.05294,115.56528 V 346.962 h 92.26828 V 115.56528 h -23.77116 c 3.07622,1.07676 2.46082,4.81463 -1.86811,4.82503 -9.24402,0.0222 -4.53919,0.007 -14.1149,0.0465 -8.12804,0.0595 -16.27636,0.008 -24.38507,0.64338 -5.0475,0.39566 -5.51018,-4.69331 -0.46302,-5.09323 2.53472,-0.20085 5.07335,-0.33006 7.614,-0.42168 z" /></clipPath><clipPath
       clipPathUnits="userSpaceOnUse"
       id="clipPath47"><path
         id="path48"
         style="fill:#ff0000;fill-opacity:1;fill-rule:nonzero;stroke:none;stroke-width:0.264583"
         d="m 118.57584,82.509944 c 5.20453,0.278276 10.40878,0.561748 15.613,0.845426 4.51587,0.0145 9.03164,0.05013 13.5475,0.05788 V 82.509944 Z M 61.954493,84.130517 V 334.1721 H 147.73634 V 88.527665 c -1.97217,-0.0034 -3.94427,-0.02114 -5.91644,-0.02532 -0.57589,0.20678 -1.27523,0.320209 -2.1208,0.27337 -1.88642,-0.104497 -3.7731,-0.203575 -5.6596,-0.306443 -6.5402,-0.02106 -13.08049,-0.02683 -19.62051,-0.08371 -11.22115,-0.134131 -22.44194,-0.314568 -33.659959,-0.583943 h -5.3e-4 C 78.440275,87.745779 77.236834,86.638093 77.042447,85.470489 73.084,85.322851 69.12455,85.21827 65.162552,85.244146 63.622516,85.2542 62.557613,84.78512 61.954479,84.13052 Z" /></clipPath><clipPath
       clipPathUnits="userSpaceOnUse"
       id="clipPath58"><path
         id="path59"
         style="fill:#ff0000;fill-opacity:1;fill-rule:nonzero;stroke:none;stroke-width:0.264583"
         d="m 140.52399,120.59547 v 251.85336 h 69.34202 V 128.36606 c -9.09872,-0.30231 -18.19754,-0.6018 -27.29911,-0.80874 -11.7928,-0.24616 -23.58711,-0.49779 -35.37769,-0.8232 -3.49971,-0.0966 -4.30113,-2.53321 -2.82411,-3.99924 0.1708,-0.95643 1.06318,-1.84014 2.67115,-2.12597 -0.002,-0.004 -0.004,-0.009 -0.006,-0.0134 z m 55.88289,0 c 0.0803,0.73991 -0.26307,1.49439 -1.02319,2.01642 1.43243,0.0816 2.10118,0.11863 6.03322,0.34261 0.17006,0.01 0.31848,0.0382 0.47646,0.0584 2.65735,0.0854 5.31539,0.14739 7.97264,0.23564 v -2.65307 z" /></clipPath><clipPath
       clipPathUnits="userSpaceOnUse"
       id="clipPath105"><path
         id="path106"
         style="fill:#ff0000;fill-opacity:1;fill-rule:nonzero;stroke:none;stroke-width:0.264583"
         d="M 162.08049,131.76543 V 384.66214 H 279.64902 V 131.76543 h -39.51851 l 2.87682,0.0956 c 1.28693,0.0428 2.19276,0.42294 2.80707,0.93586 0.61336,0.0231 1.22686,0.0457 1.84019,0.0687 5.05943,0.1898 4.86771,5.30063 -0.19172,5.1108 -0.74521,-0.028 -1.49079,-0.0556 -2.23603,-0.0837 0.0985,0.77517 -0.224,1.57435 -1.07022,2.1146 9.11575,0.0281 18.23173,0.0984 27.34665,0.21756 5.06245,0.0662 4.99613,5.18014 -0.0667,5.1139 -4.26728,-0.0558 -8.53476,-0.0994 -12.80232,-0.13746 0.0537,0.29398 0.0563,0.59182 -0.0248,0.88005 1.08813,0.0127 2.17627,0.0189 3.2644,0.032 2.69349,0.0326 3.92159,1.49417 3.73259,2.84685 3.19288,0.0181 6.38587,0.0471 9.57874,0.0631 5.06293,0.0249 5.0373,5.13885 -0.0253,5.1139 -9.26839,-0.0457 -18.53684,-0.10515 -27.80502,-0.18293 0.1104,0.25568 0.12394,0.52173 0.12454,0.78548 1.24661,0.0485 2.49326,0.0962 3.73982,0.14521 2.29871,0.0903 3.49979,1.19522 3.66438,2.35489 0.65251,0.007 1.30499,0.0163 1.9575,0.0222 2.26894,0.0182 4.53792,0.0366 6.80682,0.0548 5.06281,0.0406 5.02191,5.15502 -0.0408,5.11442 l -6.81302,-0.0548 c -7.82981,-0.0717 -15.65938,-0.17091 -23.48849,-0.2961 -0.23898,0.23835 -0.4822,0.47281 -0.73226,0.70125 -0.93583,0.91966 -1.86751,1.84591 -2.70732,2.85564 -1.30143,1.29186 -2.79873,2.33055 -4.60076,2.79363 -1.48872,0.35926 -2.97765,0.45387 -4.5067,0.38601 h -3.59926 c -2.07468,0 -3.29775,-0.85899 -3.67213,-1.87275 -0.51044,-0.52402 -1.01018,-1.05959 -1.44746,-1.64692 -0.61736,-0.84623 -1.40838,-1.52935 -2.08566,-2.32492 -0.41049,-0.4822 -0.70995,-0.95214 -0.91519,-1.39889 -5.05444,-0.16053 -10.10884,-0.34342 -15.16445,-0.42787 -3.58033,-0.0598 -4.57497,-2.61289 -3.09075,-4.08607 -1.00088,-0.71646 -1.29268,-1.78425 -0.87592,-2.68356 -0.79717,-0.41848 -1.30421,-1.01131 -1.44591,-1.65777 -1.76037,-0.0601 -2.8711,-0.7492 -3.30574,-1.62006 -2.60537,0.0476 -5.21091,0.10282 -7.81554,0.18397 -4.36844,0.1361 -4.94554,-3.64314 -1.77198,-4.78472 -4.41094,-0.12326 -4.5338,-4.7727 0.2868,-5.10409 3.88615,-0.26712 7.77622,-0.45043 11.6675,-0.60513 -0.92511,-1.33574 -0.13461,-3.33994 2.86908,-3.85351 1.12522,-0.19238 2.07309,-0.34712 3.06079,-0.48369 -0.30281,-0.0892 -0.56199,-0.20942 -0.79995,-0.34261 -1.63667,0.0412 -3.27421,0.0423 -4.91029,0.11265 -4.1104,0.17682 -5.29416,-3.04874 -2.88355,-4.45554 z m 53.65926,29.97285 c 0.13308,0.1611 0.26453,0.32385 0.3917,0.49092 0.36135,0.48491 0.76438,0.93638 1.19683,1.35858 0.0394,0.0385 0.0522,0.0762 0.0899,0.11472 h 3.34036 c 1.10306,0.0178 2.1855,0.0627 3.25458,-0.23048 0.8419,-0.245 1.60429,-0.73374 2.18023,-1.39423 0.0377,-0.0456 0.0782,-0.0886 0.11627,-0.13384 -3.52332,-0.0674 -7.04695,-0.11811 -10.56989,-0.20567 z" /></clipPath><clipPath
       clipPathUnits="userSpaceOnUse"
       id="clipPath122"><path
         id="path123"
         style="fill:#ff0000;fill-opacity:1;fill-rule:nonzero;stroke:none;stroke-width:0.264583"
         d="M 124.25428,128.60261 V 371.74126 H 230.87827 V 128.60261 h -20.87263 c 1.43098,0.48054 2.12981,1.44948 2.13527,2.39675 0.12352,0.005 0.247,0.01 0.37052,0.0145 5.05954,0.18603 4.87144,5.29684 -0.1881,5.1108 -4.60579,-0.16935 -9.21074,-0.36009 -13.81621,-0.5364 -0.57721,0.73949 -1.70021,1.28389 -3.37137,1.26297 l -7.13187,-0.0894 c -8.71543,-0.11418 -17.43124,-0.28716 -26.14776,-0.24701 -2.527,0.0116 -3.79223,-1.25684 -3.79666,-2.53318 -0.63143,-0.0156 -1.12069,-0.0243 -1.84124,-0.0243 -5.06295,0 -5.06295,-5.11442 0,-5.11442 0.95851,0 1.39103,-0.006 2.47531,0.032 0.8505,0.0296 5.16446,0.22136 6.90655,0.29818 -0.073,-0.1863 -0.11425,-0.37794 -0.12971,-0.57051 z" /></clipPath><clipPath
       clipPathUnits="userSpaceOnUse"
       id="clipPath216"><path
         id="path217"
         style="fill:#ff0000;fill-opacity:1;fill-rule:nonzero;stroke:none;stroke-width:0.264583"
         d="M -0.10350352,135.2679 V 382.07815 H 105.44923 V 135.2679 H 80.518449 c 0.850331,0.47738 1.287031,1.18067 1.342035,1.8929 3.17183,0.10507 6.344076,0.20341 9.5157,0.3142 4.857197,0.16966 4.836962,4.83856 0.355534,5.05964 0.828045,1.58817 -0.493961,3.61753 -3.756361,3.33674 -1.145593,-0.0986 -2.291837,-0.18989 -3.437517,-0.28783 0.225639,1.35731 -0.949733,2.84783 -3.660241,2.91351 -5.328999,0.12914 -6.526964,0.17226 -8.119917,0.21136 0.633529,0.27003 1.060583,0.67317 1.324467,1.12448 1.115526,0.101 1.93951,0.47101 2.467034,0.97203 0.612447,0.0232 0.891489,0.0337 2.600356,0.10025 5.059088,0.19701 4.860116,5.30781 -0.198953,5.1108 -0.425596,-0.0166 -0.285978,-0.0108 -0.647507,-0.0248 0.0097,0.0642 2.65e-4,0.12877 0.0036,0.19327 3.616552,0.74499 3.272229,4.86079 -1.261938,4.99763 -3.395983,0.10248 -4.225348,0.1211 -5.098397,0.15658 0.09981,0.65459 -0.136596,1.33283 -0.707451,1.8712 4.266293,-0.0383 8.532794,-0.0537 12.797669,-0.0646 2.243042,0.002 4.486269,0.003 6.729306,0.005 5.063004,0.004 5.059336,5.11792 -0.0036,5.11442 -2.237497,-0.002 -4.475263,-0.003 -6.712768,-0.005 -3.349903,0.009 -6.701083,0.0646 -10.0521,0.0868 -0.198549,1.19081 -1.512197,2.26062 -3.891235,2.14509 -1.124448,-0.0546 -0.5539,-0.0236 -1.712556,-0.0935 -1.922227,-0.1501 -3.837887,-0.37132 -5.735568,-0.7183 -0.307039,-0.0529 -0.614675,-0.10225 -0.921906,-0.154 -0.170016,0.22041 -0.325512,0.45017 -0.504881,0.66456 -1.197808,1.62141 -2.497513,3.20191 -4.309814,4.16616 -1.450798,0.72567 -2.958854,1.32579 -4.558895,1.63297 -2.694802,0.51737 -4.191418,-0.70782 -4.210079,-2.0991 -0.07144,-0.058 -0.138528,-0.0775 -0.210323,-0.14055 -0.782894,-0.6872 -1.616035,-1.30534 -2.399337,-1.99213 -0.969504,-0.85005 -1.4615,-1.73819 -1.65313,-2.55127 -0.765603,0.0495 -1.531672,0.0912 -2.297014,0.14625 -5.263878,0.42481 -10.524281,0.8786 -15.758729,1.5844 -4.252182,0.57334 -5.190061,-2.97365 -2.336808,-4.48965 -2.131608,-0.48916 -2.856251,-2.11144 -2.171443,-3.37137 -3.202435,-0.97254 -2.629832,-4.80278 1.751314,-4.88239 0.505534,-0.009 1.011147,-0.0135 1.516703,-0.0217 -0.420034,-0.78079 -0.300908,-1.71987 0.399457,-2.45153 -3.306953,-0.042 -6.613977,-0.0938 -9.921356,-0.0842 -2.034998,0.006 -3.237389,-0.81957 -3.636471,-1.80661 -0.276003,-0.005 -0.551854,-0.0153 -0.827857,-0.0196 -5.0622705,-0.0802 -5.0622811,-5.19376 0,-5.11442 3.011855,0.0472 6.023221,0.11237 9.034592,0.18087 0.02611,-0.72734 0.426728,-1.47987 1.322398,-2.03399 -0.430287,0.007 -0.860618,0.01 -1.290878,0.0186 -2.806272,0.0574 -3.183155,0.10031 -5.448245,0.25269 -3.161226,0.21265 -4.6255858,-1.67687 -4.042129,-3.21272 -1.2604832,-0.34606 -2.0092408,-1.1515 -2.0918649,-2.05 -1.9641158,-1.19383 -1.5474368,-3.96249 2.0923809,-4.51859 1.895697,-0.28963 2.186127,-0.35918 4.515485,-0.5364 2.469118,-0.18784 4.942755,-0.29124 7.416604,-0.39016 -0.09109,-0.37655 -0.05646,-0.76535 0.07958,-1.1374 z M 55.969042,168.62452 c -1.950707,0.0643 -3.900689,0.14321 -5.85029,0.23461 7.94e-4,0.018 0.01109,0.0374 0.01138,0.0553 0.39986,0.32428 0.798079,0.6507 1.185974,0.99116 0.337095,0.29582 0.553278,0.59506 0.782384,0.89348 0.873609,-0.24106 1.708573,-0.59396 2.516642,-1.00821 0.51662,-0.31098 0.955477,-0.71832 1.353921,-1.16633 z" /></clipPath><clipPath
       clipPathUnits="userSpaceOnUse"
       id="clipPath227"><path
         id="path228"
         style="fill:#ff0000;fill-opacity:1;fill-rule:nonzero;stroke:none;stroke-width:0.264583"
         d="M 27.110856,122.37876 V 369.18282 H 106.61143 V 131.46865 c -8.556596,-0.17174 -17.114814,-0.26199 -25.673368,-0.23203 -10.396027,0.055 -20.792601,0.13477 -31.18621,0.37827 -3.960093,0.0928 -4.776412,-2.99025 -2.539897,-4.40541 0.133903,-1.06578 1.136782,-2.14526 3.193087,-2.53835 0.398611,-0.0762 0.802087,-0.11905 1.201994,-0.18655 -0.202628,-0.71584 0.0072,-1.49729 0.655773,-2.10582 z" /></clipPath><clipPath
       clipPathUnits="userSpaceOnUse"
       id="clipPath238"><path
         id="path239"
         style="fill:#ff0000;fill-opacity:1;fill-rule:nonzero;stroke:none;stroke-width:0.264583"
         d="M 43.421682,134.0535 V 382.22698 H 117.71379 V 134.0535 H 97.19256 c 1.130861,0.23003 1.901653,0.73812 2.328024,1.34565 3.904016,0.0967 3.370906,0.0598 9.184966,0.30748 4.97651,0.212 4.84232,5.15805 0.0202,5.11235 -0.63212,0.56299 -1.61225,0.96252 -3.01997,0.94464 -7.466977,-0.0948 -3.63423,-0.049 -11.498526,-0.13642 -8.123706,-0.067 -16.251312,-0.15351 -24.373189,0.0775 -3.811252,0.10842 -4.907272,-2.75471 -3.057695,-4.24057 -1.828413,-0.0534 -3.657142,-0.0947 -5.486487,-0.10748 -3.013244,-0.0211 -4.23273,-1.84048 -3.659209,-3.30316 z" /></clipPath><clipPath
       clipPathUnits="userSpaceOnUse"
       id="clipPath253"><path
         id="path254"
         style="fill:#ff0000;fill-opacity:1;fill-rule:nonzero;stroke:none;stroke-width:0.264583"
         d="M -7.8253183,114.67234 V 360.29301 H 79.544025 V 114.67234 H 66.303489 c 2.444836,0.20865 4.889746,0.41549 7.334435,0.62581 2.044729,0.1759 3.144356,1.12065 3.445785,2.14974 2.610313,1.26204 1.841839,4.66488 -2.291331,4.64881 -14.753102,-0.0574 -7.286038,-0.0326 -22.401734,-0.0739 -12.350902,-0.004 -24.705049,-0.0193 -37.052001,0.34055 -5.060831,0.1475 -5.06081,-4.96618 0,-5.11442 0.178083,-0.005 0.356246,-0.007 0.534334,-0.0119 -0.02347,-0.44105 0.09922,-0.88422 0.412377,-1.27745 -0.771038,-0.0569 -1.542008,-0.11457 -2.313038,-0.17156 -1.343681,-0.0993 -2.31694,-0.53869 -2.945556,-1.1157 z" /></clipPath><clipPath
       clipPathUnits="userSpaceOnUse"
       id="clipPath264"><path
         id="path265"
         style="fill:#ff0000;fill-opacity:1;fill-rule:nonzero;stroke:none;stroke-width:0.264583"
         d="M 50.901331,113.8641 V 361.42418 H 158.77072 V 113.8641 h -37.49694 c 5.6154,0.31355 11.22893,0.66603 16.84135,1.03094 3.57417,0.23239 4.40202,2.83008 2.82205,4.22817 0.27198,1.37825 -0.94612,2.9175 -3.70572,2.96313 -8.0725,0.13346 -16.14515,0.27115 -24.21764,0.40514 -10.48651,0.14241 -20.972696,0.16473 -31.460097,0.14004 -5.062964,-0.0119 -5.062964,-5.12623 0,-5.11441 0.177258,4e-4 0.354494,-4e-4 0.531752,0 -0.07131,-0.27268 -0.129305,-0.54883 -0.08837,-0.81804 -0.769887,-0.86654 -0.780282,-2.0114 0.04806,-2.83497 z" /></clipPath><clipPath
       clipPathUnits="userSpaceOnUse"
       id="clipPath268"><path
         id="path268"
         style="fill:#ff0000;fill-opacity:1;fill-rule:nonzero;stroke:none;stroke-width:0.264583"
         d="M 131.28712,141.45415 V 367.51838 H 209.9092 V 141.45415 h -34.19688 c 2.05019,0.045 4.10038,0.0881 6.15052,0.13332 2.08415,0.0456 4.16817,0.0909 6.25234,0.13643 5.06176,0.11063 4.95014,5.22401 -0.11162,5.11338 -2.08454,-0.0456 -4.16883,-0.0914 -6.25337,-0.13694 -7.89973,-0.17436 -15.79997,-0.38827 -23.70243,-0.3235 -4.49804,0.0369 -4.99623,-3.9935 -1.50172,-4.92269 z" /></clipPath><clipPath
       clipPathUnits="userSpaceOnUse"
       id="clipPath278"><path
         id="path279"
         style="fill:#ff0000;fill-opacity:1;fill-rule:nonzero;stroke:none;stroke-width:0.264583"
         d="M 28.299222,106.83973 V 338.01476 H 120.94886 V 106.83973 H 80.135333 c 2.034577,0.0614 3.982879,0.12316 7.183541,0.22169 3.199595,0.12311 6.399305,0.24637 9.598898,0.36948 1.412967,0.0544 2.415283,0.49233 3.016869,1.09089 1.313079,0.0143 2.099169,0.0259 6.045629,0.0687 5.06266,0.055 5.00738,5.16888 -0.0553,5.1139 -1.84067,-0.02 -1.70833,-0.02 -2.81998,-0.032 1.51145,1.53449 0.40635,4.11637 -3.211174,4.01268 -2.981463,-0.0855 -5.963206,-0.17086 -8.944671,-0.25632 -11.329138,-0.33337 -22.660798,-0.61486 -33.98139,-1.18132 -3.17568,-0.1589 -4.354441,-2.23253 -3.541387,-3.69228 -0.466884,-0.20422 -0.84636,-0.46745 -1.131197,-0.76998 -4.540824,0.0689 -5.297517,-4.08333 -1.362189,-4.94543 z" /></clipPath><clipPath
       clipPathUnits="userSpaceOnUse"
       id="clipPath289"><path
         id="path290"
         style="fill:#ff0000;fill-opacity:1;fill-rule:nonzero;stroke:none;stroke-width:0.264583"
         d="M 32.423691,112.94919 V 361.51077 H 175.88935 V 112.94919 h -47.024 c 0.99712,0.0472 1.99448,0.0882 2.99155,0.13643 5.05707,0.24453 4.81006,5.35339 -0.24702,5.10873 -1.55441,-0.0752 -3.10923,-0.14061 -4.66379,-0.21291 -0.009,0.0221 -0.009,0.0458 -0.0191,0.0677 2.86706,1.11871 2.29047,4.67321 -1.942,4.75216 -9.91357,0.18494 -19.85411,0.4296 -29.746507,-0.41237 -3.492664,-0.39606 -7.027534,-0.80715 -10.300147,-2.17765 -1.207661,-0.50574 -1.919028,-1.19066 -2.298568,-1.89239 -2.418664,-0.0836 -4.83753,-0.15833 -7.25692,-0.20567 -5.062005,-0.0991 -5.062064,-5.21038 0,-5.11442 1.527514,0.029 3.054406,0.0954 4.581631,0.14056 0.0839,-0.0662 0.173405,-0.12945 0.268719,-0.19017 z" /></clipPath><clipPath
       clipPathUnits="userSpaceOnUse"
       id="clipPath308"><path
         id="path309"
         style="fill:#ff0000;fill-opacity:1;fill-rule:nonzero;stroke:none;stroke-width:0.264583"
         d="M 55.228226,113.31816 V 363.76075 H 154.66247 V 123.09586 c -3.72214,-0.12972 -7.4456,-0.21638 -11.16831,-0.3266 -0.4542,0.90892 -1.62291,1.65463 -3.51917,1.69964 -8.86738,0.21049 -17.73473,0.42489 -26.60406,0.53744 -0.11334,0.001 -0.22669,0.003 -0.34003,0.004 -0.17584,0.0156 -0.34956,0.0482 -0.52555,0.0625 -3.0044,0.18154 -4.49137,0.34147 -7.46466,0.2558 -0.92998,-0.0268 -1.85682,-0.0904 -2.77968,-0.18501 -7.644963,0.0932 -15.290209,0.17837 -22.935546,0.22583 -5.062884,0.0314 -5.062881,-5.08232 0,-5.1139 0.533646,-0.003 1.06729,-0.0108 1.600936,-0.0145 -0.568132,-1.32377 0.278527,-2.9351 2.731614,-3.24218 -0.445244,-0.30512 -0.757428,-0.68181 -0.923457,-1.09244 -2.194113,-0.0892 -4.389736,-0.11679 -6.585127,-0.0351 -2.619373,0.0973 -3.870344,-1.22722 -3.777549,-2.55333 z m 62.383784,0 3.21841,0.13694 c 1.37732,0.0586 2.32781,0.49269 2.93161,1.07074 2.65413,0.28658 4.3646,0.47728 12.76666,1.42265 1.57936,0.17771 2.54518,0.81606 3.05563,1.56941 5.02676,0.13303 10.05272,0.28624 15.07815,0.46096 v -4.6607 z" /></clipPath><clipPath
       clipPathUnits="userSpaceOnUse"
       id="clipPath315"><path
         id="path316"
         style="fill:#ff0000;fill-opacity:1;fill-rule:nonzero;stroke:none;stroke-width:0.264583"
         d="M 61.650166,131.93881 V 356.77005 H 149.24689 V 131.93881 h -30.92731 c 0.0876,0.1156 0.16542,0.23464 0.22685,0.3576 2.84564,-0.0926 5.69217,-0.15606 8.53747,-0.25942 0.15811,-0.006 0.31185,-0.006 0.46044,-0.002 v 5e-4 c 4.60606,0.13288 4.62711,4.93485 -0.27441,5.11287 -6.99382,0.25401 -13.98826,0.48973 -20.98528,0.6382 -4.94023,0.14888 -9.894077,0.22819 -14.820282,0.64544 -3.107995,0.26325 -4.587796,-1.53721 -4.092774,-3.06906 -1.334852,-0.81503 -1.542976,-2.3515 -0.45062,-3.42408 z" /></clipPath><clipPath
       clipPathUnits="userSpaceOnUse"
       id="clipPath333"><path
         id="path334"
         style="fill:#ff0000;fill-opacity:1;fill-rule:nonzero;stroke:none;stroke-width:0.264583"
         d="M 58.473694,99.495849 V 341.941 H 149.19632 V 99.495849 h -24.78918 c 1.64978,0.106863 3.17743,0.198533 9.34103,0.612881 0.80424,0.0541 1.47048,0.22986 2.00401,0.48421 3.05696,0.86668 3.06702,3.83075 0.37465,4.63589 2.18208,1.37267 1.31279,4.46135 -2.62102,4.4695 -7.03073,0.0146 -14.06156,0.0286 -21.09226,0.0532 -6.86654,0.0278 -13.738713,-0.0127 -20.601841,0.22428 -2.178396,0.0752 -3.510631,-0.82092 -3.920689,-1.88154 -3.722946,-0.35062 -3.858693,-4.37683 0.470256,-5.0121 -0.279955,1.8e-4 -0.559768,-0.004 -0.839743,-0.003 -3.23755,0.0139 -4.401012,-2.07135 -3.497978,-3.583238 z" /></clipPath><clipPath
       clipPathUnits="userSpaceOnUse"
       id="clipPath348"><path
         id="path349"
         style="fill:#ff0000;fill-opacity:1;fill-rule:nonzero;stroke:none;stroke-width:0.264583"
         d="M 66.158002,122.5947 V 358.34878 H 144.08296 V 131.53782 c -15.52935,-0.47483 -31.05776,-0.99563 -46.59302,-1.23558 -5.763866,-0.14157 -11.5272,-0.30449 -17.289901,-0.48524 -3.77177,-0.11831 -4.72807,-2.98532 -2.877343,-4.37493 -0.161013,1e-4 -0.237551,-0.009 -0.442351,-0.009 -2.717997,0 -3.962297,-1.47323 -3.762044,-2.83858 z m 72.394548,0 c 0.67782,1.04976 0.33379,2.40449 -1.05265,3.14037 -0.0606,0.16826 -0.17978,0.32073 -0.28525,0.47698 2.2894,0.0709 4.57891,0.13873 6.86831,0.20877 v -3.82612 z" /></clipPath><clipPath
       clipPathUnits="userSpaceOnUse"
       id="clipPath352"><path
         id="path352"
         style="fill:#ff0000;fill-opacity:1;fill-rule:nonzero;stroke:none;stroke-width:0.264583"
         d="M 56.312091,119.91102 V 360.00283 H 153.43226 V 119.91102 h -25.32248 c 2.38955,1.29072 1.6157,4.52957 -2.40657,4.59042 -8.8868,0.13445 -4.38604,0.0863 -13.50409,0.14004 -7.60275,-0.0226 -15.212275,-0.13968 -22.812045,0.10284 -4.454025,0.14213 -5.343574,-3.7696 -2.043286,-4.8333 z" /></clipPath><clipPath
       clipPathUnits="userSpaceOnUse"
       id="clipPath361"><path
         id="path362"
         style="fill:#ff0000;fill-opacity:1;fill-rule:nonzero;stroke:none;stroke-width:0.264583"
         d="m 117.18331,120.27327 v 236.69667 h 76.1106 V 120.27327 h -3.95221 c 4.06399,0.7183 3.62135,5.15028 -1.09761,5.01417 -2.92693,-0.0844 -5.85387,-0.16142 -8.78086,-0.24133 -0.52703,0.84402 -1.69476,1.49293 -3.53105,1.44332 -6.74893,-0.18234 -13.49754,-0.36634 -20.24424,-0.62115 -6.09502,-0.22766 -12.19265,-0.5262 -18.29346,-0.47749 -1.79205,0.0143 -2.91669,-0.62935 -3.4401,-1.45314 -0.34624,-0.001 -0.69245,-0.008 -1.0387,-0.008 -3.28241,9.8e-4 -4.42308,-2.14383 -3.4494,-3.65611 z" /></clipPath><clipPath
       clipPathUnits="userSpaceOnUse"
       id="clipPath368"><path
         id="path369"
         style="fill:#ff0000;fill-opacity:1;fill-rule:nonzero;stroke:none;stroke-width:0.264583"
         d="M 63.050319,122.59303 V 359.0897 H 146.4473 V 122.59303 h -32.07608 c 7.4281,0.45247 3.89623,0.22736 11.23445,0.71416 3.46428,0.22982 4.39298,2.70144 3.00602,4.1243 -0.32689,1.06199 -1.5121,1.98907 -3.66592,1.97766 -8.58774,-0.0455 -4.22411,0.005 -13.09119,-0.15917 -7.7684,-0.26038 -15.535285,-0.60423 -23.277652,-1.30534 -4.619033,-0.41829 -4.965957,-4.48658 -1.112076,-5.0183 0.05624,-0.11439 0.121851,-0.22638 0.201536,-0.33331 z" /></clipPath><clipPath
       clipPathUnits="userSpaceOnUse"
       id="clipPath375"><path
         id="path376"
         style="fill:#ff0000;fill-opacity:1;fill-rule:nonzero;stroke:none;stroke-width:0.264583"
         d="m 64.84115,127.43065 v 230.62882 h 79.86128 V 127.43065 h -13.43639 c 2.47875,1.36331 1.58693,4.67526 -2.50269,4.54133 -5.55236,-0.18184 -6.88355,-0.22607 -8.36022,-0.27027 -0.55171,0.76875 -1.65937,1.35854 -3.35431,1.37717 -9.31704,0.1024 -18.633687,0.13092 -27.951269,0.10853 -1.934138,-0.005 -3.117036,-0.75589 -3.573425,-1.67949 -0.04866,0.003 -0.110074,0.005 -0.157613,0.008 -0.219319,0.014 -0.435306,0.0576 -0.653191,0.0863 -4.05838,0.5344 -5.550581,-2.56587 -3.327962,-4.17132 z" /></clipPath></defs><g
     id="layer1"
     transform="translate(41.931023,-15.80251)"><path
       style="fill:#000000"
       d="m 5.9815165,454.9915 c -1.1468426,-0.64242 -1.2486896,-1.04479 -1.4272298,-5.63861 -0.1364572,-3.51103 -0.6295805,-5.11504 -1.5725289,-5.11504 -0.2443689,0 -0.4443071,-0.13793 -0.4443071,-0.30652 0,-0.16859 -0.9670838,-1.24015 -2.14907507,-2.38125 -5.46106713,-5.27214 -9.06006623,-12.05603 -10.17776053,-19.18445 -0.2281681,-1.45521 -0.5642211,-3.50575 -0.7467851,-4.55675 -0.413932,-2.38298 -0.428479,-4.61547 -0.03008,-4.61547 0.166022,0 0.389201,-1.15094 0.495953,-2.55764 0.1836518,-2.42002 0.9930535,-6.30202 1.636591,-7.84931 0.1613978,-0.38805 0.6599823,-1.65805 1.1079656,-2.82222 1.0296521,-2.67574 3.0105352,-6.40268 4.0925642,-7.69998 0.8459016,-1.01419 1.1229846,-2.96617 0.5119485,-3.60655 -0.6623509,-0.69415 -1.2025994,-5.84493 -1.2605279,-12.018 l -0.059975,-6.3912 -1.149578,-1.19352 c -1.7525764,-1.81957 -4.7585875,-5.90228 -5.9605254,-8.09548 -0.943474,-1.72157 -2.405794,-5.4929 -2.726933,-7.03277 -0.0607,-0.29104 -0.140816,-0.60854 -0.178042,-0.70555 -0.03723,-0.097 -0.09385,-0.33514 -0.125831,-0.52917 -0.03198,-0.19403 -0.270729,-1.53093 -0.530551,-2.9709 -0.304973,-1.69021 -0.406905,-4.0033 -0.2876,-6.52639 0.155359,-3.28554 0.386902,-4.48523 1.453188,-7.52933 1.424079,-4.06556 1.51094,-4.7343 0.702122,-5.40555 -0.74034,-0.61443 -3.358327,-4.43681 -3.965664,-5.79005 -1.6184,-3.60605 -1.89403,-4.96459 -2.072193,-10.21363 -0.157649,-4.64465 0.05957,-7.18404 0.801144,-9.36554 0.03298,-0.097 0.180646,-0.68876 0.32815,-1.315 0.147503,-0.62624 0.471275,-1.30717 0.719493,-1.51317 0.248217,-0.206 0.79693,-1.22612 1.219362,-2.26692 0.476663,-1.17442 1.029234,-1.96068 1.456464,-2.0724 0.656832,-0.17176 0.645938,-0.24209 -0.237526,-1.53335 -1.41211,-2.06392 -4.199771,-7.81702 -5.220014,-10.77293 -2.427381,-7.03276 -1.630186,-16.56619 1.935478,-23.14587 0.558501,-1.0306 1.015457,-2.0197 1.015457,-2.19801 0,-0.17831 -0.591577,-1.2401 -1.314616,-2.35953 -2.980851,-4.61502 -4.907226,-8.51795 -5.244134,-10.62486 -0.130187,-0.81414 -0.334914,-1.54066 -0.454948,-1.61448 -0.120035,-0.0738 -0.118096,-2.49124 0.0043,-5.37204 0.179084,-4.21475 0.401855,-5.81452 1.140513,-8.19031 0.504877,-1.62387 0.801603,-3.16012 0.65939,-3.41388 -0.142212,-0.25377 -1.687318,-1.52719 -3.433567,-2.82982 -1.74625,-1.30264 -4.92125,-4.13688 -7.055555,-6.29832 -3.52964,-3.57451 -4.882535,-5.31201 -8.251505,-10.59728 l -1.115571,-1.75011 0.09743,-17.93027 c 0.0654,-12.037 0.219329,-18.01295 0.468316,-18.18183 0.203989,-0.13836 0.661937,-1.04531 1.017661,-2.01545 0.355725,-0.97014 0.923373,-2.39889 1.261441,-3.175 0.338068,-0.77611 1.368604,-3.15736 2.29008,-5.29167 0.921476,-2.1343 2.665692,-5.9443 3.876035,-8.46666 4.917144,-10.24735 6.024138,-13.06854 6.298342,-16.05139 0.616835,-6.71009 1.607111,-14.78537 1.903498,-15.52222 0.117066,-0.29105 0.256183,-0.84667 0.30915,-1.23473 0.483809,-3.54463 2.52414,-12.25412 3.860699,-16.48004 0.473447,-1.49695 0.860813,-2.903843 0.860813,-3.126443 0,-0.751746 3.2685,-9.65174 4.654009,-12.67268 1.567375,-3.417477 4.005863,-8.245805 5.3449841,-10.583333 0.5001948,-0.873125 1.2372327,-2.284823 1.6378619,-3.137107 0.4006292,-0.852285 1.6247988,-3.074785 2.7203768,-4.938889 C 0.74625728,57.875467 7.6194168,49.46333 17.283901,40.536843 c 5.222665,-4.823853 9.556749,-8.343431 10.274282,-8.343431 0.208596,0 0.379265,-0.129517 0.379265,-0.287817 0,-0.158299 0.674687,-0.65746 1.499305,-1.109247 0.824618,-0.451787 2.026724,-1.21223 2.671346,-1.689873 1.371237,-1.016042 7.921013,-4.517834 12.057125,-6.446259 2.845544,-1.32671 9.507711,-3.835898 10.313839,-3.884528 0.14282,-0.0086 0.93657,-0.258797 1.763888,-0.555958 2.266971,-0.814266 6.424125,-1.54854 8.767193,-1.54854 1.155237,0 2.085633,-0.157373 2.085633,-0.352778 0,-0.503558 11.172538,-0.473659 11.48427,0.03073 0.130363,0.210931 0.572725,0.295723 0.983027,0.188427 1.191481,-0.31158 11.492012,1.121645 13.814644,1.922181 3.58254,1.234786 9.827412,4.492367 12.058532,6.290228 l 2.12113,1.709224 2.17757,-1.692174 c 4.18945,-3.255576 11.07169,-6.078304 19.09693,-7.832545 4.79774,-1.04874 5.56421,-1.118991 12.34722,-1.131696 7.27144,-0.01362 11.93645,0.472534 17.4625,1.819814 1.16417,0.28383 2.63407,0.600289 3.26646,0.703242 0.63239,0.102953 1.23707,0.328398 1.34374,0.500988 0.10667,0.17259 0.44647,0.3138 0.75512,0.3138 1.22633,0 9.11839,3.187554 11.7444,4.743493 0.48507,0.287408 1.66554,0.863248 2.62328,1.279642 3.04087,1.322084 10.17875,5.918128 13.6045,8.759873 5.34365,4.432693 15.63764,15.285814 16.69091,17.5975 0.22979,0.504334 0.90486,1.402226 1.50016,1.995315 2.64541,2.635606 8.03337,11.712564 13.20434,22.245009 1.52414,3.104445 3.00606,6.20007 3.29315,6.879167 0.2871,0.679097 0.95682,2.266597 1.48828,3.527778 4.09779,9.724253 8.03332,24.923372 8.99752,34.748612 0.20945,2.13431 0.51282,4.19806 0.67415,4.58611 0.16133,0.38806 0.55241,3.66537 0.86907,7.28291 0.57353,6.55195 1.11488,9.03847 2.75389,12.64904 0.39635,0.87312 1.15252,2.54 1.68038,3.70416 0.52786,1.16417 1.59747,3.46605 2.37692,5.11528 0.77945,1.64924 1.76582,3.79236 2.19192,4.7625 0.42611,0.97014 0.9886,2.24014 1.24998,2.82222 0.26138,0.58209 0.96428,2.29278 1.562,3.80155 l 1.08676,2.74321 v 20.43941 20.43941 l -0.93458,1.68821 c -0.51402,0.92852 -1.41903,2.39815 -2.01112,3.26584 -1.42381,2.08657 -8.93362,9.80357 -9.8115,10.0822 -0.37882,0.12023 -0.83804,0.56221 -1.02049,0.98217 -0.18245,0.41996 -0.52682,1.03675 -0.76526,1.37064 -0.35045,0.49075 -0.31042,0.93013 0.20894,2.29305 2.03998,5.35342 2.95126,11.3231 2.35957,15.45715 -0.61803,4.31804 -2.37904,9.25742 -4.29156,12.03717 -0.56106,0.81547 -1.02011,1.58831 -1.02011,1.71743 0,0.12912 -0.29667,0.65614 -0.65927,1.17116 -1.42679,2.02656 -1.44118,1.94481 1.3802,7.84147 0.14607,0.30529 0.61216,1.79021 1.03576,3.29982 0.65688,2.34099 0.74436,3.34909 0.59468,6.85326 -0.17244,4.03674 -0.28276,4.99351 -0.69747,6.0488 -0.11437,0.29104 -0.37629,1.18763 -0.58204,1.99242 -0.51339,2.00818 -1.65901,4.5257 -2.30247,5.05972 -0.2933,0.24342 -0.53327,0.59378 -0.53327,0.77859 0,0.1848 -0.71438,1.44031 -1.5875,2.79002 -0.87313,1.34972 -1.5875,2.58563 -1.5875,2.74647 0,0.16084 0.6268,1.64915 1.39289,3.30735 2.20669,4.77637 2.60468,6.72866 2.6058,12.78237 0.001,6.40402 -0.39137,7.80091 -3.96558,14.11111 -2.92662,5.16688 -3.00156,5.36874 -2.35785,6.35116 0.46902,0.71582 1.0658,2.58505 2.02696,6.34884 0.20806,0.81473 0.28907,3.64755 0.19168,6.70278 -0.15641,4.90676 -0.26155,5.56931 -1.4455,9.10866 -0.70225,2.09934 -1.77398,4.71872 -2.38163,5.82083 -1.12196,2.03492 -3.85836,5.72484 -5.67188,7.64829 -0.68786,0.72955 -0.93139,1.27752 -0.78391,1.76389 0.7264,2.39565 0.92544,4.73155 0.75825,8.89881 -0.16575,4.13147 -0.31667,5.00856 -1.31853,7.66304 l -1.13136,2.99758 1.07015,1.68556 c 1.00752,1.58692 2.25225,4.1234 3.89056,7.92815 0.66083,1.53469 1.68396,5.63139 1.92106,7.69213 0.0558,0.48507 0.23116,1.08892 0.38967,1.34188 0.38509,0.61459 0.397,11.85142 0.0132,12.4643 -0.16578,0.26473 -0.34708,0.8782 -0.40289,1.36327 -0.35359,3.0732 -1.41977,6.47529 -3.02433,9.65042 -0.99468,1.96831 -1.93538,3.7375 -2.09044,3.93152 -0.15506,0.19403 -1.17393,1.62278 -2.26415,3.175 -1.09022,1.55223 -2.67497,3.53147 -3.52165,4.39833 -0.84669,0.86685 -1.53943,1.70029 -1.53943,1.85208 0,0.15179 -0.23024,0.27598 -0.51164,0.27598 -0.2814,0 -0.63859,0.20616 -0.79375,0.45814 -0.41717,0.67747 -4.18446,3.47786 -6.8085,5.06106 -3.76769,2.27321 -7.11598,3.65362 -8.84758,3.64762 -2.59236,-0.009 -2.70475,-0.22653 -3.18669,-6.16821 l -0.34338,-4.23333 -1.46934,-1.49931 c -0.80815,-0.82461 -1.59488,-1.4993 -1.7483,-1.4993 -0.37008,0 -4.86582,-4.2607 -4.86582,-4.61142 0,-0.15026 -0.47625,-0.74945 -1.05833,-1.33153 -0.58208,-0.58208 -1.05833,-1.30078 -1.05833,-1.59711 0,-0.29632 -0.24318,-0.67486 -0.54039,-0.84119 -0.29721,-0.16632 -1.12564,-1.8014 -1.84094,-3.6335 l -1.30056,-3.33108 -0.0111,-8.46667 c -0.011,-8.39026 -0.002,-8.49532 1.0113,-11.64167 0.56235,-1.74625 1.47516,-4.17116 2.02847,-5.38869 0.55332,-1.21754 1.00603,-2.30018 1.00603,-2.40589 0,-0.1057 0.47625,-0.88439 1.05834,-1.73042 0.58208,-0.84603 1.06096,-1.66838 1.06417,-1.82745 0.003,-0.15907 0.87137,-1.24171 1.92925,-2.40588 1.05788,-1.16417 1.92837,-2.368 1.93444,-2.67519 0.0168,-0.85003 -0.76736,-4.68579 -1.03972,-5.08592 -0.38759,-0.56943 -0.53685,-2.84654 -0.53532,-8.16664 0.001,-4.25312 0.0926,-5.09233 0.61737,-5.67222 0.82557,-0.91225 0.7757,-1.65934 -0.17783,-2.66396 -3.07746,-3.24234 -5.831,-8.25858 -6.82736,-12.43769 -0.32215,-1.35119 -0.72356,-2.73237 -0.89203,-3.06929 -0.43032,-0.86058 -0.38931,-9.34865 0.0465,-9.61798 0.19403,-0.11992 0.35278,-0.65156 0.35278,-1.18142 0,-1.33491 0.94122,-4.86869 1.77497,-6.66404 0.88724,-1.91056 0.88226,-1.97557 -0.28612,-3.73264 -3.64161,-5.47647 -5.38735,-12.56425 -4.66302,-18.93209 0.49341,-4.33778 1.22043,-6.79906 3.12903,-10.59316 1.73396,-3.44692 1.80117,-3.89806 0.76138,-5.11054 -0.33278,-0.38805 -0.9431,-1.57868 -1.35626,-2.64583 -0.41317,-1.06715 -0.93882,-2.41653 -1.16813,-2.99861 -0.52749,-1.339 -0.50619,-1.2608 -1.20132,-4.40972 -1.14427,-5.18358 -0.0986,-12.62263 2.70804,-19.26623 l 1.06009,-2.50928 -1.30128,-2.03422 c -0.7157,-1.11883 -1.6082,-2.72809 -1.98333,-3.57614 -0.37514,-0.84805 -0.80914,-1.54191 -0.96446,-1.54191 -0.15531,0 -2.19148,1.7191 -4.52481,3.82023 -5.8567,5.27387 -6.87697,6.06869 -10.50561,8.18411 -1.89918,1.10719 -4.30906,2.93954 -5.99722,4.55999 -2.7933,2.68126 -8.04437,7.00811 -11.1125,9.15662 -9.16927,6.42095 -15.25794,10.02393 -20.43197,12.09064 -4.41992,1.76549 -6.70624,2.47822 -10.61247,3.3083 -0.48507,0.10308 -2.44984,0.26347 -4.36616,0.35642 -7.46282,0.362 -14.7506,-1.79678 -25.090784,-7.43234 -2.225125,-1.21273 -12.444676,-7.80117 -12.876387,-8.30127 -0.09701,-0.11238 -2.160764,-1.73274 -4.586111,-3.60078 -2.425347,-1.86805 -5.677234,-4.59101 -7.226416,-6.05104 -1.549182,-1.46002 -3.216057,-2.85844 -3.704166,-3.10759 -0.77768,-0.39696 -2.446734,-1.45219 -5.571559,-3.52252 -0.492594,-0.32636 -1.22769,-0.97579 -1.633547,-1.44318 -0.405856,-0.46739 -2.217658,-2.24785 -4.026225,-3.95657 l -3.288305,-3.10677 -0.619426,1.02218 c -0.340684,0.5622 -0.915335,1.81593 -1.277002,2.78607 -0.747747,2.00576 -1.402462,3.1784 -2.412108,4.32025 -0.563893,0.63773 -0.627976,0.94772 -0.328178,1.5875 0.63744,1.36033 2.555453,7.75548 2.924431,9.75081 0.193266,1.04513 0.351393,4.00143 0.351393,6.56956 0,5.3527 -0.667299,8.04087 -3.224861,12.99117 l -1.427881,2.76374 1.063695,1.99876 c 0.585032,1.09932 1.512837,3.26876 2.061788,4.82099 0.961559,2.71891 0.998092,3.06756 0.998092,9.525 v 6.70277 l -1.313081,2.75649 c -0.722194,1.51607 -1.799512,3.47724 -2.39404,4.35816 -0.70927,1.05094 -0.968922,1.74071 -0.75513,2.00602 0.584689,0.72557 2.471472,6.69627 2.89537,9.16237 0.655048,3.81085 0.243663,10.75645 -0.832875,14.06183 -0.937996,2.88 -3.438527,8.34019 -4.291485,9.37094 -2.447661,2.95785 -2.710835,3.43615 -2.472215,4.49297 0.132062,0.5849 0.375639,1.69844 0.541282,2.47456 0.401355,1.88052 0.415797,10.52895 0.01829,10.95375 -0.172484,0.18432 -0.499819,1.28763 -0.727412,2.4518 -0.877666,4.48937 -0.920586,4.14181 0.789178,6.39078 2.916153,3.83583 4.662528,7.65385 6.274454,13.71755 1.077713,4.05412 1.363664,14.86473 0.523875,19.80554 -0.325117,1.91279 -0.740454,3.62861 -0.922972,3.81294 -0.182518,0.18432 -0.331851,0.59627 -0.331851,0.91544 0,1.03906 -3.308782,7.15068 -5.339169,9.86192 -2.53348,3.38303 -4.581787,5.47759 -8.18548,8.37029 -1.452858,1.16621 -5.773525,3.77326 -7.566648,4.56564 -1.108605,0.48989 -2.501947,1.10685 -3.096315,1.37102 -1.7896014,0.7954 -3.7506434,0.92844 -4.8238745,0.32725 z m 8.9052995,-12.49383 c 2.118883,-3.84788 4.378717,-8.86098 4.741745,-10.51884 0.138082,-0.6306 0.452286,-1.14653 0.69823,-1.14653 0.320885,0 0.512264,1.12082 0.677663,3.96875 0.249745,4.30024 0.342438,5.08051 0.638751,5.37682 0.216129,0.21613 2.06091,-2.43597 2.06091,-2.96281 0,-0.18433 0.198437,-0.55106 0.440972,-0.81496 1.076292,-1.17109 2.428229,-3.96674 3.4602,-7.1553 0.439576,-1.3582 0.971951,-2.85066 1.183056,-3.3166 0.598196,-1.32028 0.491038,-14.91971 -0.136482,-17.3209 -0.278885,-1.06716 -0.521834,-2.01966 -0.539886,-2.11667 -0.522592,-2.80852 -4.101931,-9.51001 -5.792772,-10.84563 -0.305451,-0.24129 -0.952241,-0.40004 -1.43731,-0.35278 -0.740344,0.0721 -0.865122,0.24498 -0.77717,1.07664 0.05763,0.5449 0.581425,2.21177 1.163999,3.70417 1.689143,4.32711 2.01029,10.88845 0.965937,19.73496 -0.211876,1.79476 -0.507889,3.2632 -0.657807,3.2632 -0.149918,0 -0.370751,-1.86532 -0.490739,-4.14514 -0.4754,-9.03281 -1.814497,-15.24878 -4.404233,-20.44407 -0.406381,-0.81525 -0.738875,-1.64868 -0.738875,-1.85209 0,-0.2285 -1.130327,-0.36981 -2.958038,-0.36981 -2.681566,0 -3.0056206,0.0742 -3.4671362,0.79375 -0.665327,1.03733 -2.2041671,6.17478 -2.7209715,9.08402 -0.9179551,5.16744 -1.1411602,5.99723 -1.6132021,5.99723 -1.2416879,0 -0.9789206,-12.21638 0.3205335,-14.90201 1.1711221,-2.4204 -0.1084596,-3.23611 -1.9413414,-1.23758 -1.3834186,1.50845 -3.13859041,4.74534 -4.35185283,8.0257 -0.53821927,1.4552 -1.11362117,2.90936 -1.27867077,3.23144 -0.6854929,1.33772 -1.4769868,8.61926 -1.2592977,11.58522 0.370494,5.0479 1.1898319,7.82563 3.64201674,12.34723 0.47351968,0.87312 1.04332766,2.02406 1.26623986,2.55763 0.6374081,1.52574 1.0766448,1.14812 0.8206687,-0.70555 -0.7291682,-5.28032 -0.5208445,-14.51275 0.3338515,-14.79552 0.2114685,-0.07 0.643711,1.07041 0.9920712,2.61736 0.7037333,3.12505 2.142537,7.8477 2.8974945,9.51058 2.4431763,5.38139 4.5607575,11.92425 4.8793025,15.07598 0.07994,0.79097 0.158772,1.51309 0.175175,1.60472 0.09074,0.50686 1.603331,-1.64041 3.206968,-4.55261 z m 184.613934,1.82609 c 1.89654,-2.58359 5.8839,-10.56462 5.8839,-11.77709 0,-0.33792 0.15875,-0.71251 0.35278,-0.83243 0.19403,-0.11991 0.35278,-0.5952 0.35278,-1.05619 0,-0.46098 0.17509,-1.28505 0.3891,-1.83126 l 0.38911,-0.9931 0.36359,0.88194 c 0.53016,1.28599 1.31119,6.55644 1.32002,8.90764 0.004,1.11566 0.15285,2.02847 0.33035,2.02847 0.87203,0 6.02727,-9.14625 6.02727,-10.69338 0,-0.30462 0.16713,-0.65716 0.3714,-0.7834 0.20427,-0.12625 0.30741,-0.41343 0.2292,-0.63819 -0.0782,-0.22475 0.0627,-0.99701 0.31307,-1.71612 0.60617,-1.74091 1.20363,-7.2729 1.20033,-11.11403 -0.003,-3.86217 -0.46811,-6.87406 -1.62174,-10.50904 -1.97727,-6.23023 -4.64837,-9.80287 -6.47315,-8.65797 -0.44104,0.27672 -0.40625,0.65836 0.24856,2.72598 2.16101,6.82362 2.53251,13.63412 1.13182,20.74865 -0.39502,2.00644 -1.04393,3.41717 -1.04393,2.2695 0,-1.6073 -1.13576,-13.64623 -1.40533,-14.89634 -0.84285,-3.90865 -1.12868,-5.06587 -1.41228,-5.7176 -0.16886,-0.38806 -0.5626,-1.51904 -0.87499,-2.5133 -0.56182,-1.78813 -0.58589,-1.80975 -2.21879,-1.99381 -2.6203,-0.29534 -3.96904,0.051 -4.35446,1.11823 -0.18262,0.50569 -0.48226,1.23693 -0.66586,1.62499 -0.57017,1.20511 -2.06685,7.99168 -2.32042,10.52175 -0.17877,1.78366 -0.34424,2.30507 -0.63835,2.01137 -0.70294,-0.70198 -0.73917,-10.30335 -0.0496,-13.14058 0.32579,-1.34042 0.51068,-2.64994 0.41087,-2.91004 -0.32374,-0.84366 -2.30337,-1.03919 -3.11918,-0.3081 -1.08816,0.97517 -3.89884,5.30545 -5.00187,7.70615 -0.53488,1.16417 -1.10292,2.36314 -1.2623,2.66439 -1.69757,3.20855 -2.80914,13.21804 -1.98936,17.91383 0.56413,3.23143 2.61948,8.34956 3.35304,8.34956 0.5476,0 0.58383,-0.22261 1.05235,-6.46753 0.17953,-2.39298 0.43137,-4.76903 0.55964,-5.28011 0.12827,-0.51109 0.31777,-1.49007 0.4211,-2.17552 0.10333,-0.68546 0.23717,-1.56378 0.29742,-1.95184 0.0603,-0.38805 0.12521,-0.94368 0.14435,-1.23472 0.0309,-0.47037 0.0728,-0.47037 0.37677,0 0.18809,0.29104 0.34561,1.40229 0.35005,2.46944 0.004,1.06716 0.1561,2.89278 0.33703,4.05695 0.18094,1.16417 0.41099,2.67418 0.51124,3.35559 0.18107,1.23086 1.93926,6.60201 4.04034,12.34302 0.60358,1.64924 1.10056,3.4258 1.10438,3.94793 0.004,0.52213 0.16571,1.04743 0.35974,1.16735 0.19403,0.11991 0.35278,0.97595 0.35278,1.9023 0,1.43634 0.186,2.15464 0.55792,2.15464 0.0482,0 0.64183,-0.75509 1.31929,-1.67798 z m -180.129666,-55.537 c 0.895668,-0.45194 2.569142,-2.82557 2.569142,-3.64403 0,-0.42464 -0.147711,-0.47009 -0.651509,-0.20047 -0.35833,0.19177 -1.808527,0.61184 -3.222659,0.93348 -4.854321,1.10409 -11.3609214,0.21 -13.8550758,-1.90387 -0.3407382,-0.28878 -0.7169909,-0.42759 -0.8361173,-0.30847 -0.4729228,0.47293 0.3193886,2.13973 1.5584255,3.2785 2.7843824,2.55905 6.2929886,3.43749 10.8005746,2.70409 1.570235,-0.25549 3.206983,-0.64214 3.637219,-0.85923 z m 187.880746,0.37192 c 1.57424,-0.31615 2.22501,-0.66641 3.14565,-1.69305 1.09866,-1.22516 2.04272,-2.62033 2.04272,-3.01882 0,-0.30351 -1.60013,-0.20183 -1.95791,0.12441 -0.18433,0.16807 -1.38865,0.58362 -2.67626,0.92344 -3.17698,0.83845 -8.78506,0.61725 -11.75776,-0.46376 -2.61,-0.94911 -2.65806,-0.9482 -2.65806,0.0507 0,1.37789 3.06978,3.61084 5.82083,4.23405 1.42243,0.32223 6.11044,0.23073 8.04079,-0.15694 z M 15.630271,382.82852 c 2.565965,-0.51149 2.573255,-0.51373 5.251622,-1.61603 2.304997,-0.94863 2.302329,-0.94496 2.1722,-2.98744 -0.06647,-1.0433 -0.26314,-2.04596 -0.437043,-2.22813 -0.195556,-0.20485 -1.158888,-0.0385 -2.524978,0.43614 -5.906707,2.05203 -10.028964,2.33894 -14.107611,0.98191 -3.6810001,-1.22473 -3.9550946,-1.242 -4.0120679,-0.25271 -0.1073654,1.86429 3.3409526,4.30481 7.7970012,5.51827 2.1973907,0.59838 3.4435177,0.62985 5.8608767,0.14799 z m 192.123299,-0.87371 c 2.24513,-0.72744 3.22555,-1.19376 4.59844,-2.18715 1.00582,-0.72779 1.14653,-1.02786 1.14653,-2.44503 v -1.61542 l -1.49931,0.22349 c -2.97531,0.44351 -6.20839,1.10837 -6.4203,1.32028 -0.2648,0.2648 -7.24189,0.0846 -7.52073,-0.19421 -0.10971,-0.10971 -0.48988,-0.19947 -0.84483,-0.19947 -0.35494,0 -1.59539,-0.32878 -2.75655,-0.73063 -1.16116,-0.40184 -2.27339,-0.63038 -2.47161,-0.50787 -0.57866,0.35763 0.0243,3.10586 0.84332,3.84369 0.64951,0.58513 1.61687,1.07532 5.14779,2.60854 1.37727,0.59804 7.80873,0.52159 9.77725,-0.11622 z M 15.06699,368.53811 c 1.89178,-3.72913 3.111677,-5.7859 3.433653,-5.78921 0.368751,-0.004 0.386647,-0.0797 -0.831139,3.52397 -1.13836,3.3686 -1.069127,4.30986 0.264505,3.59612 0.860268,-0.4604 5.228799,-5.5697 6.940278,-8.11714 1.581636,-2.35417 3.663898,-6.34479 3.926652,-7.52535 0.833541,-3.74514 0.922735,-4.67642 0.721354,-7.5317 -0.123161,-1.74625 -0.560909,-4.16897 -0.972772,-5.38382 l -0.748841,-2.20883 -1.60731,1.82161 c -2.14983,2.43646 -2.032557,2.16675 -2.998496,6.89608 -0.468056,2.29164 -0.958825,4.48412 -1.090599,4.87218 -0.30786,0.90661 -1.233646,2.99855 -1.327128,2.99882 -0.153288,4.5e-4 0.0073,-2.38044 0.180756,-2.68071 0.277698,-0.48058 0.321331,-7.90283 0.04646,-7.90283 -0.357597,0 -3.544729,3.4543 -5.058612,5.48267 -3.2489,4.35301 -4.741844,9.39866 -4.527045,15.29989 0.105207,2.89035 0.284335,3.95793 0.791744,4.71866 0.360677,0.54074 0.832114,0.92461 1.047639,0.85303 0.215524,-0.0716 1.029531,-1.38712 1.808903,-2.92344 z m 188.55377,2.34279 c 0,-0.37661 0.15875,-0.78285 0.35278,-0.90277 0.43433,-0.26843 0.46948,-4.89362 0.0436,-5.73742 -0.17004,-0.33692 -0.54939,-1.89413 -0.843,-3.46046 -0.2936,-1.56634 -0.94823,-3.75386 -1.45471,-4.86115 -0.50649,-1.1073 -0.92089,-2.09464 -0.92089,-2.19409 0,-0.0994 -0.16039,-0.37256 -0.35643,-0.60691 -0.19603,-0.23434 -1.15683,-1.67401 -2.13511,-3.19926 -1.75819,-2.74126 -5.56391,-6.76735 -8.96045,-9.47933 l -1.75061,-1.39778 -0.62186,0.76796 c -0.99879,1.23346 -1.34092,3.09385 -1.34302,7.30302 -0.003,6.26726 1.25165,10.77645 4.00675,14.39875 2.37277,3.11964 4.74858,5.68943 6.90784,7.47187 2.37754,1.96262 3.08291,2.29499 2.67276,1.25938 -0.13447,-0.33954 -0.30011,-0.89003 -0.36807,-1.22331 -0.15722,-0.77102 -4.33065,-13.57705 -4.78977,-14.69727 -0.45138,-1.10135 -0.0514,-1.4682 0.62279,-0.57122 0.65699,0.87408 4.17224,8.1452 4.51935,9.34805 0.13998,0.48507 0.71505,1.87456 1.27794,3.08775 0.5629,1.21319 1.02344,2.35874 1.02344,2.54567 0,0.18693 0.26753,0.90088 0.59451,1.58656 0.64214,1.34658 1.52216,1.67147 1.52216,0.56196 z m -9.99537,-18.24768 c -0.12935,-0.12935 -0.23518,-0.39922 -0.23518,-0.59972 0,-0.22105 0.16431,-0.20022 0.41745,0.0529 0.2296,0.2296 0.33543,0.49947 0.23519,0.59972 -0.10025,0.10025 -0.28811,0.0764 -0.41746,-0.0529 z M 6.7637956,369.18438 c -0.01452,-2.74885 -0.7148059,-6.04514 -1.6750902,-7.88475 -0.5468838,-1.04766 -1.5234182,-3.25421 -2.1700766,-4.90344 -0.6466584,-1.64924 -1.5305399,-3.79236 -1.96418108,-4.7625 -0.43364123,-0.97014 -1.14140461,-2.95452 -1.57280753,-4.40973 -0.43140289,-1.4552 -0.90951749,-2.88916 -1.06247689,-3.18657 -0.1529595,-0.29741 -0.3969114,-1.09116 -0.5421154,-1.76389 -0.4019084,-1.86204 -1.9006852,-4.22176 -2.6814513,-4.22176 -0.3696186,0 -0.6720339,-0.15875 -0.6720339,-0.35278 0,-0.19402 -0.2120977,-0.35277 -0.4713284,-0.35277 -0.6385984,0 -1.68821,3.80081 -1.9070629,6.90577 -0.2098583,2.97736 0.2494884,5.34658 1.6954659,8.74489 1.4794847,3.47705 1.567726,3.656 2.9809495,6.04517 0.6886193,1.16417 1.3873251,2.43417 1.5526795,2.82222 0.366815,0.86085 7.7293281,8.64306 8.1769325,8.64306 0.1757716,0 0.3164402,-0.59531 0.3125968,-1.32292 z M 210.73241,367.57357 c 6.00948,-5.98147 9.03612,-10.50231 10.43534,-15.58711 1.28879,-4.68352 1.40246,-6.74403 0.58953,-10.6864 -0.75748,-3.67337 -1.52855,-4.52663 -2.06179,-2.28151 -0.94991,3.99948 -3.87761,11.38041 -4.51411,11.38041 -0.1756,0 -0.2408,-0.27781 -0.14489,-0.61736 0.0959,-0.33954 0.28332,-1.33173 0.41644,-2.20486 0.13313,-0.87312 0.35909,-1.74625 0.50213,-1.94028 0.38051,-0.51612 1.1653,-4.55226 1.01956,-5.24355 -0.10876,-0.51583 -0.23741,-0.48865 -1.00664,0.21267 -1.53921,1.40334 -4.66736,3.79616 -4.96274,3.79616 -0.30723,0 -3.91302,5.40235 -4.31788,6.46923 -0.2729,0.71915 0.51591,3.78587 1.60266,6.23077 0.88228,1.9849 0.84994,1.95423 1.49583,1.41819 0.45002,-0.37349 0.53769,-0.33567 0.53769,0.23195 0,0.37301 -0.15735,0.83555 -0.34967,1.02787 -0.19232,0.19232 -0.51659,1.13688 -0.72061,2.09903 -0.20401,0.96214 -0.46258,2.14623 -0.57461,2.6313 -0.41622,1.80229 -0.53208,4.93888 -0.18243,4.93888 0.1936,0 1.19989,-0.84392 2.23619,-1.87539 z M 7.4267057,356.21239 c 1.1596845,-3.53264 1.0307883,-4.74024 -0.7701409,-7.21524 -2.4616451,-3.38302 -5.7683659,-6.71207 -6.6670535,-6.71207 -0.15085537,0 -0.27428249,0.22609 -0.27428249,0.50243 0,0.91011 2.33503099,7.37829 3.76658839,10.43368 0.7727256,1.64923 1.6294858,3.51455 1.9039115,4.14514 0.2744257,0.63059 0.6759931,1.14652 0.892372,1.14652 0.216379,0 0.7332512,-1.0352 1.148605,-2.30046 z M 200.56714,341.49133 c -0.30038,-1.01865 -0.66357,-2.01084 -0.80709,-2.20487 -0.14352,-0.19402 -0.53723,-1.06715 -0.87491,-1.94027 -0.33768,-0.87313 -0.82605,-2.06375 -1.08526,-2.64584 -1.59694,-3.58612 -1.89624,-4.45428 -1.49124,-4.32547 0.38202,0.1215 1.15484,1.09586 4.63753,5.84694 0.47118,0.64278 1.38478,2.19 2.03022,3.43828 0.64545,1.24827 1.37198,2.27018 1.61451,2.27089 0.64332,0.002 0.57552,-8.30048 -0.0936,-11.46397 -0.75578,-3.57308 -3.17624,-9.04594 -5.61162,-12.6883 -2.51469,-3.761 -11.36862,-12.89456 -11.94298,-12.3202 -0.0864,0.0864 0.29702,1.45483 0.85212,3.04088 0.55511,1.58604 1.00929,3.10548 1.00929,3.37652 0,0.27104 0.22824,0.99305 0.5072,1.60445 0.99093,2.17183 2.6644,6.76423 2.65474,7.28526 -0.0115,0.62095 -2.45639,-4.15361 -2.45639,-4.79703 0,-0.23971 -0.12547,-0.48876 -0.27883,-0.55343 -0.29277,-0.12347 -1.38433,-2.79294 -2.70959,-6.6264 -0.43265,-1.25151 -0.94508,-2.32829 -1.13873,-2.39284 -0.19365,-0.0645 -0.68461,0.89558 -1.09103,2.13361 -0.98798,3.00961 -1.43125,10.42298 -0.76753,12.83646 0.86349,3.1399 3.80639,7.89175 7.30101,11.78883 2.99075,3.33517 9.72434,10.18858 10.01046,10.18858 0.15283,0 0.0321,-0.83344 -0.26827,-1.85208 z M 11.893675,340.78577 c 0.55093,-1.01865 2.419337,-4.2084 4.152015,-7.08834 2.966787,-4.93119 8.011203,-14.81923 8.011203,-15.70352 0,-0.2218 0.161774,-0.40328 0.359499,-0.40328 0.41698,0 0.179567,1.3016 -0.611299,3.35139 -0.299445,0.77611 -0.670923,1.88736 -0.825505,2.46945 -0.713131,2.6853 -3.375627,9.52015 -5.130595,13.17067 -1.064721,2.21472 -1.866622,4.09601 -1.782003,4.18063 0.488597,0.48859 11.870458,-12.74313 11.870458,-13.79973 0,-0.083 0.47625,-1.1799 1.058333,-2.43749 0.582083,-1.2576 1.058333,-2.60868 1.058333,-3.00241 0,-0.39373 0.139569,-0.80213 0.310154,-0.90755 0.384935,-0.23791 0.390418,-5.991 0.0069,-7.23111 -1.073531,-3.47119 -2.20244,-6.37718 -2.477385,-6.37718 -0.178678,0 -1.019588,0.64037 -1.868689,1.42304 -0.849101,0.78268 -1.678992,1.38091 -1.844201,1.32942 -0.474173,-0.1478 -8.388904,8.27495 -9.908878,10.5449 -4.223471,6.30738 -6.0302023,12.96496 -5.0631563,18.6571 0.7540029,4.43815 1.1320643,4.69499 2.6848243,1.82401 z m -7.9451133,-5.56113 c 0,-0.41035 -1.4142033,-3.35967 -3.21164375,-6.6979 -0.67907298,-1.26118 -1.6095858,-3.24555 -2.06780625,-4.40972 -0.4582205,-1.16417 -0.944792,-2.27542 -1.0812701,-2.46944 -0.5382447,-0.76521 -1.7977844,-5.1406 -1.6486634,-5.72713 0.1169413,-0.45996 0.2836235,-0.29993 0.6372765,0.61185 0.6718686,1.73219 5.9374417,12.09556 6.3631793,12.52361 0.2335694,0.23484 0.515724,0.12947 0.843979,-0.31518 0.6381362,-0.8644 2.9871706,-7.90818 2.9871706,-8.95728 0,-0.90766 -2.5529161,-4.91605 -4.3087079,-6.76519 -0.6376409,-0.67154 -2.03247197,-2.25904 -3.09962462,-3.52778 -1.06715268,-1.26874 -3.17711878,-3.47175 -4.68881368,-4.89559 -3.0443529,-2.86741 -3.2213292,-2.88369 -4.4821624,-0.41225 -2.304097,4.5164 -2.304937,11.83209 -0.00192,16.75793 0.5824569,1.2458 1.0590126,2.43045 1.0590126,2.63257 0,0.20212 0.1376543,0.36749 0.3058984,0.36749 0.1682442,0 0.7257968,0.63451 1.2390058,1.41002 1.4569572,2.20161 6.57058835,7.75509 8.3304921,9.04703 1.5716848,1.15377 2.8246023,1.52059 2.8246023,0.82696 z M 214.37043,332.44367 c 1.22643,-1.18417 2.4051,-2.15304 2.61927,-2.15304 0.21417,0 0.38939,-0.16215 0.38939,-0.36034 0,-0.19819 0.39688,-0.54117 0.88195,-0.76218 0.48507,-0.22101 0.88194,-0.52049 0.88194,-0.66551 0,-0.14502 0.99219,-1.75229 2.20486,-3.5717 2.60464,-3.90784 4.07969,-6.74512 4.37746,-8.42011 0.39371,-2.2147 0.5389,-5.65005 0.26449,-6.25815 -0.14879,-0.32973 -0.3047,-0.83763 -0.34648,-1.12867 -0.22226,-1.54856 -0.90741,-3.90736 -1.57015,-5.40559 -0.85819,-1.94009 -0.60814,-2.01161 -4.05365,1.15947 -3.9665,3.65058 -6.23473,5.48095 -6.73122,5.43184 -0.27242,-0.0269 -0.49531,0.10004 -0.49531,0.28219 0,0.18215 -1.07156,1.95044 -2.38125,3.92955 -2.37032,3.58186 -2.38125,3.6097 -2.38125,6.06781 0,1.3582 0.14341,2.78695 0.31868,3.175 0.17528,0.38806 0.3431,0.86431 0.37294,1.05834 0.0298,0.19402 0.15954,0.5909 0.28822,0.88194 0.12867,0.29104 0.39711,0.97528 0.59654,1.52053 0.19942,0.54526 0.51634,0.89634 0.70426,0.7802 0.80788,-0.4993 2.26876,-3.97531 6.60094,-15.70628 0.68071,-1.84327 1.40102,-3.78796 1.6007,-4.32153 0.19967,-0.53358 0.51952,-0.97014 0.71076,-0.97014 0.19125,0 0.26067,0.22685 0.15428,0.50411 -0.1691,0.44066 -0.30591,1.07777 -0.72504,3.37644 -0.27683,1.51823 -2.16462,7.80599 -2.70084,8.99584 -0.17488,0.38805 -0.87795,2.37243 -1.56238,4.40972 -0.68443,2.03729 -1.39276,4.02167 -1.57408,4.40972 -1.01253,2.16704 -1.78637,4.21896 -1.78637,4.73679 0,0.32459 -0.17666,0.76682 -0.39259,0.98275 -0.21593,0.21593 -0.28488,0.56688 -0.15323,0.7799 0.31231,0.50532 1.04514,-0.0148 3.88716,-2.7589 z M 9.9192838,310.27049 c 0.5773062,-2.01408 2.0851042,-5.1667 3.4562822,-7.22665 0.550831,-0.82753 1.202249,-1.90147 1.447596,-2.38654 0.245347,-0.48507 0.752901,-1.27882 1.127897,-1.76389 0.670792,-0.86769 0.681939,-0.86941 0.689657,-0.10641 0.0043,0.42655 -0.390239,2.09343 -0.876786,3.70417 -0.486547,1.61075 -1.020712,3.40488 -1.187035,3.98696 -0.166322,0.58209 -0.508283,1.73381 -0.759913,2.55939 -0.25163,0.82559 -0.352464,1.60611 -0.224076,1.73449 0.128388,0.12839 0.279518,0.16729 0.335844,0.0864 1.564855,-2.24602 3.71395,-4.85609 6.810011,-8.27073 9.502111,-10.47987 10.071732,-11.57719 9.993556,-19.25157 -0.05146,-5.05221 -0.280529,-5.53006 -1.82901,-3.81547 -1.372053,1.51923 -1.935345,2.22389 -3.077999,3.8505 -0.477051,0.67909 -0.993434,1.39347 -1.147517,1.5875 -0.154083,0.19403 -1.101753,1.46403 -2.105933,2.82222 -1.00418,1.35819 -1.953973,2.52236 -2.110651,2.58704 -0.156678,0.0647 -0.284869,0.34249 -0.284869,0.61736 0,0.27487 -0.15875,0.49977 -0.352778,0.49977 -0.779133,0 -0.257019,-1.38183 1.5875,-4.20148 1.067152,-1.63131 1.945986,-3.0599 1.952964,-3.17464 0.02983,-0.49055 1.635061,-2.08467 2.302928,-2.28698 1.133539,-0.34338 3.512504,-4.27902 3.468465,-5.73805 -0.02021,-0.6697 -0.185326,-1.36621 -0.366916,-1.5478 -0.606852,-0.60685 -11.833013,10.03781 -14.898445,14.12672 -0.509114,0.6791 -1.105674,1.42608 -1.325688,1.65995 -0.571082,0.60706 -2.782735,5.26466 -3.4474032,7.26002 -0.3092609,0.92841 -0.5622925,2.14936 -0.5622925,2.71321 0,0.56385 -0.1811677,1.13715 -0.4025948,1.274 -0.2822446,0.17444 -0.3332762,1.20888 -0.1707107,3.4604 0.5207326,7.21213 1.0141431,8.53267 1.957917,5.24006 z M 203.13627,309.70958 c -0.12603,-1.23013 -0.70358,-3.53658 -1.28344,-5.12543 -0.57986,-1.58886 -1.05429,-3.0677 -1.05429,-3.28632 0,-0.5472 1.71579,1.486 1.98995,2.35808 0.122,0.38806 0.32386,0.78493 0.44858,0.88194 0.12473,0.097 0.52432,0.85108 0.88798,1.6757 0.36366,0.82462 0.78838,1.4993 0.94382,1.4993 0.8413,0 1.5196,-9.17541 0.71506,-9.67265 -0.16846,-0.10411 -0.41593,-1.01582 -0.54993,-2.02603 -0.13401,-1.01021 -0.52674,-2.48221 -0.87274,-3.27111 -0.346,-0.78891 -0.84615,-1.99 -1.11146,-2.66909 -1.22022,-3.12338 -3.16915,-5.67718 -8.08554,-10.59498 -2.81899,-2.81981 -6.04559,-5.7373 -7.17022,-6.48332 -1.93099,-1.28092 -2.07093,-1.32063 -2.51481,-0.71359 -0.41224,0.56377 -1.22085,2.80775 -1.87317,5.19825 -0.1164,0.42657 -0.25553,2.39483 -0.30917,4.37392 -0.10939,4.03614 0.51566,6.90223 2.13963,9.81104 1.68915,3.02556 1.94613,3.32521 11.17918,13.03548 1.48298,1.55963 3.22923,3.47061 3.88056,4.24661 0.65132,0.776 1.38266,1.62078 1.6252,1.87728 0.24253,0.2565 0.44097,0.61378 0.44097,0.79395 0,0.18017 0.18067,0.32758 0.40149,0.32758 0.28202,0 0.33331,-0.66557 0.17235,-2.23661 z m -8.23574,-19.25871 c -0.34561,-0.62137 -1.58088,-2.59859 -2.74505,-4.39383 -2.43273,-3.75145 -3.93036,-6.63392 -4.23648,-8.15391 -0.20498,-1.0178 -0.19166,-1.03131 0.34798,-0.35278 1.18946,1.49563 6.32419,10.31522 6.95719,11.9499 0.77812,2.00947 0.5834,2.58141 -0.32364,0.95062 z m 18.52733,11.47194 c 1.27401,-0.66652 7.53547,-7.11364 10.23864,-10.54221 1.19263,-1.51267 2.76616,-3.9733 3.49675,-5.46806 l 1.32834,-2.71774 -0.008,-5.46806 c -0.008,-5.55834 -0.48677,-8.28212 -1.7565,-10.00203 -0.61834,-0.83759 -0.77288,-0.73166 -5.92089,4.05837 -5.64693,5.25427 -6.83909,6.52713 -8.73187,9.32303 -2.96559,4.38057 -4.23698,7.77407 -3.1616,8.43869 0.19403,0.11991 0.35278,0.66122 0.35278,1.2029 0,1.8291 1.52228,5.67627 2.24603,5.67627 0.40722,0 1.68462,-2.45434 3.76398,-7.23195 0.42224,-0.97014 1.2863,-2.87514 1.92014,-4.23333 0.63383,-1.3582 1.27089,-2.86632 1.41567,-3.35139 0.14478,-0.48507 0.56556,-1.55612 0.93506,-2.38012 0.36951,-0.82399 0.82654,-1.9051 1.01564,-2.40247 0.1891,-0.49737 0.50546,-0.80441 0.70301,-0.68232 0.19756,0.1221 0.25753,0.38649 0.13327,0.58755 -0.12426,0.20105 -0.303,0.93752 -0.39721,1.63659 -0.32976,2.44693 -4.78174,14.47666 -6.86566,18.55174 -0.4067,0.79529 -1.10822,2.16035 -1.55894,3.03347 -1.28015,2.4799 -1.06643,2.97455 0.85166,1.97107 z M 1.9250691,300.44517 C 2.1165727,299.44339 1.278271,296.70151 -0.16724273,293.60174 -3.1305935,287.24712 -6.1083933,279.499 -5.8663546,278.77288 c 0.075619,-0.22685 1.8379419,2.97715 3.9162737,7.12001 2.07833173,4.14285 4.1650382,8.00871 4.6371256,8.5908 l 0.8583406,1.05833 0.7596709,-1.76389 c 0.417819,-0.97014 1.0029072,-2.30232 1.3001959,-2.96041 1.0838266,-2.39918 0.9991997,-3.60153 -0.4912148,-6.97898 -1.8731704,-4.24482 -3.607162,-6.52876 -9.0607324,-11.93438 -4.7142073,-4.67277 -7.1631589,-6.55474 -7.4519679,-5.72671 -0.683378,1.95927 -1.586107,5.95655 -1.586107,7.02327 0,0.72005 -0.15875,1.4073 -0.352777,1.52721 -0.503847,0.3114 -0.444089,4.88286 0.07056,5.3975 0.232833,0.23284 0.320765,0.42334 0.195404,0.42334 -0.328312,0 0.712975,3.3737 1.742148,5.64444 1.00483,2.21703 3.8845886,6.5625 5.727792,8.64306 2.9522157,3.33238 6.7002449,6.93795 7.0118689,6.74535 0.1855863,-0.1147 0.417268,-0.62619 0.5148482,-1.13665 z M 113.63345,292.70901 c 4.31667,-0.99282 11.16718,-3.95442 16.43315,-7.10435 2.51899,-1.50678 7.12402,-4.44867 7.76111,-4.95814 0.19403,-0.15516 1.94028,-1.43107 3.88056,-2.83536 7.56988,-5.47876 13.12443,-10.15776 16.04574,-13.51646 1.00593,-1.15653 2.28196,-2.33705 2.83564,-2.62336 1.60221,-0.82854 4.73322,-5.0468 8.59196,-11.57553 2.55073,-4.31569 6.56971,-13.93155 6.56971,-15.71878 0,-0.33352 0.14113,-0.75721 0.31362,-0.94154 0.37719,-0.40306 3.90427,-14.61792 4.10969,-16.56291 0.0205,-0.19403 0.21446,-1.22591 0.43104,-2.29306 0.21658,-1.06715 0.57739,-3.36903 0.8018,-5.11528 0.2244,-1.74625 0.542,-3.4925 0.70576,-3.88055 0.59438,-1.40847 1.83414,-15.60009 1.78284,-20.40832 l -0.0333,-3.12221 -1.83411,-1.64029 c -1.00876,-0.90216 -2.07536,-1.9181 -2.37023,-2.25765 -0.29487,-0.33955 -0.64328,-0.61736 -0.77424,-0.61736 -0.36867,0 -5.58712,-5.46322 -8.59281,-8.99584 -1.48578,-1.74625 -3.85815,-4.92125 -5.27193,-7.05555 -2.6613,-4.01759 -7.97995,-14.50714 -9.39086,-18.52084 -0.44334,-1.26118 -0.92477,-2.4518 -1.06985,-2.64583 -0.14507,-0.19403 -0.51538,-1.32545 -0.8229,-2.51427 -0.30752,-1.18882 -0.79698,-2.61757 -1.0877,-3.175 -0.29071,-0.55743 -0.52955,-1.25658 -0.53075,-1.55367 -0.001,-0.29709 -0.60829,-2.3681 -1.34911,-4.60224 -0.74081,-2.23415 -1.28321,-4.25326 -1.20532,-4.48692 0.0779,-0.23367 -0.013,-0.42484 -0.20197,-0.42484 -0.18897,0 -0.41669,-0.51594 -0.50606,-1.14653 -0.16067,-1.13373 -0.89544,-4.17951 -1.2553,-5.20347 -0.10229,-0.29105 -0.20575,-0.60855 -0.22992,-0.70556 -0.58069,-2.33046 -0.26823,-2.16142 -4.16213,-2.25168 -0.7276,-0.0169 -1.32291,-0.13147 -1.32291,-0.25468 0,-0.29974 -8.1476,-0.33748 -8.62296,-0.0399 -0.57115,0.3575 -1.23282,0.39785 -1.425,0.0869 -0.31942,-0.51682 1.22758,-2.07168 2.46875,-2.48131 1.19516,-0.39444 1.5336,-0.82675 0.93625,-1.19593 -0.16113,-0.0996 -1.11363,0.0354 -2.11667,0.30003 -1.00304,0.26459 -1.8237,0.40671 -1.8237,0.3158 0,-0.0909 -0.19844,-0.0393 -0.44098,0.11473 -0.24253,0.154 -0.52034,0.29207 -0.61736,0.30682 -0.097,0.0148 -1.50807,0.45811 -3.13569,0.98523 -4.08191,1.32198 -5.33097,1.49746 -5.33097,0.74896 0,-0.59518 3.10265,-4.02775 3.6497,-4.03779 0.16408,-0.003 0.7197,-0.29875 1.23473,-0.6572 3.18575,-2.21723 5.888,-3.31187 11.2765,-4.56794 1.41844,-0.33064 2.60907,-0.75294 2.64583,-0.93843 0.0368,-0.1855 -0.6225,-0.53685 -1.46503,-0.78078 -1.25218,-0.36254 -1.86998,-0.35546 -3.38362,0.0388 -2.12818,0.55433 -4.96385,1.71474 -7.25534,2.96904 -0.87312,0.47793 -1.905,1.04199 -2.29305,1.25347 -0.38806,0.21149 -0.78493,0.47283 -0.88195,0.58077 -0.097,0.10793 -0.9643,0.79103 -1.92731,1.51801 -0.96301,0.72697 -2.71998,2.23829 -3.90439,3.3585 -2.13932,2.02335 -4.7421,3.9615 -5.86968,4.37085 -1.6793,0.60964 1.42777,-6.46805 4.29245,-9.7779 2.61823,-3.02509 8.51472,-6.884984 11.28949,-7.390199 0.48507,-0.08832 0.88194,-0.184522 0.88194,-0.213786 0,-0.07975 0.82213,-0.27385 3.2632,-0.770445 1.21267,-0.246698 2.20486,-0.624586 2.20486,-0.839751 0,-0.215164 -0.86313,-0.813843 -1.91807,-1.330396 -2.91365,-1.426671 -5.74781,-1.329866 -8.88116,0.303351 -1.31111,0.683395 -2.87046,1.607894 -3.46522,2.054442 -0.59476,0.446548 -1.3592,0.914299 -1.69874,1.039446 -0.33955,0.125148 -0.61737,0.446045 -0.61737,0.713108 0,0.26706 -0.32211,0.77707 -0.71581,1.13336 -0.86885,0.7863 -3.38821,4.57101 -4.80788,7.22266 -0.57135,1.06715 -1.88611,3.39018 -2.92171,5.16228 -1.68507,2.88348 -2.02964,3.26596 -3.27966,3.64047 -1.27122,0.38087 -1.57493,0.33132 -3.37896,-0.55131 -1.20046,-0.58733 -2.68247,-1.74236 -3.75783,-2.92874 -6.971472,-7.69115 -11.720446,-10.86891 -17.256125,-11.54686 -1.79758,-0.22015 -3.677618,0.10343 -3.179571,0.54724 0.173585,0.15468 1.10936,0.48445 2.079499,0.73283 1.690373,0.43276 4.745883,1.71819 5.115277,2.15195 0.09701,0.11392 0.731037,0.39712 1.408941,0.62933 2.357114,0.80741 6.356222,4.14002 8.623485,7.18629 1.900778,2.55387 0.175988,2.90478 -3.171892,0.64532 -0.882331,-0.59548 -1.75503,-1.08269 -1.939331,-1.08269 -0.184301,0 -0.335092,-0.14023 -0.335092,-0.31163 0,-0.1714 -0.277813,-0.40928 -0.617361,-0.52864 -0.339549,-0.11935 -1.569861,-0.77503 -2.734028,-1.45708 -6.70094,-3.92584 -12.699998,-6.17789 -12.699998,-4.76758 0,0.345 0.802042,0.72987 2.385206,1.14458 3.299025,0.86416 7.616816,3.11122 9.564871,4.97772 1.484031,1.42191 2.059586,2.75943 1.367282,3.1774 -0.390961,0.23604 -6.483259,-0.80128 -7.419677,-1.26333 -1.184634,-0.58452 -11.096916,-0.57522 -11.803468,0.0111 -0.300485,0.24934 -0.682108,0.40932 -0.848052,0.35552 -0.518137,-0.16801 -1.760112,0.9079 -2.324109,2.01335 -1.546293,3.03078 -4.916706,13.08372 -5.381491,16.05139 -0.04558,0.29104 -0.172109,0.76729 -0.281172,1.05833 -0.232117,0.61943 -1.288261,4.29164 -2.384318,8.29028 -1.159145,4.2288 -3.145427,10.39862 -3.861435,11.99445 -0.348221,0.77611 -1.220511,2.83986 -1.938421,4.58611 -1.568239,3.81459 -4.514183,9.67029 -5.888789,11.70523 -0.547881,0.81107 -0.996146,1.6445 -0.996146,1.85208 0,0.20757 -0.144589,0.37741 -0.321308,0.37741 -0.176719,0 -0.649493,0.67469 -1.050608,1.4993 -0.995641,2.04686 -4.783219,6.66434 -9.566594,11.66275 l -3.986981,4.16621 0.242027,5.71157 c 0.133115,3.14135 0.312321,6.10843 0.398236,6.5935 0.08591,0.48507 0.32755,2.15195 0.536967,3.70417 0.209418,1.55222 0.634092,4.56847 0.943721,6.70278 0.309628,2.1343 0.596525,4.11868 0.637547,4.40972 0.04102,0.29104 0.162404,0.76729 0.269736,1.05833 0.107332,0.29104 0.451097,2.03729 0.763921,3.88056 1.893974,11.15991 7.456335,25.68413 12.913813,33.72004 3.098961,4.56308 7.973816,9.61226 14.62128,15.14413 1.162842,0.96769 2.287573,1.91819 2.499401,2.11222 0.211828,0.19402 0.768536,0.63437 1.23713,0.97854 0.468593,0.34417 2.360112,1.74909 4.203376,3.12204 5.732909,4.27016 13.689452,9.47267 16.158855,10.56573 0.61999,0.27444 1.127254,0.61897 1.127254,0.76564 0,0.14666 0.151622,0.26666 0.336938,0.26666 0.185316,0 1.336253,0.45831 2.557638,1.01847 3.872652,1.77611 4.786954,2.15653 5.183028,2.15653 0.212439,0 1.299697,0.30843 2.416129,0.68541 1.116432,0.37697 2.655619,0.77782 3.420419,0.89077 0.76479,0.11295 1.47917,0.29952 1.5875,0.41461 0.37003,0.39312 8.30546,-0.16375 10.92769,-0.76686 z M 10.804681,277.10806 c 0.375381,-0.9209 1.263015,-2.62687 1.972522,-3.79104 1.538027,-2.52361 4.930419,-7.11184 4.927948,-6.66507 -0.002,0.36192 -1.543199,4.67274 -3.126522,8.74507 -1.060098,2.72658 -1.140156,4.17539 -0.156055,2.82414 0.700944,-0.96246 4.776983,-5.48722 7.911405,-8.78235 4.667144,-4.90644 5.958686,-6.66525 7.773362,-10.58568 1.100101,-2.37666 1.148506,-2.67182 1.28831,-7.85575 0.103661,-3.84376 0.0247,-5.53158 -0.275731,-5.89358 -0.231545,-0.27899 -0.337658,-0.6421 -0.235805,-0.8069 0.101852,-0.1648 -0.08812,-1.38261 -0.422167,-2.70624 l -0.607354,-2.4066 -0.883444,1.36787 c -0.485894,0.75233 -1.190683,2.08224 -1.566197,2.95537 -0.375514,0.87312 -0.76651,1.66687 -0.868879,1.76389 -0.102369,0.097 -0.390327,0.54065 -0.639905,0.98586 -1.017829,1.81564 -2.693064,4.90013 -3.200753,5.8933 -0.602138,1.17795 -0.701446,1.31724 -2.012152,2.82223 -0.643886,0.73932 -0.85456,0.85146 -0.698933,0.37202 0.122527,-0.37747 0.476925,-1.48872 0.787551,-2.46944 0.310625,-0.98073 0.700577,-1.93395 0.866559,-2.11828 0.165982,-0.18432 0.301785,-0.67541 0.301785,-1.0913 0,-0.41589 0.313293,-1.66676 0.696206,-2.77972 0.382912,-1.11295 0.681613,-2.12999 0.663779,-2.26008 -0.01784,-0.1301 -0.0032,-0.31591 0.03244,-0.41293 0.441249,-1.1999 1.653429,-8.00654 1.461871,-8.2087 -0.222379,-0.23469 -6.660639,7.0759 -8.14596,9.24967 -0.291041,0.42594 -1.211525,1.67565 -2.045518,2.77715 -2.207241,2.91521 -5.290478,9.38119 -6.274644,13.15881 -1.1045256,4.23961 -1.1685836,9.54206 -0.1627856,13.47469 0.7112469,2.78095 1.2659457,4.12158 1.7043884,4.11928 0.1386942,-7.2e-4 0.5593002,-0.75479 0.9346802,-1.67569 z M 202.5286,276.05105 c -0.47697,-3.07262 -1.47653,-6.04132 -3.94946,-11.72986 -0.88565,-2.03729 -1.72171,-4.18042 -1.85791,-4.7625 -0.24529,-1.04833 -0.24136,-1.05166 0.41553,-0.35278 0.66597,0.70854 4.36733,6.66435 4.36733,7.02742 0,0.10666 0.45409,0.95037 1.00908,1.87492 0.8206,1.36702 2.06462,4.58365 2.73076,7.06085 0.21892,0.81414 0.75606,0.45107 0.97857,-0.66145 0.36907,-1.84536 0.24605,-10.06833 -0.17739,-11.85709 -0.88307,-3.73045 -1.82871,-6.67623 -2.85126,-8.88205 -0.59247,-1.27804 -1.60552,-3.45668 -2.25124,-4.84141 -0.89337,-1.91584 -2.06703,-3.47598 -4.90967,-6.52639 -2.0546,-2.20478 -4.48193,-4.91318 -5.39405,-6.01867 -1.68632,-2.04381 -2.41514,-2.5426 -2.0889,-1.4296 0.27819,0.94908 1.38009,4.06052 1.71784,4.85069 0.27259,0.63771 2.7696,8.99998 2.7696,9.27513 0,0.0633 -0.13811,0.0298 -0.30691,-0.0746 -0.70133,-0.43344 -4.12159,-8.23007 -5.3207,-12.12876 -0.43567,-1.41648 -0.96356,-2.51827 -1.17311,-2.44842 -0.20954,0.0699 -0.61075,0.83191 -0.89159,1.69347 -0.28083,0.86156 -0.63316,1.81626 -0.78295,2.12155 -0.1498,0.30528 -0.62994,1.81341 -1.06698,3.35138 -1.15,4.04697 -1.10112,9.0679 0.13158,13.51339 0.50461,1.8198 0.96313,3.36455 1.01893,3.43277 0.60927,0.74488 5.56979,6.06275 8.96106,9.60661 2.35043,2.45618 5.2873,5.6135 6.52639,7.01626 1.23909,1.40277 2.34349,2.55371 2.45423,2.55764 0.11073,0.004 0.0843,-0.74691 -0.0588,-1.66854 z m 19.98254,-16.13958 c 4.37216,-5.01117 7.54535,-9.92 8.09555,-12.52362 0.14351,-0.67909 0.35274,-1.38895 0.46496,-1.57747 0.11222,-0.18851 0.2421,-1.7197 0.28862,-3.40265 0.0789,-2.85485 -0.48923,-6.57422 -1.26007,-8.24904 -0.1786,-0.38806 -0.50733,-1.30233 -0.73052,-2.03172 -0.22318,-0.72939 -0.53941,-1.24358 -0.70274,-1.14264 -0.16332,0.10094 -0.55116,1.3012 -0.86186,2.66724 -0.3107,1.36604 -0.70138,2.75335 -0.86818,3.08291 -0.1668,0.32957 -0.50736,1.03577 -0.75682,1.56935 -0.24945,0.53357 -0.58857,0.97014 -0.75361,0.97014 -0.16504,0 -0.20997,-0.43657 -0.0998,-0.97014 0.96181,-4.66029 1.54158,-11.73891 0.9601,-11.72231 -0.14552,0.004 -1.02917,1.32681 -1.96366,2.93924 -0.9345,1.61243 -2.0475,3.3156 -2.47334,3.78481 -0.42584,0.46922 -1.76184,2.20249 -2.96887,3.85173 -1.20704,1.64924 -3.86435,5.27583 -5.90513,8.05909 -2.04079,2.78327 -3.71052,5.18473 -3.71052,5.33659 0,0.42211 1.08885,5.40672 1.3122,6.0071 0.10828,0.29104 0.23087,0.76729 0.27242,1.05833 0.19946,1.39694 0.94726,3.52778 1.23805,3.52778 0.4809,0 2.63292,-3.16587 8.27273,-12.17014 2.81507,-4.49441 3.41262,-4.46821 1.14261,0.0501 -1.78784,3.55857 -3.57244,7.05962 -4.37975,8.59226 -4.52682,8.59393 -5.42287,10.83033 -4.89279,12.21169 0.21373,0.55696 0.84624,0.0526 4.03578,-3.21797 2.08029,-2.13314 4.89039,-5.14844 6.24468,-6.70066 z M 1.1263398,265.81245 c 0,-1.13165 -1.50466527,-5.12902 -3.3132435,-8.80214 -0.6901269,-1.40161 -1.3507561,-2.98911 -1.468065,-3.52778 l -0.213289,-0.9794 0.7502267,0.88195 c 0.4126247,0.48507 1.4841745,1.99319 2.38122187,3.35139 0.89704733,1.35819 1.94938303,2.82701 2.33852373,3.26403 l 0.7075286,0.79459 0.6331683,-2.55848 c 0.3482426,-1.40716 0.8224138,-3.15543 1.0537139,-3.88503 0.3400104,-1.07252 0.3262299,-1.51164 -0.07196,-2.29306 -0.6614227,-1.29798 -3.75778828,-6.00098 -6.0944908,-9.25678 -1.0444114,-1.4552 -3.309608,-4.82023 -5.0337704,-7.47782 -1.7241624,-2.6576 -3.2678572,-4.84041 -3.4304322,-4.85069 -0.162576,-0.0103 -0.187417,0.65598 -0.0552,1.4806 0.218118,1.36039 2.4625391,10.7353 2.8337151,11.83638 0.085156,0.25261 0.02599,0.37966 -0.1314797,0.28234 -0.5363638,-0.33149 -2.9847354,-5.63402 -4.1605194,-9.01059 -0.644852,-1.85186 -1.308904,-3.41251 -1.475672,-3.4681 -0.421562,-0.14052 -1.324488,2.10034 -2.0285,5.03427 -0.595503,2.48173 -0.545541,7.73171 0.08315,8.73791 0.149251,0.23888 0.299106,0.61664 0.333011,0.83949 0.112654,0.74044 2.971741,5.39798 4.791268,7.80513 2.1781645,2.8816 4.1501665,5.17016 7.8669257,9.12976 1.5522221,1.65364 2.87513858,3.15143 2.9398145,3.32842 0.2564377,0.70175 0.7643518,0.26557 0.7643518,-0.65639 z m 7.841583,-20.71765 c 1.3643642,-1.80895 4.9427022,-5.99327 6.4724412,-7.56854 3.881042,-3.99655 7.671914,-9.41873 9.080386,-12.98791 0.626435,-1.58743 0.840172,-6.59034 0.295927,-6.9267 -0.164202,-0.10148 -0.504945,-2.09023 -0.757207,-4.41944 -0.252262,-2.32921 -0.597183,-4.14931 -0.766492,-4.04468 -0.169309,0.10464 -0.68905,0.93308 -1.154979,1.84099 -0.973981,1.89787 -4.780929,7.92823 -5.830313,9.23545 -0.389397,0.48507 -0.710124,1.07992 -0.712727,1.3219 -0.0056,0.52029 -2.416461,3.26421 -2.868004,3.26421 -0.838877,0 -0.148455,-2.71557 2.152613,-8.46667 1.483115,-3.70677 3.887206,-11.53079 3.883906,-12.64002 -0.0013,-0.42398 -0.244952,-0.29245 -0.869257,0.46919 -0.477128,0.58208 -0.873214,1.16086 -0.880192,1.28617 -0.007,0.12532 -0.965338,1.74357 -2.129689,3.59612 -3.049451,4.85186 -6.398423,11.58109 -7.4898322,15.04965 -1.5016944,4.77247 -1.7995972,7.30077 -1.5770524,13.38445 0.2064036,5.64244 0.5968274,7.83181 1.5971413,8.95626 0.5519455,0.62045 0.5872047,0.61376 0.9304695,-0.17638 0.1962316,-0.4517 0.4765189,-0.98002 0.6228606,-1.17405 z M 206.06045,242.74122 c 1.59628,-3.60624 2.4115,-14.06054 1.56332,-20.04781 -0.54913,-3.87631 -1.40734,-7.68945 -1.86587,-8.29028 -0.14807,-0.19402 -0.87824,-1.94027 -1.62259,-3.88055 -0.74436,-1.94028 -1.62482,-3.84528 -1.9566,-4.23334 -0.33177,-0.38805 -1.33007,-2.08061 -2.21843,-3.76123 -4.26242,-8.06367 -5.03887,-8.32299 -3.52613,-1.17765 0.28754,1.35819 0.59701,2.86631 0.68771,3.35138 0.41436,2.2161 1.34015,5.60276 1.96481,7.18754 0.37678,0.9559 1.14482,3.50006 1.70675,5.6537 l 1.0217,3.91571 -1.35765,-1.50796 c -0.74671,-0.82937 -1.65666,-2.09937 -2.02213,-2.82222 -1.07805,-2.13226 -5.12377,-9.72796 -5.53848,-10.39829 -0.59509,-0.96192 -1.27054,-0.7397 -1.27054,0.418 0,0.56945 -0.14528,1.41747 -0.32284,1.88449 -0.17756,0.46702 -0.59011,2.73954 -0.91677,5.05005 -0.32667,2.31051 -0.75143,4.53491 -0.94391,4.94312 -0.37565,0.79666 -0.22203,4.09565 0.24471,5.25503 1.14302,2.83928 14.51845,19.57917 15.64405,19.57917 0.1285,0 0.4565,-0.50349 0.72889,-1.11886 z M -0.40840199,232.48299 c -0.24014285,-2.34639 -0.34970519,-2.95039 -0.68791981,-3.79236 -0.5446614,-1.35591 -1.3051158,-8.55651 -1.3051158,-12.3579 0,-2.32246 -0.1338998,-4.22265 -0.2975551,-4.22265 -0.1636553,0 -0.9203485,0.75406 -1.6815405,1.67569 -4.0037288,4.84761 -4.9261653,6.77352 -4.0575168,8.47146 0.1723627,0.33691 0.962045,1.9779 1.7548494,3.64665 2.0416055,4.29729 5.1893727,8.78397 6.16266664,8.78397 0.20324008,0 0.24790485,-0.87824 0.11213197,-2.20486 z M 215.41429,232.65938 c 3.5828,-4.28125 5.85611,-7.84894 9.22167,-14.47234 2.61257,-5.14151 2.64124,-5.41204 0.85532,-8.07116 -0.80179,-1.19382 -2.04251,-2.71157 -2.75714,-3.37277 -0.71464,-0.66121 -1.70492,-1.66882 -2.20062,-2.23914 -1.04141,-1.19817 -4.42674,-3.13444 -4.70186,-2.68927 -0.24385,0.39455 0.44654,5.00398 0.86761,5.79267 0.44845,0.83998 0.42504,12.16162 -0.0257,12.44021 -0.19403,0.11991 -0.35904,0.80397 -0.36669,1.52012 -0.008,0.71616 -0.30426,2.69116 -0.65914,4.3889 -0.35488,1.69775 -0.56731,3.08681 -0.47206,3.08681 0.0952,0 0.005,0.20241 -0.20013,0.44979 -0.43767,0.52737 -0.97663,4.13632 -0.61771,4.13632 0.13454,0 0.60995,-0.43656 1.05648,-0.97014 z M -21.491819,217.54967 c -0.608342,-3.24655 -0.202361,-12.20165 0.66243,-14.61181 1.57391,-4.38648 3.756328,-8.253 7.26377,-12.86899 2.302179,-3.02979 4.1723322,-4.95456 17.3377918,-17.84408 9.2721702,-9.07784 13.7034902,-13.76898 17.2554512,-18.26719 1.278042,-1.61851 2.323713,-2.85302 2.323713,-2.74335 0,0.28094 -2.218951,4.75319 -3.029673,6.10624 -1.367061,2.28155 -6.885529,10.21175 -8.169333,11.73958 -1.735016,2.06479 -5.4657911,6.05119 -11.56477418,12.35717 -10.56894912,10.92764 -13.66382682,14.70835 -16.02843182,19.58034 -1.277861,2.63288 -2.981179,9.15187 -2.659139,10.17714 0.07017,0.2234 0.212084,1.6624 0.315359,3.19777 0.235802,3.50563 0.634329,3.96894 1.596746,1.8563 0.403532,-0.88581 0.733695,-1.70316 0.733695,-1.81634 0,-0.11318 0.557051,-1.3522 1.23789,-2.75338 3.377811,-6.9516 5.1798533,-9.15278 20.4168802,-24.93903 C 16.281711,176.2755 18.858292,172.94332 25.77445,161.406 c 1.189649,-1.98454 2.162998,-3.67075 2.162998,-3.74714 0,-0.0764 0.839843,-1.62768 1.866319,-3.44731 1.026475,-1.81963 2.546374,-4.65779 3.377552,-6.30703 0.831178,-1.64923 1.909397,-3.71298 2.396042,-4.58611 0.486645,-0.87312 2.138075,-4.0068 3.669844,-6.96372 1.531769,-2.95692 3.365897,-6.44942 4.075838,-7.76111 1.323498,-2.4453 2.20463,-3.65701 1.774542,-2.44031 -0.126398,0.35757 -0.326327,1.07195 -0.444287,1.5875 -0.11796,0.51555 -0.927676,3.00111 -1.79937,5.52347 -0.871693,2.52237 -1.670557,4.90362 -1.775253,5.29167 -0.104696,0.38806 -0.316214,0.86857 -0.47004,1.0678 -0.153827,0.19924 -0.688223,1.61377 -1.187546,3.14341 -0.499324,1.52963 -1.08435,2.99381 -1.300058,3.25372 -0.215709,0.25992 -0.295387,0.47257 -0.177062,0.47257 0.200018,0 -0.386287,1.45603 -2.340199,5.81166 -1.191286,2.65559 -8.120439,16.29897 -9.500542,18.7064 -2.474682,4.31678 -1.966381,3.53739 -4.946578,7.58472 -1.214393,1.64923 -2.685823,3.52088 -3.269844,4.15921 -2.641224,2.88684 -11.0570273,11.35809 -12.1304588,12.21039 -0.654954,0.52003 -1.104984,1.03135 -1.0000667,1.13627 0.5211334,0.52113 13.6062655,-7.00688 16.9347845,-9.74276 0.234052,-0.19238 1.057484,-0.86684 1.829847,-1.49881 3.198843,-2.61736 7.154748,-6.65493 9.766859,-9.96847 3.750369,-4.75746 4.441097,-5.76486 6.345404,-9.25459 4.648345,-8.51829 7.263191,-15.29042 10.865324,-28.13985 0.43514,-1.55222 1.32262,-4.56847 1.972177,-6.70278 0.649556,-2.13431 1.529194,-5.07118 1.95475,-6.52639 0.425556,-1.45521 0.884827,-2.80458 1.020604,-2.99861 0.135776,-0.19403 0.769467,-1.82464 1.408201,-3.62358 0.638734,-1.79895 1.299382,-3.35613 1.468107,-3.46041 0.168725,-0.10428 0.306773,-0.4165 0.306773,-0.69383 0,-0.27733 0.91184,-1.97452 2.026311,-3.77154 3.602885,-5.80944 8.866125,-10.333082 14.377854,-12.35746 3.015574,-1.107576 6.574231,-1.72262 8.466666,-1.463296 2.140665,0.29334 5.825045,1.27903 6.031899,1.613727 0.100843,0.163167 0.420891,0.296667 0.711218,0.296667 0.899724,0 5.87207,3.401462 7.578998,5.184612 0.892164,0.93201 2.382193,3.04393 3.311163,4.69317 0.92898,1.64923 1.73488,3.05279 1.79089,3.11901 0.056,0.0662 0.42844,0.0168 0.82763,-0.10995 0.66523,-0.21114 0.71215,-0.442 0.56228,-2.76624 -0.0899,-1.39473 -0.24459,-4.44088 -0.34368,-6.76921 -0.0991,-2.328336 -0.284,-5.344586 -0.41091,-6.702781 l -0.23073,-2.469444 -2.6871,-2.645833 C 99.163696,87.888203 97.339228,86.221328 96.587226,85.639245 95.835223,85.057162 95.043572,84.412232 94.828,84.206067 93.841018,83.262155 87.648351,79.313744 86.187294,78.696799 85.291334,78.318471 84.240775,77.8737 83.852719,77.708417 c -1.12137,-0.477619 -3.920007,-1.065005 -5.074285,-1.065005 -0.581727,0 -1.139017,-0.131598 -1.238423,-0.29244 -0.263056,-0.425633 -7.090372,-0.511826 -8.426409,-0.106382 -0.624735,0.189587 -2.009006,0.535632 -3.076158,0.76899 -7.511227,1.642507 -16.588908,9.035751 -24.235201,19.738165 -2.377686,3.328015 -8.240253,12.957315 -10.790339,17.723185 -0.907268,1.69561 -2.081376,3.75936 -2.609129,4.58612 -0.962623,1.50801 -3.024767,5.16007 -5.330707,9.44069 -0.679389,1.26119 -1.42857,2.53119 -1.664847,2.82223 -0.236278,0.29104 -1.115833,1.87854 -1.954567,3.52777 -0.838735,1.64924 -1.971525,3.66222 -2.517311,4.47329 -0.545786,0.81107 -0.992338,1.55458 -0.992338,1.65225 0,0.28232 -2.204659,3.75224 -2.384031,3.75224 -0.260047,0 0.255067,-1.82169 0.947664,-3.35139 1.753436,-3.87271 2.141922,-4.77046 2.141922,-4.94975 0,-0.10722 0.494303,-1.25989 1.09845,-2.56149 5.262334,-11.33736 11.214112,-23.10932 13.77092,-27.23737 0.540791,-0.87312 1.32207,-2.2084 1.736175,-2.96727 0.618564,-1.13356 5.472944,-8.635758 6.410392,-9.906932 6.162305,-8.356049 13.072208,-14.466063 19.989965,-17.675928 1.473348,-0.68364 2.954474,-1.39203 3.29139,-1.574202 0.336915,-0.182171 0.905769,-0.331221 1.26412,-0.331221 0.35835,0 0.757125,-0.105579 0.886166,-0.23462 0.129042,-0.129042 0.671438,-0.280834 1.205324,-0.337316 0.533887,-0.05648 2.025909,-0.290904 3.315605,-0.520937 3.695831,-0.659198 10.48221,0.170173 15.117597,1.847538 2.64082,0.95561 6.82397,3.231193 9.172221,4.989579 1.067152,0.799091 3.629391,3.096036 5.693862,5.104321 l 3.753583,3.651429 0.15984,-1.517358 c 0.0879,-0.834547 0.044,-1.676108 -0.0976,-1.870136 -0.1416,-0.194027 -0.32106,-1.860902 -0.3988,-3.704166 -0.10657,-2.526728 -0.33343,-3.747724 -0.92195,-4.962075 -0.42933,-0.885878 -0.78059,-1.790802 -0.78059,-2.010943 0,-0.220141 -0.20156,-0.527207 -0.4479,-0.682369 -0.24634,-0.155162 -1.49971,-1.552113 -2.785259,-3.104335 -5.774,-6.971753 -12.507226,-12.002714 -18.815452,-14.058609 -2.477596,-0.807466 -10.362531,-2.340457 -10.925996,-2.124235 -0.257352,0.09875 -0.572715,0.01 -0.700806,-0.197273 -0.23243,-0.37608 -6.598,-0.555265 -6.95742,-0.195845 -0.09954,0.09954 -2.070687,0.231426 -4.380324,0.293077 -2.309637,0.06165 -4.503195,0.245312 -4.874573,0.408134 -0.480704,0.210754 -0.601746,0.177138 -0.420152,-0.116688 0.140294,-0.227 0.549982,-0.412728 0.910418,-0.412728 0.360435,0 0.708254,-0.126913 0.77293,-0.282029 0.06468,-0.155117 1.228842,-0.651121 2.587037,-1.102232 2.083968,-0.69217 3.437856,-0.848064 8.673305,-0.99869 5.237671,-0.150689 10.47722,0.139127 13.375303,0.739831 2.779275,0.576077 9.9285,3.724043 13.229165,5.8251 3.523602,2.242969 9.329239,8.500213 11.141214,12.007863 0.69065,1.336967 0.83578,1.454129 1.05779,0.853959 0.43705,-1.181463 0.45082,-5.876238 0.0203,-6.933321 -0.79327,-1.947922 -5.330904,-7.030423 -10.279056,-11.513337 -1.609428,-1.458106 -7.450455,-5.357917 -9.701388,-6.477214 -3.857787,-1.918321 -6.506185,-3.016792 -9.874101,-4.095461 -1.938256,-0.62078 -3.605131,-1.218304 -3.704166,-1.327831 -0.264096,-0.292072 5.531683,0.218184 7.395639,0.651107 2.769907,0.643339 8.243012,2.506461 9.710405,3.305559 4.665143,2.540494 5.886815,3.312747 8.113888,5.129014 2.569385,2.095435 5.52535,5.085716 7.569389,7.657265 1.34038,1.686296 2.132,1.923334 2.132,0.638398 0,-1.93962 -9.607772,-14.628655 -11.108825,-14.671485 -0.196049,-0.0056 -1.199276,-0.801834 -2.229393,-1.769423 -1.030117,-0.967588 -2.300054,-2.034574 -2.822081,-2.371079 -1.13433,-0.731202 -2.055037,-1.447526 -2.95153,-2.296335 -0.363744,-0.344396 -1.570198,-1.040063 -2.681011,-1.545926 -1.110812,-0.505863 -3.52709,-1.627001 -5.369507,-2.491417 -1.842417,-0.864416 -4.43689,-1.937723 -5.765495,-2.385126 -2.407357,-0.810668 -3.727966,-1.594712 -2.685071,-1.594123 0.28134,1.59e-4 1.702152,0.256312 3.15736,0.569229 1.455209,0.312917 3.094893,0.628642 3.643744,0.701611 0.548851,0.07297 1.143566,0.222691 1.32159,0.332715 0.178024,0.110025 0.635865,0.260167 1.017424,0.333648 0.679932,0.130943 2.765499,0.980148 3.978427,1.619943 0.336915,0.177716 0.778196,0.323121 0.980622,0.323121 0.202427,0 2.152473,0.854558 4.333436,1.899019 3.574696,1.711918 7.290115,4.087668 7.595484,4.856778 0.06411,0.161468 0.669129,0.555789 1.344489,0.876268 0.675359,0.320478 1.460148,0.917181 1.743975,1.326006 0.283827,0.408825 1.232203,1.775192 2.107501,3.036373 0.875301,1.26118 1.683761,2.570868 1.796581,2.910417 0.11282,0.339548 0.34536,0.617361 0.51676,0.617361 1.5141,0 -3.576585,-7.41428 -7.930064,-11.549659 -2.301207,-2.185922 -6.996414,-5.383675 -7.904761,-5.383675 -0.17861,0 -0.612079,-0.3175 -0.963265,-0.705555 -0.61828,-0.683193 -0.616173,-0.705556 0.06649,-0.705556 1.728807,0 8.113576,2.79996 11.152472,4.890776 0.847024,0.582767 2.735094,2.329925 4.195718,3.882572 l 2.65567,2.822995 0.22926,-2.711366 c 0.12609,-1.491251 0.32409,-3.222159 0.43999,-3.846461 0.1825,-0.982943 0.0283,-1.316158 -1.15054,-2.485858 -1.53757,-1.525702 -2.21234,-1.980195 -5.638146,-3.79762 -2.669696,-1.416302 -8.123028,-3.341149 -9.465894,-3.341149 -0.470732,0 -0.949703,-0.151816 -1.064382,-0.33737 -0.114678,-0.185554 -0.443569,-0.247169 -0.730868,-0.136922 -0.287298,0.110247 -0.718777,0.03766 -0.958841,-0.161296 -0.636222,-0.527287 -11.611911,-1.16885 -15.852539,-0.92663 -4.111574,0.234848 -12.844795,1.677166 -14.824919,2.448381 -0.722262,0.281305 -1.801875,0.597555 -2.39914,0.702778 -0.597265,0.105223 -1.355698,0.338692 -1.685407,0.51882 -0.329708,0.180127 -1.23447,0.585082 -2.010581,0.8999 -3.645782,1.478856 -8.225607,3.759176 -10.598177,5.276891 -1.066523,0.682246 -2.017868,1.240448 -2.114099,1.240448 -0.184715,0 -4.09556,2.513812 -4.397445,2.826588 -0.09701,0.100514 -1.191751,0.974088 -2.432749,1.941277 -4.894678,3.814731 -16.252968,14.35341 -17.025548,15.796989 -0.753082,1.407147 0.125417,0.953949 2.423705,-1.250336 2.25755,-2.165214 9.363233,-7.469483 10.631424,-7.936174 0.320285,-0.117864 1.217336,-0.614322 1.993447,-1.103239 5.860317,-3.691757 15.840219,-7.630638 21.166664,-8.354088 2.422225,-0.328992 1.765392,0.143284 -2.469444,1.775581 -1.940278,0.74787 -4.480277,1.865374 -5.644444,2.483342 -3.918069,2.079806 -5.643772,3.097674 -5.762036,3.39861 -0.06468,0.164576 -0.29603,0.299228 -0.514119,0.299228 -0.95391,0 -12.991167,8.583018 -15.693055,11.18974 -0.760412,0.733629 -2.160917,2.064289 -3.112233,2.957022 -1.725949,1.619664 -6.5800955,6.69593 -8.2616999,8.639745 -6.54899063,7.570169 -13.0983579,19.443842 -16.7381071,30.345345 -1.660413,4.973148 -2.28054,7.082468 -3.566728,12.132038 -0.07413,0.29104 -0.618455,2.89862 -1.209606,5.79463 -1.138098,5.57545 -1.019284,7.09517 0.335852,4.29583 0.427033,-0.88213 1.134426,-2.13142 1.571985,-2.7762 0.437559,-0.64478 0.975382,-1.68816 1.195162,-2.31862 0.21978,-0.63046 0.703479,-1.57583 1.074886,-2.10083 0.371408,-0.52499 1.5483965,-2.62141 2.6155301,-4.6587 3.1387709,-5.99231 4.9664329,-9.336416 5.2057174,-9.525001 0.1230953,-0.09701 0.3256301,-0.452429 0.4500774,-0.789811 0.2361396,-0.640185 5.827225,-9.132796 6.2152858,-9.440744 0.1222521,-0.09701 1.5688351,-1.99709 3.2146287,-4.222391 C 11.718622,78.086642 17.032877,72.377356 23.20565,67.118412 c 0.569359,-0.485069 2.065367,-1.760901 3.324462,-2.835181 2.143584,-1.828939 6.072677,-4.573152 6.547721,-4.573152 0.116801,0 -2.875235,3.094227 -6.648968,6.876061 -3.773734,3.781833 -8.192793,8.497241 -9.820132,10.478684 -1.627339,1.981442 -3.474736,4.14184 -4.105326,4.800883 -0.63059,0.659043 -1.154265,1.380823 -1.163721,1.603955 -0.0095,0.223132 -0.646657,1.278819 -1.4160013,2.345972 -4.0456539,5.611704 -7.4079275,10.849177 -10.19119121,15.874996 -1.43446709,2.59026 -10.24783449,20.35675 -10.24783449,20.65816 0,0.13042 -0.57231,1.44912 -1.271801,2.93045 -0.699491,1.48134 -1.474521,3.24896 -1.722289,3.92806 -0.247769,0.6791 -1.354644,3.13972 -2.459723,5.46806 -2.687402,5.66219 -2.726167,5.7475 -5.930908,13.05277 -2.929118,6.67699 -3.023882,7.24445 -0.754926,4.52062 1.308734,-1.57111 4.604448,-5.14106 7.753,-8.39813 1.815937,-1.87853 9.4554424,-10.76909 11.0897461,-12.90582 1.2835999,-1.67821 1.9549424,-2.49054 7.231622,-8.75033 1.7462498,-2.07159 3.7306245,-4.45545 4.4097217,-5.29746 0.6790971,-0.842 1.4018516,-1.71071 1.606121,-1.93045 2.6231532,-2.82189 12.9588502,-16.385001 14.3291002,-18.803495 0.568199,-1.002871 1.263343,-2.014497 1.544766,-2.248057 0.929001,-0.771002 0.834861,-0.564715 -2.501998,5.48257 -0.685484,1.242282 -2.985571,4.894182 -7.746046,12.298582 -1.771002,2.7546 -8.0702982,11.94412 -12.876387,18.7843 -1.0671527,1.5188 -2.66087666,3.56023 -3.5416089,4.53651 -0.8807322,0.97628 -1.90902,2.37036 -2.2850839,3.09797 -0.3760639,0.7276 -0.7794909,1.32292 -0.8965045,1.32292 -0.1170135,0 -0.701554,0.67468 -1.2989788,1.4993 -0.5974248,0.82462 -1.379823,1.81681 -1.7386627,2.20486 -0.3588397,0.38806 -1.2004546,1.41993 -1.8702553,2.29306 -1.3231709,1.72483 -7.6944589,9.12856 -8.3485409,9.70139 -0.413671,0.36228 -2.269342,2.48369 -5.067584,5.79328 -6.148824,7.27244 -10.823331,15.35562 -13.138702,22.71948 -0.687899,2.18781 -0.793487,3.27439 -0.777374,7.99974 0.0204,5.98384 0.354731,7.423 2.950311,12.7 1.930386,3.92461 2.752735,4.61229 2.097872,1.75432 -0.555253,-2.42325 0.1472,-10.67231 1.095679,-12.86682 0.16772,-0.38806 0.488914,-1.49931 0.713764,-2.46945 0.411629,-1.77601 1.052257,-3.20622 3.167184,-7.07078 1.309742,-2.39326 3.236003,-5.54326 3.550194,-5.80561 0.116187,-0.097 0.745792,-0.97014 1.399124,-1.94027 1.23846,-1.83901 8.931609,-11.18068 11.475663,-13.93473 5.5187865,-5.97432 9.0578324,-10.25977 11.340163,-13.73187 0.8385848,-1.27573 1.5250189,-2.18648 1.5254092,-2.02389 0.00155,0.64439 -2.57748947,6.12186 -3.37942079,7.17736 -0.46926141,0.61765 -0.85320251,1.20353 -0.85320251,1.30197 0,0.28028 -3.6710508,5.57682 -7.4884299,10.80421 -6.230048,8.53122 -11.012727,15.83219 -13.056918,19.93195 -0.787994,1.58037 -2.19549,5.61863 -3.504282,10.05416 -0.623654,2.11358 -0.641682,13.08835 -0.02272,13.83415 0.236569,0.28505 0.35643,0.59196 0.266359,0.68204 -0.09007,0.0901 0.0067,0.78116 0.21506,1.53576 0.692199,2.50694 3.684689,8.558 4.051077,8.19162 0.07437,-0.0744 -0.04087,-1.07491 -0.256078,-2.22342 z m 23.6828412,0.30213 c 0.2507508,-0.92663 0.5955971,-1.86651 0.7663251,-2.08862 0.170728,-0.22211 0.2796416,-0.53961 0.2420302,-0.70555 -0.037611,-0.16595 0.021711,-0.53984 0.1318273,-0.83089 0.1101164,-0.29104 0.4574874,-1.56104 0.7719355,-2.82222 0.8295892,-3.32729 0.8208729,-3.29548 1.0875159,-3.96875 0.3072364,-0.77576 0.044049,-0.77781 -1.166312,-0.009 -1.1525119,0.73197 -2.1824178,1.82531 -2.2194404,2.35613 -0.014845,0.21284 -0.1154442,0.70449 -0.223553,1.09255 -0.1081088,0.38805 -0.2684152,2.5887 -0.3562364,4.89033 -0.1681509,4.40691 0.1512294,5.09669 0.9659078,2.08611 z M 236.7507,215.19688 c 1.04564,-4.66543 1.14793,-5.57295 0.96419,-8.55486 -0.20821,-3.37916 -0.32508,-4.27135 -0.67006,-5.11528 -0.11897,-0.29104 -0.3901,-1.39158 -0.6025,-2.44565 -0.64547,-3.20318 -3.12,-7.53746 -7.30215,-12.79018 -1.03321,-1.29769 -2.06387,-2.76613 -2.29034,-3.26319 -0.22648,-0.49707 -0.63421,-0.90375 -0.90608,-0.90375 -0.27186,0 -2.69067,-1.94469 -5.37513,-4.32153 -2.68445,-2.37684 -5.96873,-5.22726 -7.29838,-6.33427 -4.10924,-3.42117 -12.19417,-11.82192 -15.47032,-16.07464 -0.19403,-0.25187 -0.51881,-0.65087 -0.72173,-0.88667 -1.74558,-2.02841 -6.12268,-8.83598 -8.39764,-13.0606 -1.01453,-1.88398 -1.74232,-3.44151 -4.64741,-9.9459 -1.5164,-3.39516 -3.38011,-8.35517 -3.26697,-8.6946 0.0726,-0.21782 0.75768,0.85561 1.52239,2.38539 3.92819,7.85834 8.66037,15.17233 14.57948,22.53382 3.28519,4.08574 12.78012,13.94921 16.50371,17.14429 12.60505,10.81595 19.12868,17.46797 23.5573,24.02095 0.56603,0.83754 1.08841,1.345 1.16085,1.12768 0.12192,-0.36577 -1.3693,-4.48185 -2.5597,-7.06529 -0.28173,-0.61141 -0.51223,-1.20475 -0.51223,-1.31854 0,-0.42554 -6.05753,-10.13353 -10.01192,-16.04541 -2.25455,-3.3706 -4.09919,-6.27745 -4.09919,-6.45965 0,-0.1822 0.65653,0.43244 1.45896,1.36587 0.80243,0.93343 2.27086,2.58788 3.26319,3.67654 6.54379,7.17904 10.78085,12.90187 13.39127,18.08706 2.60283,5.1701 3.72686,8.24551 4.46363,12.21272 0.23422,1.26118 0.51086,2.61055 0.61476,2.99861 0.10391,0.38806 0.28607,2.45181 0.4048,4.58611 0.23778,4.27413 0.49449,4.33256 1.54997,0.35278 1.39205,-5.24881 1.50547,-8.29328 0.55857,-14.99306 -0.98146,-6.94431 -6.38818,-17.20058 -13.43902,-25.49311 -0.82852,-0.97443 -1.73324,-2.10618 -2.01047,-2.51499 -0.81385,-1.20009 -2.42217,-3.04335 -4.95794,-5.68217 -8.95622,-9.3202 -20.04137,-22.08368 -24.66436,-28.39862 -1.20736,-1.64923 -2.42379,-3.27823 -2.70317,-3.62 -0.27938,-0.34177 -0.50796,-0.7651 -0.50796,-0.94074 0,-0.17564 -0.12224,-0.37226 -0.27163,-0.43694 -0.14939,-0.0647 -0.86662,-1.02192 -1.59384,-2.12721 -0.72722,-1.10528 -1.52808,-2.21653 -1.77969,-2.46944 -1.64025,-1.6487 -7.68823,-11.59034 -7.03231,-11.55969 0.14879,0.007 1.61551,1.69506 3.25939,3.75134 3.17862,3.97605 10.93778,12.68933 16.76515,18.8267 1.94112,2.04439 3.76744,4.09064 4.05848,4.54722 0.29104,0.45658 3.18781,3.45165 6.43727,6.65572 3.24946,3.20407 6.81448,6.91367 7.92227,8.24356 1.10778,1.32989 2.64206,2.85312 3.4095,3.38496 0.76744,0.53184 2.81708,2.55474 4.55475,4.49534 1.73767,1.94059 3.29226,3.57888 3.45464,3.64063 0.27226,0.10354 -1.38487,-3.93549 -3.36681,-8.20613 -1.21539,-2.61889 -2.81533,-6.12354 -3.71329,-8.13393 -0.43332,-0.97014 -1.38919,-3.03389 -2.12416,-4.58611 -0.73496,-1.55222 -1.84353,-3.93347 -2.46349,-5.29166 -1.44201,-3.15915 -9.24714,-18.84686 -10.53108,-21.16667 -1.95925,-3.53998 -2.79179,-4.97409 -3.88005,-6.68365 -0.61086,-0.95962 -1.11066,-1.95181 -1.11066,-2.20486 0,-0.25306 -0.14154,-0.4601 -0.31454,-0.4601 -0.17299,0 -0.40846,-0.37427 -0.52327,-0.8317 -0.11481,-0.457435 -1.12421,-1.940963 -2.24311,-3.296729 -1.1189,-1.355765 -2.74873,-3.474834 -3.62186,-4.709041 -5.68449,-8.035319 -10.88047,-14.28866 -17.79253,-21.413226 -1.92946,-1.988785 -3.38657,-3.615972 -3.23802,-3.615972 1.2021,0 17.13196,14.214772 17.1598,15.312285 0.005,0.212479 0.97545,1.338826 2.1557,2.502993 1.18024,1.164166 3.0367,3.307291 4.12545,4.7625 1.08874,1.455208 2.07733,2.725208 2.19686,2.822222 1.277,1.036489 11.26774,15.714658 11.26774,16.554308 0,0.20846 0.15875,0.37902 0.35278,0.37902 0.19402,0 0.35277,0.14753 0.35277,0.32784 0,0.1803 0.63733,1.28735 1.41629,2.46009 0.77896,1.17274 1.57507,2.49366 1.76913,2.93536 0.19406,0.44171 0.6629,1.27935 1.04186,1.86144 0.71826,1.10323 3.02456,5.73205 3.58374,7.19267 0.17744,0.46348 0.42056,0.74473 0.54028,0.62501 0.28931,-0.28931 -0.54682,-6.38286 -1.12112,-8.17046 -0.24935,-0.77611 -0.64131,-2.52236 -0.87104,-3.88056 -0.22973,-1.35819 -0.50656,-2.70757 -0.61517,-2.99861 -0.10862,-0.29104 -0.22934,-0.76729 -0.26828,-1.05833 -0.11629,-0.86931 -0.6609,-3.04655 -0.97066,-3.88056 -0.1081,-0.29104 -0.63036,-2.27541 -1.16057,-4.40972 -2.87999,-11.592967 -8.37101,-22.924189 -15.60303,-32.198253 -4.88421,-6.263332 -15.49705,-16.216325 -21.78448,-20.430036 -2.5035,-1.677798 -6.87763,-4.34532 -7.12534,-4.34532 -0.0957,0 -0.6035,-0.305778 -1.12835,-0.679507 -0.52485,-0.373728 -3.48624,-1.976061 -6.58085,-3.560738 -3.09461,-1.584678 -5.70112,-2.954181 -5.79224,-3.043341 -0.57913,-0.566676 5.67475,1.147832 11.27817,3.091926 3.59674,1.247877 4.47644,1.629704 8.81945,3.827999 5.41789,2.742369 6.21912,3.217014 8.72687,5.169742 3.96078,3.084169 5.38424,4.064455 5.38424,3.707945 0,-0.393711 -6.95257,-6.938018 -10.03918,-9.449673 -1.15592,-0.940603 -2.36237,-1.948311 -2.68101,-2.239353 -1.07616,-0.982969 -1.90971,-1.597347 -5.39603,-3.977217 -1.91176,-1.30503 -3.6051,-2.372783 -3.76296,-2.372783 -0.15786,0 -0.33994,-0.119062 -0.40462,-0.264583 -0.0647,-0.145521 -0.67322,-0.535309 -1.35231,-0.866195 -0.6791,-0.330887 -1.79035,-0.923358 -2.46945,-1.316602 -1.92514,-1.114792 -5.87464,-2.844286 -6.49525,-2.844286 -0.30817,0 -0.5603,-0.15875 -0.5603,-0.352778 0,-0.194028 -0.25382,-0.352778 -0.56405,-0.352778 -0.31022,0 -1.06428,-0.224296 -1.67569,-0.498435 -1.23662,-0.554471 -8.21997,-2.422857 -9.04915,-2.421088 -0.29104,6.2e-4 -0.75171,-0.17567 -1.0237,-0.391758 -0.81287,-0.645786 -20.38382,-0.72001 -23.67074,-0.08977 -3.85971,0.740065 -6.49706,1.534896 -9.87778,2.976913 -6.08975,2.597537 -10.58333,5.609062 -10.58333,7.092787 0,2.294358 0.84661,10.617465 1.07999,10.617465 0.14524,0 0.66726,-0.687982 1.16004,-1.528848 0.49278,-0.840867 2.30164,-2.864929 4.01968,-4.497917 3.093,-2.939882 5.35312,-4.304385 12.19923,-7.365043 3.52093,-1.574083 2.88229,-0.525938 -1.48618,2.439139 -5.55968,3.773604 -7.99083,6.029858 -11.21305,10.406363 -2.79485,3.796051 -3.51648,5.735638 -1.06754,2.869324 2.4704,-2.891439 3.86329,-4.236271 5.80379,-5.603561 1.01909,-0.718062 1.93506,-1.305568 2.03548,-1.305568 0.10042,0 0.77474,-0.371785 1.49849,-0.826189 5.10102,-3.202668 18.24971,-5.541459 26.01964,-4.628184 l 2.46015,0.289164 -1.5875,0.2634 c -0.87313,0.14487 -2.29173,0.275167 -3.15246,0.289549 -0.86073,0.01438 -2.60698,0.271212 -3.88056,0.570733 -1.27357,0.299521 -3.33587,0.784602 -4.58289,1.077958 -1.24701,0.293356 -2.94486,0.842043 -3.773,1.219305 -0.82814,0.377262 -1.69125,0.685931 -1.91801,0.685931 -0.22676,0 -0.98953,0.310879 -1.69505,0.690843 -0.70551,0.379964 -1.83838,0.928017 -2.51747,1.217895 -2.9156,1.244547 -6.87846,3.783524 -8.99679,5.764178 -0.4669,0.436563 -0.92061,0.79375 -1.00823,0.79375 -0.39862,0 -5.12063,5.179001 -6.27205,6.879052 -1.39157,2.054626 -2.32863,5.684767 -1.63918,6.350115 0.24587,0.237273 0.42163,0.179521 0.53681,-0.176389 0.32498,-1.004159 6.2728,-6.549231 8.42975,-7.858947 1.18955,-0.722302 2.25641,-1.313275 2.3708,-1.313275 0.11439,0 1.12549,-0.408723 2.2469,-0.908273 1.12141,-0.49955 2.51518,-1.120732 3.09726,-1.380404 1.77555,-0.792085 4.97863,-1.622463 6.76935,-1.754909 0.93353,-0.06905 1.94948,-0.2265 2.25767,-0.349897 0.30819,-0.123398 1.81632,-0.177533 3.35139,-0.1203 l 2.79104,0.10406 -2.11667,0.621779 c -1.16417,0.341978 -2.75167,0.795422 -3.52778,1.007653 -2.12776,0.581846 -7.73659,2.530229 -7.9375,2.757311 -0.097,0.109653 -1.12888,0.666722 -2.29305,1.237933 -5.13605,2.520057 -13.01874,9.376849 -14.65889,12.751109 -1.11933,2.30279 -1.12214,2.315661 -1.29513,5.932268 l -0.15025,3.141386 3.11956,-3.141386 c 3.25916,-3.281968 3.91178,-3.731997 9.10415,-6.277974 4.4757,-2.194573 6.71769,-2.823033 12.1086,-3.394212 3.44076,-0.364557 8.05665,-0.194266 11.35112,0.418768 5.31005,0.988094 12.43884,4.261941 17.54308,8.056544 4.27585,3.178756 15.55578,14.812432 14.36203,14.812432 -0.31727,0 -3.14304,-2.348366 -7.38705,-6.13903 -5.27129,-4.708208 -10.15978,-8.213191 -13.9232,-9.982752 -1.8496,-0.869685 -3.64011,-1.726528 -3.97891,-1.904094 -0.33881,-0.177567 -2.16443,-0.717312 -4.05695,-1.199435 -4.16354,-1.06067 -10.93094,-1.222094 -14.68963,-0.350396 -7.11288,1.649587 -13.23836,4.719618 -18.42655,9.235202 -4.13516,3.599066 -4.54067,4.563853 -5.60662,13.339116 -0.28283,2.328334 -0.61119,4.709584 -0.7297,5.291667 -0.34046,1.672278 -0.56715,4.858102 -0.44045,6.189944 l 0.1159,1.218389 1.04664,-1.5875 c 2.03314,-3.083805 4.48223,-5.618983 7.13453,-7.385325 1.47574,-0.982793 2.83407,-1.786897 3.01852,-1.786897 0.18444,0 0.83559,-0.224434 1.447,-0.498741 2.32556,-1.043365 3.80893,-1.299391 7.16905,-1.23736 4.22929,0.07808 7.57494,1.214249 11.61738,3.945227 5.15067,3.479672 8.57727,8.154866 11.77464,16.065126 1.74728,4.32273 5.79894,16.41848 6.1952,18.49501 0.0841,0.44086 0.302,1.19844 0.48417,1.68351 0.18216,0.48507 0.67374,2.07257 1.09238,3.52778 2.94182,10.22568 9.51226,23.97809 14.24209,29.80972 2.49648,3.07804 13.62383,13.93472 14.28212,13.93472 0.15371,0 1.06076,0.50009 2.01565,1.1113 2.62113,1.67773 3.99637,2.52508 6.32229,3.89546 2.48902,1.46647 11.89153,6.28213 12.26577,6.28213 0.69711,0 0.042,-0.73133 -2.14344,-2.39278 -2.21681,-1.68531 -14.64968,-13.70104 -16.68794,-16.12805 -1.05899,-1.26097 -4.89967,-6.76479 -4.89967,-7.0214 0,-0.0987 -0.49668,-1.01992 -1.10374,-2.0471 -1.54154,-2.60837 -3.54115,-6.47417 -4.45361,-8.61004 -0.42377,-0.99194 -1.2264,-2.81757 -1.78362,-4.05694 -0.55721,-1.23938 -1.53469,-3.68216 -2.17217,-5.42841 -0.63749,-1.74625 -1.37719,-3.67524 -1.64379,-4.28665 -0.2666,-0.6114 -0.48473,-1.27576 -0.48473,-1.47634 0,-0.20058 -0.18514,-0.81159 -0.41141,-1.35779 -0.22628,-0.54621 -0.42854,-1.07248 -0.44947,-1.1695 -0.29646,-1.37413 -1.07558,-3.78055 -1.3078,-4.0393 -0.16542,-0.18433 -0.30077,-0.66852 -0.30077,-1.07597 0,-0.40746 -0.1905,-0.93134 -0.42333,-1.16417 -0.23283,-0.23283 -0.30813,-0.42333 -0.16733,-0.42333 0.1408,0 0.0208,-0.45487 -0.2667,-1.01081 -0.28749,-0.55594 -0.59209,-1.38938 -0.67688,-1.85208 -0.43122,-2.35316 -3.71627,-12.16808 -5.7386,-17.14554 -1.91921,-4.72362 -5.28681,-11.467389 -5.83398,-11.682775 -0.1643,-0.06467 -0.29873,-0.25749 -0.29873,-0.428477 0,-0.170987 -0.48258,-0.991195 -1.07241,-1.822685 -0.58982,-0.83149 -1.65352,-2.384925 -2.36378,-3.452078 -0.71025,-1.067153 -1.60413,-2.29684 -1.98639,-2.732637 -0.38226,-0.435797 -0.59444,-0.892938 -0.47151,-1.015868 0.31022,-0.31022 4.99777,4.249962 6.57293,6.394338 1.88647,2.568182 5.37864,8.377642 7.04528,11.720292 1.19732,2.40139 5.83963,14.84422 6.22253,16.67832 0.0608,0.29104 0.13442,0.52916 0.16368,0.52916 0.0293,0 0.1206,0.36249 0.20297,0.80553 0.0824,0.44304 0.38858,1.17002 0.68048,1.61552 0.2919,0.44549 0.78319,1.67051 1.09176,2.72225 0.30857,1.05174 0.77593,2.38851 1.03859,2.97059 0.26266,0.58208 1.05873,2.48708 1.76905,4.23333 0.71032,1.74625 1.59181,3.84098 1.95887,4.65496 0.36707,0.81397 0.66739,1.57173 0.66739,1.68391 0,0.37575 5.60866,11.43661 6.57438,12.96535 2.0721,3.28016 2.80065,4.38095 3.68422,5.56662 0.50608,0.67909 1.67553,2.26659 2.5988,3.52778 3.60291,4.92158 10.41962,12.01059 16.95232,17.6295 0.97014,0.83444 3.25231,2.88447 5.0715,4.55563 11.05979,10.15986 14.74995,14.93695 18.25562,23.63277 1.38508,3.43567 1.52131,3.98237 1.79094,7.18696 0.2453,2.91543 0.89851,3.14812 1.48549,0.52916 z M 206.37079,80.082995 c -1.65588,-1.794757 -3.85128,-4.279808 -4.87867,-5.522337 -5.27855,-6.383887 -14.52504,-14.526913 -21.88126,-19.269963 -2.02573,-1.306126 -4.71858,-3.045827 -5.9841,-3.866001 -1.26553,-0.820174 -2.82809,-1.763819 -3.47237,-2.096989 -0.64428,-0.333169 -1.08555,-0.691624 -0.98061,-0.796566 0.10494,-0.104942 0.93344,0.224264 1.8411,0.731568 0.90767,0.507305 1.85521,0.922372 2.10564,0.922372 0.25044,0 0.50825,0.119062 0.57293,0.264583 0.0647,0.145521 1.1857,0.777337 2.49117,1.404036 4.13182,1.983506 11.06277,6.526685 15.31336,10.037775 1.68926,1.395377 8.00894,7.771701 9.76698,9.854529 2.57188,3.047019 5.45574,6.932096 6.4846,8.73591 0.51121,0.896255 1.16534,1.907368 1.45362,2.246916 0.28829,0.339549 0.44634,0.617362 0.35123,0.617362 -0.0951,0 -1.52774,-1.468438 -3.18362,-3.263195 z m 7.0217,131.233335 c -0.11404,-2.95893 -0.43577,-6.1974 -0.71495,-7.1966 -0.62677,-2.24324 -2.11753,-5.026 -3.61849,-6.75455 -1.98062,-2.28093 -1.93901,-1.68388 0.43749,6.27823 0.49226,1.64924 1.26682,4.10986 1.72125,5.46806 0.45444,1.35819 1.0956,3.62038 1.4248,5.02708 0.32921,1.4067 0.67927,2.55764 0.77791,2.55764 0.0986,0 0.086,-2.42094 -0.028,-5.37986 z"
       id="path377" /></g></svg>
