<?xml version="1.0" encoding="UTF-8" standalone="no"?>
<!-- Created with Inkscape (http://www.inkscape.org/) -->

<svg
   width="319.94427mm"
   height="323.24786mm"
   viewBox="0 0 319.94429 323.24787"
   version="1.1"
   id="svg1"
   xml:space="preserve"
   xmlns="http://www.w3.org/2000/svg"
   xmlns:svg="http://www.w3.org/2000/svg"><defs
     id="defs1"><clipPath
       clipPathUnits="userSpaceOnUse"
       id="clipPath15"><path
         id="path16"
         style="fill:#ff0000;fill-opacity:1;fill-rule:nonzero;stroke:none;stroke-width:0.264583"
         d="M -1.5172157,13.299199 V 284.23253 H 269.41612 V 13.299199 Z M 124.49008,69.177958 c 2.39404,0.01064 4.78838,0.05837 7.18147,0.09147 1.01402,0.01632 2.02813,0.02716 3.0422,0.04082 h 0.60254 8.7018 6.17533 6.78718 c 1.2396,0 2.1662,0.312108 2.7988,0.775147 1.4464,0.03352 2.89279,0.07639 4.33875,0.127125 1.73368,0.06436 3.46771,0.117594 5.20227,0.150894 1.61154,0.03854 3.17228,0.403476 4.70462,0.874366 1.10398,0.436155 2.24307,0.764797 3.3693,1.133263 0.13755,0.04631 0.27484,0.0927 0.41238,0.13901 4.79832,1.615522 3.16621,6.462741 -1.63194,4.846732 -0.13089,-0.04408 -0.26185,-0.0882 -0.39274,-0.132291 -1.08629,-0.369919 -2.20049,-0.661078 -3.2644,-1.099159 -1.07481,-0.332967 -2.16273,-0.617307 -3.29592,-0.648538 -1.76157,-0.03394 -3.52273,-0.08804 -5.2834,-0.15348 -3.0306,-0.106357 -6.06143,-0.209232 -9.09454,-0.159163 -4.3117,0.0071 -8.6235,0.01595 -12.93512,0.04341 -3.68961,0.02902 -7.38051,0.05864 -11.06755,0.209806 -2.71902,0.13343 -5.43082,0.355185 -8.14627,0.543637 -1.94579,0.133004 -3.89411,0.265462 -5.8446,0.290423 -2.25234,0.02883 -3.49629,-0.966573 -3.74448,-2.086179 -3.21503,-1.025575 -2.64426,-4.855001 1.74253,-4.855001 h 2.46238 c 2.39195,-0.116369 4.78537,-0.142933 7.17941,-0.132292 z" /></clipPath><clipPath
       clipPathUnits="userSpaceOnUse"
       id="clipPath23"><path
         id="path24"
         style="fill:#ff0000;fill-opacity:1;fill-rule:nonzero;stroke:none;stroke-width:0.264583"
         d="M 29.860714,70.949944 V 275.11888 H 122.88759 V 70.949944 H 99.953594 c 1.352086,0.04169 2.703966,0.0907 4.056086,0.130742 1.97513,0.05849 3.14541,0.874757 3.55068,1.837097 0.0143,1.48e-4 0.0286,2.64e-4 0.0429,5.29e-4 5.0627,0.05235 5.00948,5.166299 -0.0532,5.113901 -2.84465,-0.02944 -5.68905,-0.06426 -8.532813,-0.144177 C 95.495904,77.776821 91.977816,77.59691 88.467989,77.283421 84.296137,76.956341 80.120707,76.666725 75.941622,76.449365 71.781739,76.272292 67.622055,76.201093 63.458146,76.251443 h -7.218164 c -3.684754,0 -4.674341,-2.703203 -2.995681,-4.178041 -0.139944,-0.369157 -0.17815,-0.753644 -0.09819,-1.123444 z" /></clipPath><clipPath
       clipPathUnits="userSpaceOnUse"
       id="clipPath30"><path
         id="path31"
         style="fill:#ff0000;fill-opacity:1;fill-rule:nonzero;stroke:none;stroke-width:0.264583"
         d="M 98.986967,86.941216 V 329.52124 H 178.59554 V 86.941216 h -17.01653 c 0.18656,0.319899 0.282,0.662632 0.28577,1.005623 2.45313,1.302512 1.7069,4.556828 -2.35386,4.556828 h -15.01665 -17.87385 c -2.61155,0 -3.8498,-1.358085 -3.76721,-2.675806 -0.1898,-0.0013 -0.5697,-0.008 -0.68213,-0.0072 -0.67108,0.0048 -1.23024,0.04166 -1.87585,0.07855 -2.95942,0.169107 -4.37587,-1.488069 -4.03025,-2.95796 z" /></clipPath><clipPath
       clipPathUnits="userSpaceOnUse"
       id="clipPath37"><path
         id="path38"
         style="fill:#ff0000;fill-opacity:1;fill-rule:nonzero;stroke:none;stroke-width:0.264583"
         d="M 62.137373,53.174251 V 304.87982 H 147.85669 V 53.174251 h -16.90853 c 0.97253,0.03757 1.94522,0.07011 2.91765,0.109554 5.05882,0.20521 4.85107,5.315153 -0.20774,5.109766 -1.87421,-0.07609 -3.74887,-0.140311 -5.62343,-0.208773 -0.12086,1.232119 -1.39698,2.389678 -3.84421,2.308903 -6.70269,-0.221236 -13.40548,-0.449193 -20.10936,-0.63252 -7.076416,-0.138343 -14.153615,-0.270482 -21.231783,-0.230993 -1.939415,0.01082 -3.121919,-0.735332 -3.575492,-1.658814 -0.783489,0.04164 -1.566648,0.08975 -2.349209,0.145728 -4.724,0.337932 -5.579885,-4.056905 -1.538925,-4.942851 z" /></clipPath><clipPath
       clipPathUnits="userSpaceOnUse"
       id="clipPath41"><path
         id="path41"
         style="fill:#ff0000;fill-opacity:1;fill-rule:nonzero;stroke:none;stroke-width:0.264583"
         d="M 116.05294,115.56528 V 346.962 h 92.26828 V 115.56528 h -23.77116 c 3.07622,1.07676 2.46082,4.81463 -1.86811,4.82503 -9.24402,0.0222 -4.53919,0.007 -14.1149,0.0465 -8.12804,0.0595 -16.27636,0.008 -24.38507,0.64338 -5.0475,0.39566 -5.51018,-4.69331 -0.46302,-5.09323 2.53472,-0.20085 5.07335,-0.33006 7.614,-0.42168 z" /></clipPath><clipPath
       clipPathUnits="userSpaceOnUse"
       id="clipPath47"><path
         id="path48"
         style="fill:#ff0000;fill-opacity:1;fill-rule:nonzero;stroke:none;stroke-width:0.264583"
         d="m 118.57584,82.509944 c 5.20453,0.278276 10.40878,0.561748 15.613,0.845426 4.51587,0.0145 9.03164,0.05013 13.5475,0.05788 V 82.509944 Z M 61.954493,84.130517 V 334.1721 H 147.73634 V 88.527665 c -1.97217,-0.0034 -3.94427,-0.02114 -5.91644,-0.02532 -0.57589,0.20678 -1.27523,0.320209 -2.1208,0.27337 -1.88642,-0.104497 -3.7731,-0.203575 -5.6596,-0.306443 -6.5402,-0.02106 -13.08049,-0.02683 -19.62051,-0.08371 -11.22115,-0.134131 -22.44194,-0.314568 -33.659959,-0.583943 h -5.3e-4 C 78.440275,87.745779 77.236834,86.638093 77.042447,85.470489 73.084,85.322851 69.12455,85.21827 65.162552,85.244146 63.622516,85.2542 62.557613,84.78512 61.954479,84.13052 Z" /></clipPath><clipPath
       clipPathUnits="userSpaceOnUse"
       id="clipPath58"><path
         id="path59"
         style="fill:#ff0000;fill-opacity:1;fill-rule:nonzero;stroke:none;stroke-width:0.264583"
         d="m 140.52399,120.59547 v 251.85336 h 69.34202 V 128.36606 c -9.09872,-0.30231 -18.19754,-0.6018 -27.29911,-0.80874 -11.7928,-0.24616 -23.58711,-0.49779 -35.37769,-0.8232 -3.49971,-0.0966 -4.30113,-2.53321 -2.82411,-3.99924 0.1708,-0.95643 1.06318,-1.84014 2.67115,-2.12597 -0.002,-0.004 -0.004,-0.009 -0.006,-0.0134 z m 55.88289,0 c 0.0803,0.73991 -0.26307,1.49439 -1.02319,2.01642 1.43243,0.0816 2.10118,0.11863 6.03322,0.34261 0.17006,0.01 0.31848,0.0382 0.47646,0.0584 2.65735,0.0854 5.31539,0.14739 7.97264,0.23564 v -2.65307 z" /></clipPath><clipPath
       clipPathUnits="userSpaceOnUse"
       id="clipPath105"><path
         id="path106"
         style="fill:#ff0000;fill-opacity:1;fill-rule:nonzero;stroke:none;stroke-width:0.264583"
         d="M 162.08049,131.76543 V 384.66214 H 279.64902 V 131.76543 h -39.51851 l 2.87682,0.0956 c 1.28693,0.0428 2.19276,0.42294 2.80707,0.93586 0.61336,0.0231 1.22686,0.0457 1.84019,0.0687 5.05943,0.1898 4.86771,5.30063 -0.19172,5.1108 -0.74521,-0.028 -1.49079,-0.0556 -2.23603,-0.0837 0.0985,0.77517 -0.224,1.57435 -1.07022,2.1146 9.11575,0.0281 18.23173,0.0984 27.34665,0.21756 5.06245,0.0662 4.99613,5.18014 -0.0667,5.1139 -4.26728,-0.0558 -8.53476,-0.0994 -12.80232,-0.13746 0.0537,0.29398 0.0563,0.59182 -0.0248,0.88005 1.08813,0.0127 2.17627,0.0189 3.2644,0.032 2.69349,0.0326 3.92159,1.49417 3.73259,2.84685 3.19288,0.0181 6.38587,0.0471 9.57874,0.0631 5.06293,0.0249 5.0373,5.13885 -0.0253,5.1139 -9.26839,-0.0457 -18.53684,-0.10515 -27.80502,-0.18293 0.1104,0.25568 0.12394,0.52173 0.12454,0.78548 1.24661,0.0485 2.49326,0.0962 3.73982,0.14521 2.29871,0.0903 3.49979,1.19522 3.66438,2.35489 0.65251,0.007 1.30499,0.0163 1.9575,0.0222 2.26894,0.0182 4.53792,0.0366 6.80682,0.0548 5.06281,0.0406 5.02191,5.15502 -0.0408,5.11442 l -6.81302,-0.0548 c -7.82981,-0.0717 -15.65938,-0.17091 -23.48849,-0.2961 -0.23898,0.23835 -0.4822,0.47281 -0.73226,0.70125 -0.93583,0.91966 -1.86751,1.84591 -2.70732,2.85564 -1.30143,1.29186 -2.79873,2.33055 -4.60076,2.79363 -1.48872,0.35926 -2.97765,0.45387 -4.5067,0.38601 h -3.59926 c -2.07468,0 -3.29775,-0.85899 -3.67213,-1.87275 -0.51044,-0.52402 -1.01018,-1.05959 -1.44746,-1.64692 -0.61736,-0.84623 -1.40838,-1.52935 -2.08566,-2.32492 -0.41049,-0.4822 -0.70995,-0.95214 -0.91519,-1.39889 -5.05444,-0.16053 -10.10884,-0.34342 -15.16445,-0.42787 -3.58033,-0.0598 -4.57497,-2.61289 -3.09075,-4.08607 -1.00088,-0.71646 -1.29268,-1.78425 -0.87592,-2.68356 -0.79717,-0.41848 -1.30421,-1.01131 -1.44591,-1.65777 -1.76037,-0.0601 -2.8711,-0.7492 -3.30574,-1.62006 -2.60537,0.0476 -5.21091,0.10282 -7.81554,0.18397 -4.36844,0.1361 -4.94554,-3.64314 -1.77198,-4.78472 -4.41094,-0.12326 -4.5338,-4.7727 0.2868,-5.10409 3.88615,-0.26712 7.77622,-0.45043 11.6675,-0.60513 -0.92511,-1.33574 -0.13461,-3.33994 2.86908,-3.85351 1.12522,-0.19238 2.07309,-0.34712 3.06079,-0.48369 -0.30281,-0.0892 -0.56199,-0.20942 -0.79995,-0.34261 -1.63667,0.0412 -3.27421,0.0423 -4.91029,0.11265 -4.1104,0.17682 -5.29416,-3.04874 -2.88355,-4.45554 z m 53.65926,29.97285 c 0.13308,0.1611 0.26453,0.32385 0.3917,0.49092 0.36135,0.48491 0.76438,0.93638 1.19683,1.35858 0.0394,0.0385 0.0522,0.0762 0.0899,0.11472 h 3.34036 c 1.10306,0.0178 2.1855,0.0627 3.25458,-0.23048 0.8419,-0.245 1.60429,-0.73374 2.18023,-1.39423 0.0377,-0.0456 0.0782,-0.0886 0.11627,-0.13384 -3.52332,-0.0674 -7.04695,-0.11811 -10.56989,-0.20567 z" /></clipPath><clipPath
       clipPathUnits="userSpaceOnUse"
       id="clipPath122"><path
         id="path123"
         style="fill:#ff0000;fill-opacity:1;fill-rule:nonzero;stroke:none;stroke-width:0.264583"
         d="M 124.25428,128.60261 V 371.74126 H 230.87827 V 128.60261 h -20.87263 c 1.43098,0.48054 2.12981,1.44948 2.13527,2.39675 0.12352,0.005 0.247,0.01 0.37052,0.0145 5.05954,0.18603 4.87144,5.29684 -0.1881,5.1108 -4.60579,-0.16935 -9.21074,-0.36009 -13.81621,-0.5364 -0.57721,0.73949 -1.70021,1.28389 -3.37137,1.26297 l -7.13187,-0.0894 c -8.71543,-0.11418 -17.43124,-0.28716 -26.14776,-0.24701 -2.527,0.0116 -3.79223,-1.25684 -3.79666,-2.53318 -0.63143,-0.0156 -1.12069,-0.0243 -1.84124,-0.0243 -5.06295,0 -5.06295,-5.11442 0,-5.11442 0.95851,0 1.39103,-0.006 2.47531,0.032 0.8505,0.0296 5.16446,0.22136 6.90655,0.29818 -0.073,-0.1863 -0.11425,-0.37794 -0.12971,-0.57051 z" /></clipPath><clipPath
       clipPathUnits="userSpaceOnUse"
       id="clipPath216"><path
         id="path217"
         style="fill:#ff0000;fill-opacity:1;fill-rule:nonzero;stroke:none;stroke-width:0.264583"
         d="M -0.10350352,135.2679 V 382.07815 H 105.44923 V 135.2679 H 80.518449 c 0.850331,0.47738 1.287031,1.18067 1.342035,1.8929 3.17183,0.10507 6.344076,0.20341 9.5157,0.3142 4.857197,0.16966 4.836962,4.83856 0.355534,5.05964 0.828045,1.58817 -0.493961,3.61753 -3.756361,3.33674 -1.145593,-0.0986 -2.291837,-0.18989 -3.437517,-0.28783 0.225639,1.35731 -0.949733,2.84783 -3.660241,2.91351 -5.328999,0.12914 -6.526964,0.17226 -8.119917,0.21136 0.633529,0.27003 1.060583,0.67317 1.324467,1.12448 1.115526,0.101 1.93951,0.47101 2.467034,0.97203 0.612447,0.0232 0.891489,0.0337 2.600356,0.10025 5.059088,0.19701 4.860116,5.30781 -0.198953,5.1108 -0.425596,-0.0166 -0.285978,-0.0108 -0.647507,-0.0248 0.0097,0.0642 2.65e-4,0.12877 0.0036,0.19327 3.616552,0.74499 3.272229,4.86079 -1.261938,4.99763 -3.395983,0.10248 -4.225348,0.1211 -5.098397,0.15658 0.09981,0.65459 -0.136596,1.33283 -0.707451,1.8712 4.266293,-0.0383 8.532794,-0.0537 12.797669,-0.0646 2.243042,0.002 4.486269,0.003 6.729306,0.005 5.063004,0.004 5.059336,5.11792 -0.0036,5.11442 -2.237497,-0.002 -4.475263,-0.003 -6.712768,-0.005 -3.349903,0.009 -6.701083,0.0646 -10.0521,0.0868 -0.198549,1.19081 -1.512197,2.26062 -3.891235,2.14509 -1.124448,-0.0546 -0.5539,-0.0236 -1.712556,-0.0935 -1.922227,-0.1501 -3.837887,-0.37132 -5.735568,-0.7183 -0.307039,-0.0529 -0.614675,-0.10225 -0.921906,-0.154 -0.170016,0.22041 -0.325512,0.45017 -0.504881,0.66456 -1.197808,1.62141 -2.497513,3.20191 -4.309814,4.16616 -1.450798,0.72567 -2.958854,1.32579 -4.558895,1.63297 -2.694802,0.51737 -4.191418,-0.70782 -4.210079,-2.0991 -0.07144,-0.058 -0.138528,-0.0775 -0.210323,-0.14055 -0.782894,-0.6872 -1.616035,-1.30534 -2.399337,-1.99213 -0.969504,-0.85005 -1.4615,-1.73819 -1.65313,-2.55127 -0.765603,0.0495 -1.531672,0.0912 -2.297014,0.14625 -5.263878,0.42481 -10.524281,0.8786 -15.758729,1.5844 -4.252182,0.57334 -5.190061,-2.97365 -2.336808,-4.48965 -2.131608,-0.48916 -2.856251,-2.11144 -2.171443,-3.37137 -3.202435,-0.97254 -2.629832,-4.80278 1.751314,-4.88239 0.505534,-0.009 1.011147,-0.0135 1.516703,-0.0217 -0.420034,-0.78079 -0.300908,-1.71987 0.399457,-2.45153 -3.306953,-0.042 -6.613977,-0.0938 -9.921356,-0.0842 -2.034998,0.006 -3.237389,-0.81957 -3.636471,-1.80661 -0.276003,-0.005 -0.551854,-0.0153 -0.827857,-0.0196 -5.0622705,-0.0802 -5.0622811,-5.19376 0,-5.11442 3.011855,0.0472 6.023221,0.11237 9.034592,0.18087 0.02611,-0.72734 0.426728,-1.47987 1.322398,-2.03399 -0.430287,0.007 -0.860618,0.01 -1.290878,0.0186 -2.806272,0.0574 -3.183155,0.10031 -5.448245,0.25269 -3.161226,0.21265 -4.6255858,-1.67687 -4.042129,-3.21272 -1.2604832,-0.34606 -2.0092408,-1.1515 -2.0918649,-2.05 -1.9641158,-1.19383 -1.5474368,-3.96249 2.0923809,-4.51859 1.895697,-0.28963 2.186127,-0.35918 4.515485,-0.5364 2.469118,-0.18784 4.942755,-0.29124 7.416604,-0.39016 -0.09109,-0.37655 -0.05646,-0.76535 0.07958,-1.1374 z M 55.969042,168.62452 c -1.950707,0.0643 -3.900689,0.14321 -5.85029,0.23461 7.94e-4,0.018 0.01109,0.0374 0.01138,0.0553 0.39986,0.32428 0.798079,0.6507 1.185974,0.99116 0.337095,0.29582 0.553278,0.59506 0.782384,0.89348 0.873609,-0.24106 1.708573,-0.59396 2.516642,-1.00821 0.51662,-0.31098 0.955477,-0.71832 1.353921,-1.16633 z" /></clipPath><clipPath
       clipPathUnits="userSpaceOnUse"
       id="clipPath227"><path
         id="path228"
         style="fill:#ff0000;fill-opacity:1;fill-rule:nonzero;stroke:none;stroke-width:0.264583"
         d="M 27.110856,122.37876 V 369.18282 H 106.61143 V 131.46865 c -8.556596,-0.17174 -17.114814,-0.26199 -25.673368,-0.23203 -10.396027,0.055 -20.792601,0.13477 -31.18621,0.37827 -3.960093,0.0928 -4.776412,-2.99025 -2.539897,-4.40541 0.133903,-1.06578 1.136782,-2.14526 3.193087,-2.53835 0.398611,-0.0762 0.802087,-0.11905 1.201994,-0.18655 -0.202628,-0.71584 0.0072,-1.49729 0.655773,-2.10582 z" /></clipPath><clipPath
       clipPathUnits="userSpaceOnUse"
       id="clipPath238"><path
         id="path239"
         style="fill:#ff0000;fill-opacity:1;fill-rule:nonzero;stroke:none;stroke-width:0.264583"
         d="M 43.421682,134.0535 V 382.22698 H 117.71379 V 134.0535 H 97.19256 c 1.130861,0.23003 1.901653,0.73812 2.328024,1.34565 3.904016,0.0967 3.370906,0.0598 9.184966,0.30748 4.97651,0.212 4.84232,5.15805 0.0202,5.11235 -0.63212,0.56299 -1.61225,0.96252 -3.01997,0.94464 -7.466977,-0.0948 -3.63423,-0.049 -11.498526,-0.13642 -8.123706,-0.067 -16.251312,-0.15351 -24.373189,0.0775 -3.811252,0.10842 -4.907272,-2.75471 -3.057695,-4.24057 -1.828413,-0.0534 -3.657142,-0.0947 -5.486487,-0.10748 -3.013244,-0.0211 -4.23273,-1.84048 -3.659209,-3.30316 z" /></clipPath><clipPath
       clipPathUnits="userSpaceOnUse"
       id="clipPath253"><path
         id="path254"
         style="fill:#ff0000;fill-opacity:1;fill-rule:nonzero;stroke:none;stroke-width:0.264583"
         d="M -7.8253183,114.67234 V 360.29301 H 79.544025 V 114.67234 H 66.303489 c 2.444836,0.20865 4.889746,0.41549 7.334435,0.62581 2.044729,0.1759 3.144356,1.12065 3.445785,2.14974 2.610313,1.26204 1.841839,4.66488 -2.291331,4.64881 -14.753102,-0.0574 -7.286038,-0.0326 -22.401734,-0.0739 -12.350902,-0.004 -24.705049,-0.0193 -37.052001,0.34055 -5.060831,0.1475 -5.06081,-4.96618 0,-5.11442 0.178083,-0.005 0.356246,-0.007 0.534334,-0.0119 -0.02347,-0.44105 0.09922,-0.88422 0.412377,-1.27745 -0.771038,-0.0569 -1.542008,-0.11457 -2.313038,-0.17156 -1.343681,-0.0993 -2.31694,-0.53869 -2.945556,-1.1157 z" /></clipPath><clipPath
       clipPathUnits="userSpaceOnUse"
       id="clipPath264"><path
         id="path265"
         style="fill:#ff0000;fill-opacity:1;fill-rule:nonzero;stroke:none;stroke-width:0.264583"
         d="M 50.901331,113.8641 V 361.42418 H 158.77072 V 113.8641 h -37.49694 c 5.6154,0.31355 11.22893,0.66603 16.84135,1.03094 3.57417,0.23239 4.40202,2.83008 2.82205,4.22817 0.27198,1.37825 -0.94612,2.9175 -3.70572,2.96313 -8.0725,0.13346 -16.14515,0.27115 -24.21764,0.40514 -10.48651,0.14241 -20.972696,0.16473 -31.460097,0.14004 -5.062964,-0.0119 -5.062964,-5.12623 0,-5.11441 0.177258,4e-4 0.354494,-4e-4 0.531752,0 -0.07131,-0.27268 -0.129305,-0.54883 -0.08837,-0.81804 -0.769887,-0.86654 -0.780282,-2.0114 0.04806,-2.83497 z" /></clipPath><clipPath
       clipPathUnits="userSpaceOnUse"
       id="clipPath268"><path
         id="path268"
         style="fill:#ff0000;fill-opacity:1;fill-rule:nonzero;stroke:none;stroke-width:0.264583"
         d="M 131.28712,141.45415 V 367.51838 H 209.9092 V 141.45415 h -34.19688 c 2.05019,0.045 4.10038,0.0881 6.15052,0.13332 2.08415,0.0456 4.16817,0.0909 6.25234,0.13643 5.06176,0.11063 4.95014,5.22401 -0.11162,5.11338 -2.08454,-0.0456 -4.16883,-0.0914 -6.25337,-0.13694 -7.89973,-0.17436 -15.79997,-0.38827 -23.70243,-0.3235 -4.49804,0.0369 -4.99623,-3.9935 -1.50172,-4.92269 z" /></clipPath><clipPath
       clipPathUnits="userSpaceOnUse"
       id="clipPath278"><path
         id="path279"
         style="fill:#ff0000;fill-opacity:1;fill-rule:nonzero;stroke:none;stroke-width:0.264583"
         d="M 28.299222,106.83973 V 338.01476 H 120.94886 V 106.83973 H 80.135333 c 2.034577,0.0614 3.982879,0.12316 7.183541,0.22169 3.199595,0.12311 6.399305,0.24637 9.598898,0.36948 1.412967,0.0544 2.415283,0.49233 3.016869,1.09089 1.313079,0.0143 2.099169,0.0259 6.045629,0.0687 5.06266,0.055 5.00738,5.16888 -0.0553,5.1139 -1.84067,-0.02 -1.70833,-0.02 -2.81998,-0.032 1.51145,1.53449 0.40635,4.11637 -3.211174,4.01268 -2.981463,-0.0855 -5.963206,-0.17086 -8.944671,-0.25632 -11.329138,-0.33337 -22.660798,-0.61486 -33.98139,-1.18132 -3.17568,-0.1589 -4.354441,-2.23253 -3.541387,-3.69228 -0.466884,-0.20422 -0.84636,-0.46745 -1.131197,-0.76998 -4.540824,0.0689 -5.297517,-4.08333 -1.362189,-4.94543 z" /></clipPath><clipPath
       clipPathUnits="userSpaceOnUse"
       id="clipPath289"><path
         id="path290"
         style="fill:#ff0000;fill-opacity:1;fill-rule:nonzero;stroke:none;stroke-width:0.264583"
         d="M 32.423691,112.94919 V 361.51077 H 175.88935 V 112.94919 h -47.024 c 0.99712,0.0472 1.99448,0.0882 2.99155,0.13643 5.05707,0.24453 4.81006,5.35339 -0.24702,5.10873 -1.55441,-0.0752 -3.10923,-0.14061 -4.66379,-0.21291 -0.009,0.0221 -0.009,0.0458 -0.0191,0.0677 2.86706,1.11871 2.29047,4.67321 -1.942,4.75216 -9.91357,0.18494 -19.85411,0.4296 -29.746507,-0.41237 -3.492664,-0.39606 -7.027534,-0.80715 -10.300147,-2.17765 -1.207661,-0.50574 -1.919028,-1.19066 -2.298568,-1.89239 -2.418664,-0.0836 -4.83753,-0.15833 -7.25692,-0.20567 -5.062005,-0.0991 -5.062064,-5.21038 0,-5.11442 1.527514,0.029 3.054406,0.0954 4.581631,0.14056 0.0839,-0.0662 0.173405,-0.12945 0.268719,-0.19017 z" /></clipPath><clipPath
       clipPathUnits="userSpaceOnUse"
       id="clipPath308"><path
         id="path309"
         style="fill:#ff0000;fill-opacity:1;fill-rule:nonzero;stroke:none;stroke-width:0.264583"
         d="M 55.228226,113.31816 V 363.76075 H 154.66247 V 123.09586 c -3.72214,-0.12972 -7.4456,-0.21638 -11.16831,-0.3266 -0.4542,0.90892 -1.62291,1.65463 -3.51917,1.69964 -8.86738,0.21049 -17.73473,0.42489 -26.60406,0.53744 -0.11334,0.001 -0.22669,0.003 -0.34003,0.004 -0.17584,0.0156 -0.34956,0.0482 -0.52555,0.0625 -3.0044,0.18154 -4.49137,0.34147 -7.46466,0.2558 -0.92998,-0.0268 -1.85682,-0.0904 -2.77968,-0.18501 -7.644963,0.0932 -15.290209,0.17837 -22.935546,0.22583 -5.062884,0.0314 -5.062881,-5.08232 0,-5.1139 0.533646,-0.003 1.06729,-0.0108 1.600936,-0.0145 -0.568132,-1.32377 0.278527,-2.9351 2.731614,-3.24218 -0.445244,-0.30512 -0.757428,-0.68181 -0.923457,-1.09244 -2.194113,-0.0892 -4.389736,-0.11679 -6.585127,-0.0351 -2.619373,0.0973 -3.870344,-1.22722 -3.777549,-2.55333 z m 62.383784,0 3.21841,0.13694 c 1.37732,0.0586 2.32781,0.49269 2.93161,1.07074 2.65413,0.28658 4.3646,0.47728 12.76666,1.42265 1.57936,0.17771 2.54518,0.81606 3.05563,1.56941 5.02676,0.13303 10.05272,0.28624 15.07815,0.46096 v -4.6607 z" /></clipPath><clipPath
       clipPathUnits="userSpaceOnUse"
       id="clipPath315"><path
         id="path316"
         style="fill:#ff0000;fill-opacity:1;fill-rule:nonzero;stroke:none;stroke-width:0.264583"
         d="M 61.650166,131.93881 V 356.77005 H 149.24689 V 131.93881 h -30.92731 c 0.0876,0.1156 0.16542,0.23464 0.22685,0.3576 2.84564,-0.0926 5.69217,-0.15606 8.53747,-0.25942 0.15811,-0.006 0.31185,-0.006 0.46044,-0.002 v 5e-4 c 4.60606,0.13288 4.62711,4.93485 -0.27441,5.11287 -6.99382,0.25401 -13.98826,0.48973 -20.98528,0.6382 -4.94023,0.14888 -9.894077,0.22819 -14.820282,0.64544 -3.107995,0.26325 -4.587796,-1.53721 -4.092774,-3.06906 -1.334852,-0.81503 -1.542976,-2.3515 -0.45062,-3.42408 z" /></clipPath><clipPath
       clipPathUnits="userSpaceOnUse"
       id="clipPath333"><path
         id="path334"
         style="fill:#ff0000;fill-opacity:1;fill-rule:nonzero;stroke:none;stroke-width:0.264583"
         d="M 58.473694,99.495849 V 341.941 H 149.19632 V 99.495849 h -24.78918 c 1.64978,0.106863 3.17743,0.198533 9.34103,0.612881 0.80424,0.0541 1.47048,0.22986 2.00401,0.48421 3.05696,0.86668 3.06702,3.83075 0.37465,4.63589 2.18208,1.37267 1.31279,4.46135 -2.62102,4.4695 -7.03073,0.0146 -14.06156,0.0286 -21.09226,0.0532 -6.86654,0.0278 -13.738713,-0.0127 -20.601841,0.22428 -2.178396,0.0752 -3.510631,-0.82092 -3.920689,-1.88154 -3.722946,-0.35062 -3.858693,-4.37683 0.470256,-5.0121 -0.279955,1.8e-4 -0.559768,-0.004 -0.839743,-0.003 -3.23755,0.0139 -4.401012,-2.07135 -3.497978,-3.583238 z" /></clipPath><clipPath
       clipPathUnits="userSpaceOnUse"
       id="clipPath348"><path
         id="path349"
         style="fill:#ff0000;fill-opacity:1;fill-rule:nonzero;stroke:none;stroke-width:0.264583"
         d="M 66.158002,122.5947 V 358.34878 H 144.08296 V 131.53782 c -15.52935,-0.47483 -31.05776,-0.99563 -46.59302,-1.23558 -5.763866,-0.14157 -11.5272,-0.30449 -17.289901,-0.48524 -3.77177,-0.11831 -4.72807,-2.98532 -2.877343,-4.37493 -0.161013,1e-4 -0.237551,-0.009 -0.442351,-0.009 -2.717997,0 -3.962297,-1.47323 -3.762044,-2.83858 z m 72.394548,0 c 0.67782,1.04976 0.33379,2.40449 -1.05265,3.14037 -0.0606,0.16826 -0.17978,0.32073 -0.28525,0.47698 2.2894,0.0709 4.57891,0.13873 6.86831,0.20877 v -3.82612 z" /></clipPath><clipPath
       clipPathUnits="userSpaceOnUse"
       id="clipPath352"><path
         id="path352"
         style="fill:#ff0000;fill-opacity:1;fill-rule:nonzero;stroke:none;stroke-width:0.264583"
         d="M 56.312091,119.91102 V 360.00283 H 153.43226 V 119.91102 h -25.32248 c 2.38955,1.29072 1.6157,4.52957 -2.40657,4.59042 -8.8868,0.13445 -4.38604,0.0863 -13.50409,0.14004 -7.60275,-0.0226 -15.212275,-0.13968 -22.812045,0.10284 -4.454025,0.14213 -5.343574,-3.7696 -2.043286,-4.8333 z" /></clipPath><clipPath
       clipPathUnits="userSpaceOnUse"
       id="clipPath361"><path
         id="path362"
         style="fill:#ff0000;fill-opacity:1;fill-rule:nonzero;stroke:none;stroke-width:0.264583"
         d="m 117.18331,120.27327 v 236.69667 h 76.1106 V 120.27327 h -3.95221 c 4.06399,0.7183 3.62135,5.15028 -1.09761,5.01417 -2.92693,-0.0844 -5.85387,-0.16142 -8.78086,-0.24133 -0.52703,0.84402 -1.69476,1.49293 -3.53105,1.44332 -6.74893,-0.18234 -13.49754,-0.36634 -20.24424,-0.62115 -6.09502,-0.22766 -12.19265,-0.5262 -18.29346,-0.47749 -1.79205,0.0143 -2.91669,-0.62935 -3.4401,-1.45314 -0.34624,-0.001 -0.69245,-0.008 -1.0387,-0.008 -3.28241,9.8e-4 -4.42308,-2.14383 -3.4494,-3.65611 z" /></clipPath><clipPath
       clipPathUnits="userSpaceOnUse"
       id="clipPath368"><path
         id="path369"
         style="fill:#ff0000;fill-opacity:1;fill-rule:nonzero;stroke:none;stroke-width:0.264583"
         d="M 63.050319,122.59303 V 359.0897 H 146.4473 V 122.59303 h -32.07608 c 7.4281,0.45247 3.89623,0.22736 11.23445,0.71416 3.46428,0.22982 4.39298,2.70144 3.00602,4.1243 -0.32689,1.06199 -1.5121,1.98907 -3.66592,1.97766 -8.58774,-0.0455 -4.22411,0.005 -13.09119,-0.15917 -7.7684,-0.26038 -15.535285,-0.60423 -23.277652,-1.30534 -4.619033,-0.41829 -4.965957,-4.48658 -1.112076,-5.0183 0.05624,-0.11439 0.121851,-0.22638 0.201536,-0.33331 z" /></clipPath><clipPath
       clipPathUnits="userSpaceOnUse"
       id="clipPath375"><path
         id="path376"
         style="fill:#ff0000;fill-opacity:1;fill-rule:nonzero;stroke:none;stroke-width:0.264583"
         d="m 64.84115,127.43065 v 230.62882 h 79.86128 V 127.43065 h -13.43639 c 2.47875,1.36331 1.58693,4.67526 -2.50269,4.54133 -5.55236,-0.18184 -6.88355,-0.22607 -8.36022,-0.27027 -0.55171,0.76875 -1.65937,1.35854 -3.35431,1.37717 -9.31704,0.1024 -18.633687,0.13092 -27.951269,0.10853 -1.934138,-0.005 -3.117036,-0.75589 -3.573425,-1.67949 -0.04866,0.003 -0.110074,0.005 -0.157613,0.008 -0.219319,0.014 -0.435306,0.0576 -0.653191,0.0863 -4.05838,0.5344 -5.550581,-2.56587 -3.327962,-4.17132 z" /></clipPath></defs><g
     id="layer1"
     transform="translate(91.17461,12.012528)"><path
       style="fill:#000000"
       d="m 62.079946,310.94552 c -0.48507,-0.14687 -2.46945,-0.46659 -4.40972,-0.71048 -6.27635,-0.78892 -14.27364,-3.14706 -17.81528,-5.25314 -2.33402,-1.38796 -3.97151,-2.5509 -7.05556,-5.01084 -3.47357,-2.77065 -4.61015,-3.56578 -6.70277,-4.68912 -2.10016,-1.12739 -5.04714,-3.11854 -6.57299,-4.44108 -0.80174,-0.69492 -2.03833,-1.66036 -2.74797,-2.14543 -3.97866,-2.71955 -13.7859597,-11.41017 -21.1061297,-18.70294 -4.60816,-4.59091 -8.3784703,-8.50015 -8.3784703,-8.68719 0,-0.18704 -0.601,-0.96672 -1.33555,-1.73261 -1.58443,-1.65204 -5.08285,-5.73552 -6.68442,-7.8023 -0.62689,-0.80898 -1.68324,-2.71398 -2.34744,-4.23333 -1.10042,-2.51719 -1.42203,-2.91908 -3.6222,-4.52635 -4.12777,-3.01544 -7.49349,-6.68817 -9.54821,-10.41917 -2.57197,-4.67026 -4.28676,-8.76282 -4.89607,-11.68508 -0.329,-1.5779 -0.63307,-6.26148 -0.82914,-12.77148 -0.33686,-11.18466 -0.56533,-12.60726 -2.39998,-14.94419 -5.30665,-6.75947 -13.77372,-28.60708 -15.2139,-39.25648 -1.03995,-7.68987 -0.76367,-26.04192 0.49391,-32.80833 1.27147,-6.84115 4.96592,-18.15844 8.31309,-25.465688 1.14762,-2.505376 2.08658,-4.768538 2.08658,-5.02925 0,-0.748625 -0.8078,-0.900413 -6.84772,-1.286712 -8.24009,-0.527016 -8.46215,-0.606359 -16.07501,-5.743604 -6.19843,-4.182768 -11.44898,-9.172597 -13.02895,-12.381985 -4.13994,-8.409412 -7.31388,-25.147583 -6.36015,-33.541046 1.03628,-9.119961 4.7207,-17.316918 10.22033,-22.737829 3.11922,-3.074572 4.67131,-4.9912724 6.43799,-7.9503594 4.01342,-6.72226496 13.74679,-12.378995 27.4174,-15.934147 4.07316,-1.0592566 5.5029,-1.2624046 9.87778,-1.4034996 4.61927,-0.148977 5.44388,-0.0801 8.50419,0.7102876 2.04663,0.528587 5.60972,1.920237 8.99584,3.513541 6.37858,3.001378 8.39664,3.775684 12.1333003,4.655393 1.45521,0.342594 3.59585,1.11878604 4.75699,1.72486904 5.33985,2.78726096 10.71395,10.41906236 12.8047997,18.18419136 0.81242,3.017209 0.91061,4.039723 0.9173,9.552501 0.006,5.048981 -0.13898,6.897692 -0.79651,10.14842 -0.4422097,2.186145 -0.7519997,4.113522 -0.6884297,4.283061 0.0636,0.169539 1.6236997,-0.156593 3.4669597,-0.724738 8.39561,-2.587758 19.81286,-3.315461 31.92639,-2.034898 6.79513,0.718337 13.75896,3.222483 19.56672,7.036058 l 3.04855,2.001789 3.68542,-2.259052 c 7.60321,-4.660548 12.04003,-6.334643 18.14931,-6.84808 7.00851,-0.589011 27.006804,0.456931 33.954854,1.775891 1.79476,0.340702 3.2632,0.488037 3.2632,0.327412 0,-0.160625 -0.54191,-1.603591 -1.20425,-3.206592 -2.10365,-5.091317 -2.47019,-6.957953 -2.47733,-12.615937 -0.005,-4.288893 0.12414,-5.571215 0.80191,-7.9375 2.11855,-7.396411 7.72611,-14.4526914 13.8305,-17.40364336 1.64114,-0.79335 3.93639,-2.17549904 5.10056,-3.07144104 5.90391,-4.543647 10.81954,-7.217245 15.51058,-8.4361606 5.81849,-1.511872 13.84411,-1.361007 19.22314,0.361355 1.85613,0.594328 4.20757,0.9683156 7.776,1.2367396 6.21146,0.467239 9.78701,1.294385 13.38936,3.097421 4.37874,2.191627 6.08705,3.707147 12.3842,10.986562 3.273,3.783542 6.83665,7.8901894 7.91923,9.1258824 3.90058,4.45227 6.56597,9.188814 7.75245,13.77654 1.52178,5.884235 2.55283,20.326583 1.95048,27.321334 -0.80226,9.316117 -3.2962,14.451002 -10.54582,21.713198 -4.15252,4.159722 -6.64566,5.957206 -10.685,7.703579 -3.84874,1.663974 -6.52759,2.154895 -14.88939,2.728606 -4.05062,0.277917 -7.45177,0.592303 -7.5581,0.698637 -0.10633,0.106333 0.4068,1.739896 1.14031,3.63014 4.49845,11.592564 6.47435,20.038154 8.14965,34.834034 0.51802,4.57504 0.74959,14.02534 0.46976,19.17033 -0.32966,6.06105 -0.91358,9.89628 -2.45237,16.10745 -1.98393,8.00786 -4.3608,14.42344 -9.85324,26.59555 -2.42729,5.37925 -2.48947,5.77479 -2.82158,17.94938 -0.16551,6.06708 -0.48661,12.25833 -0.71356,13.75833 -1.32182,8.73631 -8.447,19.95927 -15.15583,23.87214 -4.66794,2.72253 -4.94242,3.07772 -9.96725,12.89821 -1.14169,2.23132 -2.8509,5.24757 -3.79825,6.70278 -0.94734,1.45521 -2.1884,3.43958 -2.7579,4.40972 -4.07856,6.94775 -16.09136,20.48639 -25.98632,29.28703 -7.85352,6.98498 -9.57734,7.99768 -18.61594,10.93633 -5.794424,1.8839 -8.526104,2.4828 -13.612414,2.98441 -4.16746,0.41099 -25.52662,0.43691 -26.86192,0.0326 z m 30.51527,-5.42544 c 3.04038,-0.52376 5.33178,-1.13477 7.23195,-1.92844 0.485074,-0.20261 1.834444,-0.63938 2.998614,-0.97061 4.67291,-1.32954 8.86539,-3.64887 12.35891,-6.83712 0.97657,-0.89124 3.41373,-3.04159 5.41592,-4.77857 2.00219,-1.73698 5.5356,-5.30885 7.85203,-7.9375 2.31643,-2.62865 5.15323,-5.81123 6.304,-7.07241 2.75334,-3.01753 6.26277,-7.76366 9.13693,-12.35676 1.27813,-2.04254 2.5218,-4.02691 2.7637,-4.40972 0.50722,-0.80266 1.53148,-2.7012 3.611,-6.69324 0.80858,-1.55223 1.84877,-3.47467 2.31153,-4.27209 1.68972,-2.91172 3.17185,-8.29671 4.26155,-15.48347 0.75163,-4.9571 1.03564,-19.88081 0.5144,-27.02943 -1.69241,-23.21071 -7.10123,-44.24935 -14.63021,-56.90702 -6.00863,-10.10168 -13.58634,-16.1726 -24.20242,-19.38991 -4.37973,-1.32732 -5.74267,-1.42491 -10.43937,-0.74747 -2.3098,0.33316 -4.30914,0.67234 -4.44297,0.75372 -0.43033,0.2617 -12.581664,0.91123 -20.217784,1.08072 -7.46274,0.16564 -9.57949,0.002 -19.48717,-1.50935 -1.79267,-0.2734 -5.04704,-0.49803 -7.23194,-0.49918 -4.95838,-0.003 -9.88034,-0.7362 -13.32116,-1.98549 -2.43596,-0.88444 -3.07958,-0.96265 -8.11389,-0.98584 -5.98215,-0.0276 -8.80011,0.415 -14.72298,2.31227 -6.66425,2.13474 -13.2693097,5.78174 -18.7505297,10.35313 -9.08973,7.58093 -14.3505803,17.72376 -19.7664203,38.1094 -3.7905,14.26774 -4.02311,16.5372 -3.81843,37.25476 0.12275,12.42458 0.27407,16.32805 0.73204,18.8846 0.65873,3.67721 3.22809,13.83169 3.90969,15.45169 0.46044,1.09432 4.52796,6.13372 5.99804,7.43118 0.43969,0.38805 1.3291003,1.4993 1.9764803,2.46944 2.5931,3.88595 23.8796797,23.9296 27.3020897,25.70791 0.95195,0.49464 2.5867,1.73317 4.73161,3.58478 1.84355,1.59146 3.05463,2.40485 7.62502,5.12114 1.73476,1.03101 4.01697,2.65598 5.07159,3.61104 1.05461,0.95507 3.20714,2.56355 4.78339,3.57442 4.94814,3.17329 9.44856,4.67461 17.48201,5.8319 2.80011,0.40339 5.18136,0.82526 5.29167,0.93749 0.11031,0.11223 6.07431,0.12912 13.25334,0.0375 9.53636,-0.12167 13.90812,-0.31389 16.22777,-0.71349 z m 72.171404,-68.92002 c 7.07015,-6.6133 13.22662,-25.04558 11.11463,-33.27686 -1.02698,-4.00254 -1.69793,-4.01693 -4.86045,-0.10422 -6.39204,7.90833 -6.64391,8.52839 -7.52992,18.5373 -0.63826,7.21026 -1.10377,11.06585 -1.63611,13.55123 -0.72512,3.38538 0.22402,3.8067 2.91185,1.29255 z m -190.242424,-0.58457 c 0.0642,-0.75977 -0.48298,-3.37648 -1.32214,-6.32273 -1.46848,-5.15577 -2.28427,-9.0604 -2.6717,-12.78761 -0.41618,-4.00385 -1.26548,-7.99542 -2.10523,-9.89425 -0.89416,-2.02186 -3.82592,-5.45158 -4.66006,-5.45158 -1.75001,0 -2.19835,7.52152 -0.83861,14.06864 1.81241,8.72667 5.07337,16.37094 8.47648,19.87039 1.13625,1.16842 2.27872,2.05441 2.53882,1.96888 0.2601,-0.0855 0.5222,-0.73881 0.58244,-1.45174 z m 191.706244,-34.0152 c 13.13076,-17.19838 20.2317,-33.71861 22.55577,-52.4757 1.0283,-8.29921 0.30639,-24.57695 -1.50664,-33.97184 -1.47328,-7.63437 -2.59183,-8.09518 -3.48545,-1.4359 -1.35673,10.11048 -3.01086,17.85072 -4.51649,21.13415 -1.02333,2.23167 -0.98613,0.91849 0.11798,-4.16504 1.40461,-6.46702 1.90993,-10.77158 1.91468,-16.30998 0.009,-10.12562 -2.09198,-18.743958 -6.48219,-26.594389 -0.73409,-1.312664 -1.39161,-2.32975 -1.46117,-2.260192 -0.0696,0.06956 -0.3756,3.613731 -0.6801,7.875941 -0.80422,11.25716 -1.74115,16.13123 -3.69359,19.21475 -0.42999,0.6791 -0.69604,0.91722 -0.59121,0.52917 0.83136,-3.07769 1.00074,-4.97314 1.17019,-13.09513 0.2888,-13.842201 -0.51604,-20.881002 -2.42791,-21.233608 -0.46507,-0.08577 -0.64023,0.255833 -0.81402,1.5875 -0.53597,4.106899 -4.43388,15.328641 -5.68518,16.367128 -0.69651,0.578052 -0.65664,0.356428 0.91721,-5.098267 1.92794,-6.681904 2.57837,-10.764525 2.41442,-15.154821 -0.10971,-2.937866 -0.29291,-3.909206 -1.00917,-5.350766 -0.79749,-1.605053 -3.3767,-4.05954 -4.26581,-4.05954 -0.18547,0 -1.65854,2.027944 -3.27349,4.506542 -3.11865,4.786457 -6.28593,8.756649 -7.75218,9.717373 -0.77614,0.508547 -0.70557,0.305547 0.55192,-1.58764 1.72765,-2.601025 5.58098,-9.933868 6.63209,-12.620774 0.96011,-2.454297 0.60943,-3.544754 -1.13856,-3.540414 -1.07417,0.0027 -8.16372,1.38899 -13.23847,2.588709 -1.21362,0.286913 -2.12824,0.394882 -2.03247,0.23993 0.34424,-0.556996 6.94532,-3.240919 9.00365,-3.660781 2.65062,-0.540679 3.11716,-0.955178 2.45909,-2.184794 -0.54276,-1.014144 -2.93094,-2.861241 -5.1429,-3.977677 -2.8887,-1.458001 -13.70652,-4.508473 -23.02638,-6.49311 -2.11801,-0.451023 -1.85717,-0.470373 4.49791,-0.333682 4.47484,0.09625 6.74631,0.02312 6.74631,-0.217201 0,-0.788985 -9.143,-4.032933 -15.52222,-5.507306 -5.6509,-1.306041 -9.80066,-1.728667 -16.75695,-1.706585 -12.688484,0.04028 -22.149164,2.917393 -27.218534,8.277503 -4.16819,4.407249 -5.20288,8.903992 -6.13728,26.672463 -0.36274,6.897801 -0.26814,9.230222 0.37436,9.230222 0.165,0 1.40637,-1.468438 2.75862,-3.263195 4.98997,-6.622919 10.08445,-10.697909 18.20719,-14.563614 8.03281,-3.822914 8.98199,-3.772541 2.394,0.127051 -10.71821,6.344367 -17.73318,13.434066 -22.61427,22.855185 -0.81564,1.574304 -1.86857,3.224601 -2.33983,3.667326 l -0.85684,0.804956 -0.31296,-0.845105 c -0.17213,-0.464807 -0.40363,-2.295568 -0.51446,-4.068357 -0.60747,-9.717073 -6.50427,-18.280639 -17.77719,-25.816712 -3.59576,-2.403807 -4.34425,-3.143331 -2.33212,-2.304169 5.18902,2.164092 9.21173,5.000147 14.82725,10.4534 2.37548,2.306832 4.5186,4.125062 4.7625,4.040512 0.6946,-0.240791 0.46811,-4.019277 -0.38359,-6.399418 -0.90665,-2.533701 -2.98301,-6.027601 -5.26545,-8.860219 -5.57689,-6.921166 -4.10852,-6.847886 2.67435,0.133466 4.82004,4.961077 4.79002,4.973095 4.79239,-1.918874 10e-4,-4.312728 -0.0615,-4.743629 -0.96227,-6.584756 -1.97439,-4.035509 -8.01271,-8.283376 -13.64114,-9.59633 -4.12171,-0.961479 -11.33736,-1.342957 -21.86017,-1.155705 -6.8751,0.122341 -11.0848,0.356913 -13.27929,0.739946 -3.26841,0.570481 -9.6968897,2.771646 -9.1058697,3.117925 0.17847,0.104568 1.99137,0.30025 4.0286597,0.43485 6.38373,0.421758 14.32507,1.23193 16.28539,1.661426 1.81515,0.39769 1.84471,0.422598 0.82433,0.694531 -0.58208,0.155126 -6.13833,0.444708 -12.34722,0.643516 -12.1235997,0.388196 -14.0531097,0.643636 -18.6472997,2.468642 -3.2596,1.294856 -5.20126,2.497977 -5.07928,3.147315 0.0498,0.264907 1.40037,0.954415 3.00135,1.532239 2.87137,1.036326 3.4607,1.690278 1.52326,1.690278 -1.59587,0 -7.5210303,1.618094 -9.7002403,2.649022 -1.62427,0.768405 -1.98516,1.092573 -1.89759,1.704497 0.13484,0.942202 5.9597803,5.860504 11.8825803,10.033083 2.40136005,1.691744 4.78261,3.440551 5.29167,3.886237 0.8954,0.783943 0.86483,0.780676 -0.93872,-0.100312 -3.75407,-1.833777 -11.3840703,-7.292884 -14.9548203,-10.699874 -1.3877,-1.324053 -1.92401,-1.600358 -3.37738,-1.740008 -2.01877,-0.193978 -3.87427,0.599523 -5.5563,2.37614 -1.04397,1.102671 -1.0575,1.166562 -0.99696,4.706614 0.0893,5.223998 1.41266,9.909631 5.22488,18.500285 0.71197,1.60439 1.23145,3.106185 1.15441,3.337324 -0.21746,0.652375 -3.02129,-3.710371 -4.67622,-7.276172 -1.63566,-3.524271 -2.61831,-6.335618 -3.69867,-10.581792 -1.08929,-4.281257 -2.00153,-4.854427 -3.28909,-2.066571 -0.71074,1.538927 -0.77391,2.222762 -0.77391,8.378472 0,7.501909 0.53533,10.798742 2.85914,17.608031 1.77887,5.21252 2.26736,6.9586 1.87975,6.71904 -0.60449,-0.37359 -2.34869,-4.14561 -3.67435,-7.946148 -1.99974,-5.733088 -2.90879,-9.6655 -3.55077,-15.360196 -0.32577,-2.889733 -0.64379,-5.3103 -0.70672,-5.379037 -0.0629,-0.06874 -0.84459,1.328895 -1.73703,3.105851 -1.92257,3.82806 -3.47,8.352894 -4.10802,12.012182 -0.51897,2.976568 -0.35812,3.302339 -1.3663,-2.767127 -0.23668,-1.424906 -0.55838,-2.456781 -0.71488,-2.293055 -0.5744,0.600919 -4.29566,10.154863 -4.97407,12.77039 -0.51391,1.98134 -0.79293,4.79307 -1.05176,10.59904 -0.19377,4.34627 -0.26614,8.12685 -0.16083,8.40128 0.29706,0.7741 -0.23245,16.32836 -0.55586,16.32836 -0.34539,0 -1.19211,-2.90261 -1.70478,-5.84409 -0.20513,-1.17696 -0.60178,-5.4991 -0.88144,-9.60474 -0.48962,-7.18801 -0.85214,-9.08356 -1.68414,-8.80622 -0.96043,0.32014 -2.10318,5.94154 -2.76888,13.62061 -0.60516,6.98081 -0.23658,22.60834 0.67099,28.44972 1.3443,8.65233 3.35436,15.24338 6.77791,22.225 2.42417,4.94359 4.43418,8.02024 9.71873,14.87615 2.11901,2.7491 4.79342,6.51942 5.94312,8.37847 1.1497,1.85906 2.18189,3.3801 2.29375,3.3801 0.11186,0 0.88815,-3.29406 1.72508,-7.32013 0.83693,-4.02608 2.23806,-10.46897 3.11361,-14.31754 1.81367,-7.97217 1.861,-7.63222 -1.2853,-9.23177 -2.88697,-1.4677 -6.92268,-5.64295 -8.59168,-8.88873 -1.46635,-2.85167 -0.24814,-2.21773 4.60179,2.39473 3.79427,3.60849 5.21513,4.35145 6.75043,3.52979 1.6095,-0.86138 3.28299,-4.46331 5.55273,-11.9514 l 1.24438,-4.10533 -0.76201,-0.57479 c -0.41911,-0.31613 -1.57739,-0.78018 -2.57397,-1.03122 -3.76492,-0.94837 -7.82718,-3.71036 -12.03363,-8.18184 -2.54124,-2.70136 -4.98594,-6.81792 -5.58858,-9.41049 -0.18855,-0.8111 -0.17877,-0.81433 0.53432,-0.17639 0.39951,0.35741 1.66023,1.87309 2.8016,3.36818 5.72371,7.49752 10.38266,10.52331 17.08514,11.09604 3.13803,0.26815 3.76047,-0.0544 4.9477,-2.564 0.51007,-1.0782 1.8621303,-2.9596 3.0045903,-4.18088 2.88675,-3.08595 2.77297,-4.02758 -0.57737,-4.7784 -2.4710303,-0.55377 -4.6031403,-1.56344 -6.7931603,-3.21692 -2.05955,-1.55497 -2.25934,-2.15686 -0.37465,-1.12867 1.71074,0.9333 11.3630003,0.92554 14.9376403,-0.012 2.32552005,-0.60993 8.29028,-3.30646 8.29028,-3.74785 0,-0.22588 -5.71419995,-2.24238 -7.97964,-2.81595 -1.8674,-0.47279 -3.56685,-1.74823 -2.89801,-2.17497 0.25889,-0.16518 6.42383,-0.26508 13.69987,-0.222 13.8676497,0.0821 15.3625597,-0.0567 15.1034897,-1.40189 -0.0645,-0.33498 -0.51262,-0.72221 -0.99581,-0.86052 -5.23209,-1.49765 -11.38856,-4.00495 -16.0479597,-6.53571 -2.12002,-1.15149 -2.34017,-1.35631 -1.55586,-1.44745 1.34113,-0.15586 9.9132097,1.79732 19.3711397,4.41379 4.55965,1.26139 9.40153,2.49164 10.75972,2.73388 2.93398,0.5233 7.23317,1.69223 9.09856,2.47386 1.33196,0.55811 7.39088,1.60984 9.0695,1.57431 0.81337,-0.0172 0.83127,-0.0513 0.23018,-0.43889 -14.53251,-9.36985 -16.58716,-11.23497 -8.48432,-7.7017 4.27074,1.86227 6.05507,2.96169 9.90029,6.10005 1.9533,1.59423 2.79549,2.06394 3.70417,2.0659 1.06302,0.002 7.41046,0.7984 13.87607,1.74038 1.35819,0.19788 4.81633,0.36292 7.68475,0.36676 l 5.21531,0.007 3.48234,-2.10352 c 4.42199,-2.67112 12.372234,-6.76418 14.634704,-7.53446 l 1.73656,-0.59122 -0.85461,0.93325 c -0.99509,1.08665 -6.717964,4.88884 -9.416944,6.25647 -1.02276,0.51825 -2.37213,1.26913 -2.99861,1.66862 l -1.13906,0.72635 5.11528,-0.18774 c 6.265594,-0.22995 10.131334,-0.90326 15.875004,-2.76502 12.34934,-4.00293 21.5285,-8.01126 29.63333,-12.9402 0.93575,-0.56908 -3.13017,3.31144 -5.26347,5.02345 -2.39514,1.92215 -7.27163,5.04485 -11.31709,7.24699 -2.23132,1.21461 -4.44918,2.59118 -4.92858,3.05903 -0.82202,0.80223 -0.83733,0.88495 -0.26898,1.4533 1.29729,1.29728 6.83332,0.99162 15.07534,-0.83238 6.79502,-1.50376 11.5915,-3.25957 15.69861,-5.74666 l 2.46945,-1.49539 -2.29306,2.35085 c -2.81586,2.88684 -6.44012,5.3612 -10.90071,7.44216 -1.86273,0.86901 -4.02179,1.87895 -4.7979,2.24431 l -1.41111,0.66431 2.35431,1.08283 c 4.14727,1.90747 7.02396,2.52484 12.81513,2.75028 2.91042,0.1133 5.52959,0.33273 5.82038,0.48763 1.03253,0.55 -4.27116,2.40674 -9.50149,3.32632 -1.62137,0.28507 -3.02057,0.59093 -3.10934,0.67969 -0.33075,0.33075 5.42378,8.09845 7.20681,9.72804 3.17848,2.90495 6.38909,3.49483 10.59989,1.94751 l 2.38931,-0.87799 -1.41111,1.23131 c -2.00295,1.74775 -4.01403,2.64049 -6.58765,2.92434 -2.0716,0.22849 -2.2395,0.31255 -2.33906,1.17104 -0.28647,2.47024 2.97502,12.09403 4.7289,13.95368 1.11332,1.18047 1.30165,1.25171 2.87103,1.08617 1.12984,-0.11918 2.63656,-0.72613 4.60349,-1.85442 1.60817,-0.92249 3.01009,-1.5911 3.11539,-1.4858 0.4036,0.4036 -0.6425,1.65772 -2.76944,3.32014 -2.96412,2.31677 -4.05012,2.97378 -5.73194,3.46771 -1.20577,0.35411 -1.43454,0.57585 -1.52548,1.47855 -0.11965,1.18784 4.08245,27.04545 4.70285,28.93895 0.28555,0.87151 0.83625,0.38904 3.42268,-2.99861 z m 2.09241,-14.83 c 4.95377,-5.25126 8.24355,-11.45667 12.85081,-24.24014 0.65029,-1.80431 1.05771,-2.55043 1.1296,-2.06867 0.27559,1.84692 -3.19732,14.49838 -4.89151,17.81928 -1.62175,3.1789 -6.34723,8.21961 -9.49847,10.13211 -2.05255,1.24571 -1.95822,0.86741 0.40957,-1.64258 z m -201.530704,-0.41894 c -4.23892,-2.54342 -8.07729,-7.44358 -10.59695,-13.52836 -1.14151,-2.75665 -2.18837,-6.70641 -1.69701,-6.40273 0.16856,0.10418 1.26597,1.79381 2.43869,3.75473 2.9202,4.88294 5.68668,8.65542 8.84433,12.0605 5.36675,5.78729 5.63815,6.89226 1.01094,4.11586 z m 102.69613,-62.38634 c 0,-1.05896 1.26371,-4.14866 2.41763,-5.91099 1.71732,-2.62278 7.36868,-8.82372 10.31263,-11.31551 3.86986,-3.2755 3.6169,-2.37075 -0.75451,2.69858 -1.58949,1.84326 -4.53645,5.65326 -6.54878,8.46667 -2.01234,2.8134 -3.8757,5.39309 -4.1408,5.73264 -0.49731,0.63695 -1.28617,0.8385 -1.28617,0.32861 z m 12.6441,-3.15084 c 1.37676,-1.91435 7.70447,-7.7865 10.99201,-10.20064 6.37775,-4.68336 14.728644,-9.72024 23.040904,-13.897233 5.13996,-2.582879 6.87787,-3.125158 5.00493,-1.561681 -1.53688,1.28295 -11.54894,8.015124 -17.28611,11.623294 -8.023724,5.04622 -16.755614,10.91357 -19.393434,13.03133 -2.7134,2.17842 -3.41825,2.47878 -2.3583,1.00493 z m -17.36886,-0.64621 c -0.11777,-0.30691 -0.21413,-0.94128 -0.21413,-1.40971 0,-3.11041 -7.93089,-19.36635 -10.73058,-21.99446 -1.43294,-1.345118 -1.06558,-1.578005 0.63909,-0.405157 1.91435,1.317102 4.35838,4.355047 7.40109,9.199577 1.27898,2.03637 2.6381,4.09937 3.02025,4.58443 0.63432,0.80515 0.74383,0.83331 1.2576,0.3234 0.30953,-0.3072 1.18481,-2.32446 1.94507,-4.48281 2.58666,-7.343437 5.02468,-11.176492 11.37844,-17.889196 3.10457,-3.279953 6.61046,-6.239929 6.60698,-5.57817 -0.002,0.417126 -1.51547,2.580789 -5.1452,7.356567 -6.79832,8.944844 -11.38338,17.635329 -13.30672,25.221499 -1.1971,4.72164 -2.26085,6.61425 -2.85189,5.07403 z m -13.2669,-9.36834 c -5.69495,-3.305 -13.58916,-7.34087 -21.16667,-10.82134 -9.75077,-4.478676 -18.98819,-9.591191 -17.32962,-9.591191 1.00777,0 10.50641,3.440777 18.21156,6.59694 7.51802,3.079501 12.20783,5.565121 16.05139,8.507281 3.99051,3.05465 8.86486,7.43436 8.29028,7.44899 -0.19403,0.005 -2.01965,-0.95837 -4.05694,-2.14068 z m 22.59992,-46.30001 c 0.91916,-1.557864 2.95584,-3.405266 5.74398,-5.210174 2.65502,-1.718729 6.67945,-3.650252 8.34498,-4.005168 1.22489,-0.261017 1.22957,-0.257362 0.58774,0.458842 -0.35585,0.397075 -2.57774,1.876444 -4.93753,3.287488 -2.3598,1.411043 -5.48178,3.375287 -6.93774,4.364985 -1.45595,0.989698 -2.8459,1.920951 -3.08877,2.069452 -0.24287,0.148501 -0.11357,-0.285941 0.28734,-0.965425 z m -128.25687,18.811923 c 1.3582,-0.420775 3.04897,-1.059832 3.75728,-1.420127 7.28346,-3.704875 42.8732303,-37.403237 48.4688603,-45.892987 1.90859005,-2.895733 2.47985005,-3.338813 2.15269005,-1.669657 -0.31285,1.596124 -2.51887005,6.138559 -4.77527005,9.832801 -1.00343,1.642835 -1.7779,3.228512 -1.72105,3.523726 0.33367,1.732587 3.63991,-0.3466 7.22277005,-4.542153 C 8.3602763,34.859714 9.3468163,23.038104 3.4675463,13.315221 c -1.67352,-2.767596 -5.4958,-6.8030084 -8.80693,-9.2980264 -4.04117,-3.04510796 -5.3053803,-2.850143 -4.37552,0.674787 0.88294,3.347074 1.37525,8.2689614 1.39554,13.9520504 0.0167,4.690549 -0.0967,6.001066 -0.67122,7.754667 -0.8097,2.471387 -5.0926903,11.273318 -5.3569703,11.00904 -0.0994,-0.09939 0.37159,-1.901262 1.04663,-4.004155 1.98418,-6.1812 2.18061,-7.484904 2.14415,-14.230385 -0.0378,-6.983781 -0.65245,-10.1583934 -2.659,-13.7324934 -2.68429,-4.78128596 -7.8474,-9.903618 -9.98248,-9.903618 -0.90212,0 -0.65691,0.726266 1.43277,4.24348404 1.09181,1.83768096 2.44261,4.48248196 3.00177,5.87733596 1.01955,2.543353 1.74008,6.8146994 1.14878,6.8100244 -0.17316,-0.0014 -0.57689,-1.089661 -0.89718,-2.418426 -1.14825,-4.7636934 -6.46437,-13.8384444 -8.94266,-15.2653374 -3.27658,-1.886515 -14.21716,-2.290918 -18.68762,-0.690762 -1.15889,0.414813 -2.24471,0.891843 -2.41293,1.060068 -0.17264,0.172633 0.51468,0.572389 1.5779,0.917737 5.66145,1.838922 10.47693,5.411595 12.27457,9.106694 1.03289,2.123115 2.27504,6.2095374 1.97786,6.5067194 -0.0817,0.08174 -0.49802,-0.541458 -0.92507,-1.384879 -3.0113,-5.9472924 -6.82342,-8.8999434 -13.18599,-10.21311136 -4.58401,-0.946092 -9.33606,-0.883954 -11.86171,0.155103 -2.66713,1.09726396 -6.95051,3.80810496 -8.43145,5.33604596 -1.07106,1.105054 -1.15412,1.316656 -0.69645,1.774326 0.2858,0.285803 1.48408,0.651537 2.66284,0.812742 4.30008,0.588073 9.3364,4.7981114 10.5313,8.8034864 0.40446,1.355779 -0.43482,0.916384 -3.36917,-1.763889 -3.27378,-2.990312 -5.22707,-4.145139 -7.01113,-4.145139 -1.8424,0 -4.61991,1.51136 -6.52971,3.55309 -3.00035,3.20762 -4.39005,7.399727 -4.67383,14.098855 -0.159,3.75358 -0.0742,4.874514 0.56054,7.408333 1.70455,6.804449 5.55533,11.866119 11.16855,14.680522 4.47125,2.24183 4.5121,2.268321 4.11318,2.667245 -1.0293,1.029298 -7.32989,-1.95498 -10.89524,-5.160537 -3.25249,-2.924267 -5.89559,-7.997717 -7.03377,-13.501338 -0.7857,-3.799271 -0.50216,-10.941821 0.57155,-14.397559 0.42199,-1.358194 0.85238,-2.747257 0.95642,-3.086805 0.69672,-2.27397 -3.70655,1.954954 -5.41801,5.203472 -1.53965,2.922418 -3.51058,8.746295 -4.20949,12.438586 -0.73996,3.909156 -0.49848,10.312736 0.5401,14.321981 1.7738,6.847478 6.41863,12.962721 12.45356,16.396012 4.92716,2.803072 16.49626,4.325017 16.49626,2.170124 0,-0.491261 -2.28524,-1.549959 -5.2874,-2.449528 -4.53566,-1.35907 -7.69487,-3.306186 -11.99871,-7.395173 l -2.64584,-2.513748 3.2317,2.07887 c 10.02685,6.450011 23.20557,8.208359 30.38995,4.054726 2.76302,-1.597439 2.72642,-2.200812 -0.43092,-7.102239 -0.83835,-1.301453 -1.8463,-3.002573 -2.2399,-3.780269 -0.74798,-1.477933 -1.93715,-6.973852 -1.44285,-6.668358 0.15651,0.09673 0.86652,1.240453 1.5778,2.54161 4.02808,7.368604 5.56019,9.077194 7.14451,7.967487 1.20224,-0.842082 2.25549,-3.28043 4.85782,-11.246192 l 2.42022,-7.408333 0.10764,2.090185 c 0.12296,2.387609 -0.52076,5.872993 -2.25211,12.193866 -0.6638,2.42345 -1.20691,4.526888 -1.20691,4.674306 0,0.741666 1.15431,0.007 3.79236,-2.41361 1.60073,-1.468801 2.91041,-2.560572 2.91041,-2.426157 0,0.724849 -5.10398,7.416624 -7.39379,9.69391 -9.81383,9.760181 -24.53862,13.954733 -36.02771,10.262967 -3.20132,-1.028674 -4.09886,-1.544413 -9.20608,-5.289896 -0.50993,-0.373968 -0.77446,-0.395474 -1.08197,-0.08796 -1.00497,1.00497 1.69883,5.528963 5.37971,9.001314 4.31935,4.074656 9.44569,5.864061 16.82955,5.874537 4.72674,0.0067 5.52101,0.368665 3.0929,1.409474 -0.96194,0.412335 -2.65093,0.96011 -3.75331,1.217279 -2.96597,0.691915 -3.29535,1.019731 -2.16265,2.152431 0.50552,0.505512 1.05512,0.569063 3.43959,0.39772 1.56086,-0.112161 3.94918,-0.548199 5.30737,-0.968973 z M 198.95772,81.113031 c 6.15586,-1.110311 9.38304,-2.886565 14.47086,-7.964831 5.08675,-5.077185 8.5624,-10.346961 10.62488,-16.109447 0.75033,-2.096374 1.39711,-9.643331 0.82645,-9.643331 -0.1507,0 -2.28125,1.957089 -4.73456,4.349087 -6.48341,6.321383 -11.69922,9.685897 -14.45697,9.325605 l -0.90983,-0.118867 1.16864,-0.692496 c 5.37975,-3.187851 10.56834,-7.752094 13.79913,-12.138673 3.31085,-4.495262 3.90903,-6.543622 3.89972,-13.353826 -0.007,-4.932265 -0.58924,-8.415151 -1.81931,-10.878129 -1.53094,-3.065416 -1.72246,-2.758069 -2.05283,3.294384 -0.34646,6.347046 -1.27686,9.853426 -3.52094,13.269311 -1.87659,2.8565 -4.81292,5.967641 -6.41353,6.795349 -1.82514,0.943815 -1.52858,0.284003 0.99438,-2.212375 7.22264,-7.146531 9.46386,-19.99515 4.96396,-28.457697 -1.54148,-2.898918 -4.26123,-5.538792 -7.1922,-6.9809864 -2.32903,-1.146002 -2.53479,-1.182244 -6.64302,-1.170112 -3.9404,0.01164 -4.44197,0.09321 -7.10824,1.156078 -3.42965,1.3671764 -7.24581,3.9656664 -9.25617,6.3026924 -1.90113,2.210036 -4.12648,6.550639 -6.33499,12.356543 -2.9113,7.653478 -3.21417,7.389947 -0.89396,-0.777833 2.10016,-7.39313 4.89103,-12.372722 9.22677,-16.462838 4.14089,-3.9063134 8.97573,-6.1182254 14.28425,-6.5349644 1.51035,-0.118569 2.81755,-0.33119 2.90488,-0.472491 0.25843,-0.418147 -1.96483,-3.00517896 -4.23987,-4.93359496 -3.66704,-3.10833704 -8.61562,-4.93752604 -13.34042,-4.93114104 -2.52181,0.0034 -7.19184,1.178083 -9.86469,2.481312 -8.11027,3.95441504 -13.65605,11.539697 -15.93848,21.7999954 l -0.83688,3.762055 -0.0238,-2.645833 c -0.0131,-1.455209 0.20715,-3.757083 0.48939,-5.115278 0.67598,-3.252942 3.78097,-9.4797724 6.50872,-13.0527784 3.99469,-5.232513 5.66586,-7.692113 5.66586,-8.338883 0,-0.901618 -1.28843,-1.170758 -5.64444,-1.179059 -4.49283,-0.0086 -5.11831,0.264898 -8.74179,3.821888 l -2.56818,2.521054 0.86559,-2.116667 c 0.47607,-1.164166 0.74762,-2.238804 0.60343,-2.388083 -0.70704,-0.732006 -8.17165,3.329717 -11.02589,5.99952504 -3.52858,3.30057496 -5.88633,9.59554496 -6.19758,16.54695836 -0.22428,5.009054 0.21957,8.588603 1.64219,13.24396 1.74058,5.695843 1.71314,6.316226 -0.18049,4.08028 -2.58487,-3.052133 -4.40007,-9.288533 -4.65081,-15.97854 -0.15158,-4.044409 -0.0604,-5.123134 0.75304,-8.9107414 1.10883,-5.16294 1.11741,-5.361414 0.23169,-5.361414 -1.30845,0 -5.45171,4.926264 -7.41765,8.8194444 -3.16269,6.263129 -3.95724,16.112395 -1.7711,21.954645 1.69556,4.531221 10.94088,13.583771 10.94088,10.712751 0,-0.45139 -0.5094,-1.271386 -3.28513,-5.288152 -0.98803,-1.42978 -1.16462,-1.979243 -0.63611,-1.979243 0.17165,0 1.64008,1.208209 3.26319,2.684908 6.7592,6.149493 17.69594,13.54287 20.03345,13.54287 0.66062,0 0.67368,-0.07733 0.22336,-1.322917 -0.26305,-0.727604 -1.44535,-3.311709 -2.62734,-5.742455 -1.99676,-4.106294 -3.25082,-8.005419 -3.68439,-11.455462 -0.15628,-1.243543 -0.1321,-1.306381 0.20367,-0.529167 3.81695,8.835402 6.79115,13.227901 13.49612,19.931946 4.58348,4.582849 4.87097,4.946806 3.98801,5.048723 -0.5864,0.06769 -3.58566,-0.981498 -7.81565,-2.734028 -6.2638,-2.595156 -9.04807,-3.372435 -9.04807,-2.525932 0,0.592647 5.42945,5.3924 8.80895,7.787311 7.04299,4.99107 12.61219,8.291567 16.3912,9.713982 3.3387,1.256685 9.78359,2.915499 13.42902,3.456424 l 3.175,0.471119 -2.46944,0.254306 c -3.26038,0.335756 -10.17695,-0.268428 -13.99785,-1.222755 -1.68395,-0.420592 -3.33274,-0.660715 -3.66399,-0.533605 -0.56608,0.217226 -0.56542,0.27182 0.011,0.908777 0.8258,0.912499 5.40717,3.248563 8.62276,4.396787 5.13354,1.833087 9.82499,2.307069 14.49611,1.464555 z m -0.40076,-10.486599 c 0.7525,-0.216521 1.84972,-0.220214 2.99861,-0.01009 1.77231,0.324141 1.7464,0.331597 -1.18674,0.341469 -2.50452,0.0084 -2.80307,-0.04617 -1.81187,-0.331377 z M 186.08133,57.282066 c -5.72176,-0.646803 -11.89736,-4.091217 -15.44411,-8.613888 l -1.13644,-1.449145 1.52739,1.234722 c 6.14504,4.967539 10.12275,6.627166 16.64066,6.942999 l 4.05695,0.196583 -1.80077,-1.894096 c -2.62601,-2.762121 -2.96173,-3.386861 -2.96173,-5.511498 0,-6.461251 6.99901,-15.571157 15.08125,-19.629723 1.01864,-0.511522 1.85208,-0.860691 1.85208,-0.775931 0,0.08476 -1.38906,1.173915 -3.08681,2.420346 -1.69774,1.246431 -4.00347,3.256721 -5.12384,4.467311 -3.86007,4.170897 -6.97974,10.799312 -6.43909,13.681235 0.32879,1.752616 2.42528,3.679356 5.08639,4.674542 3.10783,1.162254 4.42425,2.051269 3.92615,2.651443 -0.95274,1.14798 -8.00235,2.077135 -12.17808,1.6051 z"
       id="path377" /></g></svg>
