<?xml version="1.0" encoding="UTF-8" standalone="no"?>
<!-- Created with Inkscape (http://www.inkscape.org/) -->

<svg
   width="255.33876mm"
   height="119.72442mm"
   viewBox="0 0 255.33875 119.72442"
   version="1.1"
   id="svg1"
   xml:space="preserve"
   xmlns="http://www.w3.org/2000/svg"
   xmlns:svg="http://www.w3.org/2000/svg"><defs
     id="defs1"><clipPath
       clipPathUnits="userSpaceOnUse"
       id="clipPath61"><path
         id="path62"
         style="fill:#ff0000;fill-opacity:1;fill-rule:nonzero;stroke:none;stroke-width:0.264583"
         d="m -19.713287,119.54649 v 67.37573 H 228.77904 v -67.37573 z m 206.307307,15.03474 c 0.47572,-0.0114 1.01149,0.0526 1.60248,0.21084 1.18019,0.31592 2.34294,0.68521 3.47783,1.1374 1.13445,0.49941 2.23837,1.06824 3.31349,1.68413 0.60617,0.3849 1.19227,0.79908 1.77767,1.2144 0.54563,0.3871 0.95895,0.79674 1.26297,1.2082 0.56932,0.52605 0.9267,1.08873 1.05627,1.63039 0.10157,0.10045 0.2122,0.19127 0.31212,0.29352 0.5994,0.54293 1.12177,1.13757 1.5565,1.81953 2.63095,4.12711 -4.64331,7.41146 -4.24625,2.53317 0.0127,-0.15577 -0.73082,-0.73932 -0.86559,-0.91674 -0.50638,-0.53574 -1.06854,-1.01265 -1.60558,-1.5167 -0.67107,-0.55405 -1.34379,-1.1009 -2.10168,-1.53582 -0.36161,-0.24134 -0.75156,-0.43529 -1.12707,-0.65371 -0.0702,-0.0294 -0.13992,-0.0598 -0.21084,-0.0879 -1.09638,-0.48077 -2.21756,-0.90871 -3.35173,-1.29191 -1.00773,-0.34048 -1.74824,-0.82533 -2.24276,-1.36167 -0.28197,-0.23952 -0.47149,-0.50516 -0.61908,-0.77773 -1.26936,-1.53368 -0.40002,-3.53182 2.01125,-3.58945 z m -166.671483,0.45785 c 1.059873,5.3e-4 1.84865,0.33792 2.333708,0.83871 0.161515,-0.0173 0.332848,-0.0477 0.484208,-0.0517 v 5.3e-4 c 0.09967,-0.003 0.197279,-0.002 0.292488,5.3e-4 3.681771,0.10945 3.993539,4.17933 -0.371553,4.96662 -0.384475,0.0694 -0.768935,0.1389 -1.153418,0.20826 -0.002,0.003 -0.0021,0.006 -0.0041,0.008 0.133693,0.64998 -0.01376,1.42562 -0.576192,2.2133 0.660917,1.02744 0.345415,2.69942 -1.653646,4.05505 -0.289862,0.19656 -0.579853,0.39307 -0.869715,0.58963 -1.366199,0.99523 -2.675238,2.0768 -3.787365,3.3569 -2.687215,3.09302 -5.671088,1.30434 -4.7113405,-1.52704 -0.00809,-0.56718 0.1061115,-1.22701 0.3834385,-1.97197 0.134604,-0.36161 0.33687,-0.6768 0.51108,-1.01131 -1.1600036,-0.61925 -1.4148418,-2.28075 0.204122,-4.11035 -0.283084,-0.54807 -0.291092,-1.24016 0.03669,-1.94406 0.1164,-0.84989 0.78177,-1.76101 2.055171,-2.46084 0.160905,-1.02081 1.13682,-2.06204 3.070097,-2.48511 0.835929,-0.18295 1.673132,-0.36093 2.510441,-0.53744 0.448985,-0.0946 0.864875,-0.13815 1.245919,-0.13798 z m 136.138973,5.94589 c 1.00905,-0.0323 1.76975,0.42851 2.11615,1.12603 1.61684,0.75303 1.77496,3.14184 -1.00459,4.76095 -0.15251,0.0889 -0.30481,0.1773 -0.45733,0.26614 -1.0109,0.6533 -1.97207,1.37238 -2.93419,2.09393 -0.72781,0.64947 -1.44106,1.31473 -2.17506,1.95698 -0.55587,0.44441 -0.86634,1.15931 -1.28261,1.72083 -0.50561,0.76216 -0.89736,1.596 -1.40457,2.35851 -2.71067,4.0752 -6.69272,1.41746 -4.11396,-2.74247 0.0706,-0.11386 0.13659,-0.23021 0.20516,-0.3452 -0.51862,-1.02169 -0.15718,-2.67199 1.60145,-4.16408 0.821,-0.69658 1.57109,-1.4678 2.33681,-2.22312 1.28904,-1.20615 2.57623,-2.41245 3.99407,-3.46646 l 0.69298,-0.46147 c 0.89115,-0.59343 1.71905,-0.85792 2.42569,-0.88057 z M 51.993963,141.5777 c 0.561496,-1e-4 1.206373,0.11891 1.920814,0.39171 1.175261,0.44875 2.226625,1.14852 3.220477,1.90841 0.760145,0.55777 1.453737,1.20126 2.144572,1.84123 0.614889,0.55032 1.111888,1.20986 1.689301,1.79576 0.683602,0.67843 1.211361,1.47407 1.722893,2.28306 0.480195,0.72974 0.908817,1.47216 1.222663,2.28979 1.560365,4.06493 -2.212282,5.95002 -4.056081,3.01738 -0.326969,-0.16927 -0.65891,-0.38357 -0.988573,-0.68884 -0.621554,-0.23182 -1.281562,-0.68277 -1.922878,-1.4118 -0.308655,-0.35088 -0.634053,-0.68588 -0.928108,-1.04955 -0.433694,-0.4423 -0.892921,-0.88046 -1.269174,-1.36994 -0.49574,-0.49537 -1.058527,-0.92323 -1.599386,-1.36685 -0.737478,-0.60362 -1.501073,-1.18412 -2.333191,-1.65209 -2.78993,-1.56904 -2.714651,-3.92461 -1.145151,-4.72013 0.326554,-0.73739 1.13896,-1.26792 2.321822,-1.26814 z" /></clipPath></defs><g
     id="layer1"
     transform="translate(100.87182,-35.654011)"><path
       style="fill:#000000"
       d="m 36.347229,155.14047 c -0.0807,-0.13062 -0.33943,-3.55366 -0.57488,-7.60677 -0.66018,-11.36447 -0.0955,-25.32102 1.1196,-27.67324 0.61863,-1.19754 1.76272,-2.94239 2.07423,-3.16342 0.14267,-0.10123 0.20331,-0.23632 0.13477,-0.3002 -0.20931,-0.19508 -4.86415,0.82065 -6.51189,1.42095 -2.52225,0.9189 -2.70672,0.90144 -0.88707,-0.0839 1.35012,-0.73111 2.349,-1.02987 4.63021,-1.38484 l 2.9087,-0.45263 1.45521,-1.36992 c 1.91214,-1.80008 2.98598,-2.53505 3.74501,-2.56319 0.34134,-0.0127 -0.27236,-0.22548 -1.36376,-0.47294 -3.40863,-0.77287 -5.85435,-2.39991 -7.65038,-5.08948 -2.21066,-3.31049 -2.95659,-7.510003 -3.07304,-17.301033 -0.045,-3.78354 0.0289,-7.92165 0.16418,-9.19581 0.24394,-2.29721 0.87996,-4.43023 1.321,-4.43023 0.12612,0 0.0934,0.32743 -0.0728,0.72761 -0.19242,0.4635 -0.34442,3.52165 -0.41875,8.42519 -0.10848,7.15579 -0.078,7.84686 0.43302,9.81829 0.30234,1.16638 0.85092,2.72038 1.21906,3.45333 0.36814,0.73295 0.66934,1.45108 0.66934,1.59584 0,0.31496 2.37771,3.588153 2.51024,3.455623 0.0507,-0.0507 -0.0595,-0.68737 -0.24492,-1.41478 -0.47704,-1.871393 -0.67294,-3.599733 -0.38806,-3.423673 0.13167,0.0814 0.23941,0.47652 0.23941,0.87808 0,2.328733 1.85308,5.363963 3.47256,5.687863 0.46491,0.093 0.89473,0.11962 0.95515,0.0592 0.0604,-0.0604 -0.19962,-0.57748 -0.57786,-1.14904 -0.66513,-1.00509 -2.26235,-4.829653 -2.26235,-5.417233 0,-0.15882 0.46801,0.41431 1.04002,1.27362 1.46261,2.197223 2.06882,2.907353 2.29165,2.684523 0.10608,-0.10607 -0.024,-0.43245 -0.28896,-0.72527 -0.81135,-0.89653 -0.21971,-0.90745 0.90495,-0.0167 2.04112,1.6166 3.6145,1.30178 8.6436,-1.729483 1.58777,-0.95703 3.47737,-2.04186 4.1991,-2.41074 4.36233,-2.22962 13.6623,-8.70127 18.89794,-13.15066 2.51974,-2.14135 10.23213,-9.16152 17.92002,-16.31163 8.503581,-7.90874 12.292821,-11.03064 17.101571,-14.08973 0.83675,-0.53229 1.52136,-1.02882 1.52136,-1.10339 0,-0.31579 -0.52473,-0.0679 -2.23739,1.05698 -1.86346,1.22392 -2.75346,1.38133 -1.33449,0.23601 0.81869,-0.6608 5.95476,-3.934839 8.69716,-5.544099 0.85438,-0.501352 1.78359,-0.911549 2.06492,-0.911549 0.28134,0 2.0118,0.358544 3.84549,0.796765 1.83368,0.438221 3.38706,0.743673 3.45195,0.678782 0.0649,-0.06489 -0.59976,-0.480302 -1.47701,-0.923136 -2.58491,-1.304857 -2.4428,-1.914794 0.28432,-1.220335 2.28829,0.582712 4.62632,1.719245 7.36975,3.582482 1.28223,0.87085 2.41673,1.58336 2.5211,1.58336 0.3777,0 -1.15324,-1.41646 -4.09152,-3.785547 -1.64914,-1.329673 -2.87981,-2.457128 -2.73482,-2.505456 0.49259,-0.164197 4.4022,1.991088 6.3947,3.52526 8.57544,6.602853 18.39201,17.798483 17.94415,20.464973 -0.0767,0.45641 -0.24287,0.40879 -1.73735,-0.49783 -0.90892,-0.55139 -2.08226,-1.08314 -2.60742,-1.18166 -0.87238,-0.16366 -5.71911,-1.90192 -8.10077,-2.90531 -1.09943,-0.46319 -1.99717,-0.54019 -1.06684,-0.0915 0.32743,0.15791 0.59532,0.385 0.59532,0.50464 0,0.25001 -0.91602,0.10718 -3.66352,-0.57122 -1.90976,-0.47155 -1.94141,-0.47105 -1.81071,0.0287 0.15421,0.58972 -0.16743,0.62855 -1.89917,0.22927 -1.08547,-0.25027 -1.32798,-0.18824 -3.99147,1.02097 -3.56332,1.61773 -6.2054,3.18659 -10.21681,6.06673 -4.85077,3.48279 -9.40135,6.70761 -10.4973,7.43905 -0.54474,0.36356 -0.95754,0.6939 -0.91735,0.7341 0.078,0.078 1.45698,-0.31492 7.68943,-2.19112 2.16126,-0.65062 3.99347,-1.11903 4.07159,-1.04092 0.0781,0.0781 -0.15333,0.25433 -0.51432,0.39158 -0.361,0.13725 -1.95509,0.83878 -3.54243,1.55897 -1.58733,0.72019 -3.65997,1.61411 -4.60586,1.98649 -1.94945,0.76748 -7.60038,2.95586 -8.20208,3.17634 -1.02365,0.3751 0.78776,0.13074 4.55068,-0.61388 4.39132,-0.86897 10.88296,-2.60881 15.29307,-4.09874 3.64719,-1.23217 4.07496,-1.33831 2.64583,-0.65643 -1.37986,0.65837 -5.83284,2.1643 -8.25365,2.79126 -0.91752,0.23763 -1.84682,0.54924 -2.0651,0.69246 -0.32712,0.21464 -0.3152,0.23499 0.0678,0.11581 0.93169,-0.28993 15.10256,-2.56283 15.50058,-2.48618 0.22545,0.0434 -1.54811,0.42078 -3.94123,0.83858 -2.39311,0.41779 -5.12502,0.91959 -6.07091,1.11509 -1.60045,0.3308 -1.62799,0.34785 -0.39687,0.24567 2.10689,-0.17486 13.91338,-1.72763 15.01071,-1.97418 0.54812,-0.12316 0.99658,-0.12607 0.99658,-0.006 0,0.32991 -2.55656,1.21705 -5.32821,1.84891 -3.20786,0.73131 -3.40304,0.78898 -3.40304,1.00563 0,0.25477 1.35427,0.82634 2.98646,1.26042 1.26769,0.33714 1.51817,0.32161 3.09895,-0.19215 0.94589,-0.30742 3.07831,-1.19959 4.73871,-1.98259 1.66041,-0.78301 3.0569,-1.38568 3.10331,-1.33926 0.30934,0.30934 -5.74105,5.12788 -9.3668,7.45971 -0.93336,0.60028 -1.64659,1.24961 -1.6479,1.50028 -0.007,1.34219 -3.065,8.43582 -5.01633,11.636493 -0.29714,0.48738 -0.54129,1.06474 -0.54256,1.28303 -0.001,0.21828 -0.30798,0.75406 -0.68159,1.19062 -0.3736,0.43656 -0.62758,0.67469 -0.56438,0.52917 0.0632,-0.14552 0.74396,-1.57427 1.51281,-3.175 1.5153,-3.154823 3.78114,-8.973553 4.06216,-10.431753 0.0961,-0.49871 0.12578,-0.8559 0.0659,-0.79375 -0.0599,0.0622 -0.7908,1.95847 -1.62432,4.21404 -3.35456,9.077763 -6.92762,14.433693 -12.38296,18.561783 -3.21672,2.43411 -8.89178,4.97457 -13.40608,6.00126 -0.654841,0.14893 -2.797961,0.47379 -4.762491,0.7219 -6.8443,0.8644 -13.40315,0.11928 -21.19581,-2.40793 l -4.45798,-1.44576 -5.6278,0.0116 c -5.46226,0.0113 -5.9522,0.0679 -7.98386,0.92272 -0.48946,0.20595 -0.49049,0.18921 -0.0358,-0.5806 0.25753,-0.43597 1.05639,-1.37726 1.77525,-2.09176 1.19291,-1.18568 3.38733,-4.97212 3.06714,-5.2923 -0.13287,-0.13288 -3.9319,2.35314 -6.15473,4.02756 -1.72339,1.2982 -0.81027,0.2093 1.32291,-1.57757 1.77172,-1.48409 1.73867,-1.49101 -1.83126,-0.38344 -1.71273,0.53138 -4.33295,2.02935 -4.09573,2.34152 0.0584,0.0768 -0.23383,0.54375 -0.64938,1.03759 -0.6759,0.80327 -0.7437,1.05261 -0.64331,2.36577 0.17021,2.22634 1.22029,4.01859 4.42971,7.5605 1.57873,1.74227 2.82557,3.21436 2.77076,3.2713 -0.30597,0.31788 -7.19327,-6.12471 -8.07826,-7.55665 -0.29955,-0.48469 -0.62423,-0.88075 -0.7215,-0.88014 -0.23524,10e-4 -3.95213,5.02302 -4.8687,6.57764 -0.3977,0.67455 -0.72482,1.10739 -0.72693,0.96187 -0.009,-0.63926 4.47301,-7.17016 5.251,-7.65099 0.21354,-0.13197 0.0966,-1.47713 -0.12835,-1.47713 -0.41423,0 -3.59962,4.13865 -5.24686,6.81703 -0.56071,0.91171 -1.06771,1.60943 -1.12666,1.55048 -0.28606,-0.28605 3.35481,-5.58679 5.39179,-7.8499 0.57721,-0.64129 0.87493,-1.27037 0.94205,-1.99054 0.054,-0.57912 0.1884,-1.199 0.29873,-1.37751 0.11032,-0.17851 0.0925,-0.32456 -0.0396,-0.32456 -0.40888,0 -5.15647,5.04786 -6.78102,7.20989 -0.84742,1.12779 -1.59005,2.05052 -1.6503,2.05052 -0.32805,0 1.76001,-2.91625 3.36245,-4.69612 0.50174,-0.55729 1.14851,-1.30622 1.43728,-1.66429 0.87902,-1.09 -1.0353,0.62409 -3.34246,2.99283 -1.89992,1.95064 -2.04178,2.17783 -2.3196,3.71483 -0.53904,2.98213 -0.80555,5.31956 -0.81086,7.11162 -0.003,1.04152 -0.13028,1.8476 -0.30899,1.95805 -0.22451,0.13875 -0.26675,3.11054 -0.16191,11.39269 0.078,6.16274 0.10265,11.20498 0.0548,11.20498 -0.0479,0 -0.15311,-0.10688 -0.23383,-0.2375 z m 63.21867,-37.68776 c 6.662651,-1.68174 11.538561,-4.72245 15.568571,-9.70885 3.72205,-4.60537 7.08726,-13.408793 6.73977,-17.631313 l -0.0833,-1.01271 -1.5875,-0.20691 c -2.24486,-0.2926 -4.97329,-0.11513 -9.32657,0.60665 l -3.77031,0.62512 -0.009,2.00112 c -0.0144,3.27046 -1.056,7.77246 -2.3978,10.363583 -2.13633,4.12542 -5.876701,7.17921 -10.159681,8.29479 -1.93203,0.50323 -5.36708,0.52328 -7.17494,0.0419 -2.15092,-0.57274 -5.04614,-2.24264 -6.68378,-3.85505 -1.33969,-1.31905 -3.7375,-4.91761 -3.7375,-5.60913 0,-0.4075 -0.91795,-0.0538 -4.95081,1.90738 -3.0725,1.4942 -4.02817,2.10093 -5.22552,3.31756 -0.80593,0.81892 -1.46257,1.62466 -1.4592,1.79055 0.009,0.43677 2.12068,2.58424 3.60989,3.67089 2.59386,1.89267 7.15533,3.86469 11.51296,4.97729 4.16792,1.06417 6.44001,1.29815 11.59393,1.19395 4.14121,-0.0837 5.30214,-0.20178 7.54063,-0.76681 z m -31.23406,-3.32396 c -0.71406,-0.67841 -3.91315,-3.20023 -4.05531,-3.19679 -0.36861,0.009 -3.73667,2.6614 -3.73667,2.94276 0,0.20926 0.47285,0.2607 1.52135,0.16552 1.20812,-0.10968 4.86543,0.0573 6.27063,0.28635 0.15875,0.0259 0.15875,-0.047 0,-0.19784 z m 26.26355,-5.19573 c 1.87238,-0.62854 3.4718,-1.43858 4.69974,-2.38024 0.50464,-0.38698 0.46751,-0.45227 -1.05833,-1.86128 -0.86973,-0.80313 -1.34319,-1.34101 -1.05215,-1.1953 0.29104,0.14571 1.04035,0.74638 1.66514,1.33481 0.62479,0.58843 1.173081,1.06988 1.218441,1.06988 0.24021,0 2.26088,-3.23143 2.75194,-4.40086 0.53431,-1.27244 1.04389,-4.088403 0.81655,-4.512283 -0.1067,-0.19895 -0.91955,-0.18003 -3.49114,0.0813 l -1.536981,0.15618 -0.64097,1.44935 c -1.15624,2.614453 -3.03531,4.452343 -5.37696,5.259103 -0.89785,0.30934 -1.26622,0.30605 -2.52788,-0.0226 -1.40892,-0.36698 -3.62704,-1.54081 -3.81425,-2.01851 -0.0485,-0.12377 -0.23875,-0.22504 -0.42275,-0.22504 -0.47183,0 -3.32552,3.04823 -3.32552,3.55224 0,0.22908 0.0393,0.41651 0.0874,0.41651 0.0481,0 0.73269,-0.59458 1.52135,-1.32129 2.02973,-1.87027 2.52967,-1.6483 0.63191,0.28056 l -1.57922,1.60511 0.7774,0.62735 0.77739,0.62734 0.43847,-0.97568 c 0.48013,-1.06841 1.83414,-2.79273 2.03513,-2.59173 0.0693,0.0693 -0.16953,0.52086 -0.53085,1.00336 -0.36132,0.4825 -0.86268,1.28361 -1.11413,1.78025 -0.44994,0.88867 -0.44729,0.91063 0.16721,1.38629 2.11208,1.63488 5.59706,1.97822 8.88304,0.87516 z m -1.47361,-2.96599 c -0.28872,-0.6747 -0.28219,-0.69026 0.0898,-0.21401 0.22064,0.28247 0.40117,0.60989 0.40117,0.7276 0,0.40214 -0.17947,0.21441 -0.49099,-0.51359 z m 5.91495,-4.15763 c -0.43656,-0.1999 -0.61516,-0.36775 -0.39688,-0.37301 0.21829,-0.005 0.75407,0.154 1.19063,0.3539 0.436561,0.1999 0.615161,0.36775 0.396871,0.37301 -0.21828,0.005 -0.754061,-0.154 -1.190621,-0.3539 z m -14.22951,0.0248 c 0.78912,-0.68295 0.49197,-1.06511 -0.40252,-0.51766 -2.13926,1.30926 -2.43005,1.56629 -2.43179,2.14941 -0.002,0.59331 0.025,0.58718 1.12267,-0.2579 0.61847,-0.47612 1.38871,-1.09435 1.71164,-1.37385 z m -0.71945,-0.96296 c 0.3638,-0.27996 0.50802,-0.51297 0.32049,-0.51781 -0.18754,-0.005 -0.84238,0.48112 -1.45521,1.07992 -1.07282,1.04826 -0.75041,0.88855 1.13472,-0.56211 z m 13.93175,-4.620033 c 0.30565,-0.21409 0.61059,-0.67621 0.67763,-1.02693 0.11373,-0.59492 0.0265,-0.64888 -1.30134,-0.80494 -2.17852,-0.25604 -2.94397,0.35425 -2.04824,1.63308 0.487,0.69529 1.82135,0.79457 2.67195,0.19879 z m 18.942731,-13.8089 c -0.1819,-0.0734 -0.47956,-0.0734 -0.66146,0 -0.1819,0.0734 -0.0331,0.13346 0.33073,0.13346 0.3638,0 0.51263,-0.0601 0.33073,-0.13346 z m 2.58464,58.714293 c 0.89902,-0.98226 3.03501,-3.33375 4.74665,-5.22552 5.4087,-5.97791 5.53668,-6.08098 1.97488,-1.59048 -2.22824,2.80923 -7.687,8.60194 -8.10603,8.60194 -0.13754,0 0.48549,-0.80367 1.3845,-1.78594 z M 14.035009,138.9738 c -0.165454,-1.09141 -0.429053,-3.59172 -0.585776,-5.55625 -0.156723,-1.96453 -0.400993,-4.70297 -0.542821,-6.08542 -0.141828,-1.38244 -0.335058,-3.26657 -0.429399,-4.18694 -0.140396,-1.36966 -0.312017,-1.81388 -0.945528,-2.44739 -0.79101,-0.79101 -1.26246,-0.98125 -1.26246,-0.50942 0,0.14553 0.119063,0.26459 0.264584,0.26459 0.14552,0 0.264583,0.17653 0.264583,0.39229 0,0.21575 -1.8720173,-1.52067 -4.1600373,-3.85873 -2.28802,-2.33805 -4.399416,-4.37912 -4.691989,-4.5357 -0.292574,-0.15658 0.859894,1.18814 2.561041,2.98827 1.701146,1.80014 3.043529,3.32243 2.983073,3.38289 -0.06046,0.0605 -0.737879,-0.58964 -1.505385,-1.44465 -4.168498,-4.64379 -5.34297604,-5.70358 -7.332023,-6.61603 -1.077374,-0.49423 -1.999053,-0.85841 -2.048176,-0.80929 -0.04912,0.0491 1.066563,1.21154 2.47929996,2.58315 2.96520104,2.87888 8.00602704,8.22812 8.00841004,8.49839 8.91e-4,0.10105 -1.397365,-1.21733 -3.107235,-2.92972 -1.709869,-1.7124 -4.06135404,-3.83471 -5.22552,-4.71625 -1.164167,-0.88153 -2.950104,-2.34358 -3.96875,-3.249 -1.70595,-1.51632 -3.83801,-2.82326 -5.3938877,-3.30644 -0.553233,-0.1718 -0.45498,0.0611 0.7937497,1.88144 1.630342,2.37666 5.272152,6.13551 5.78034,5.96612 0.198386,-0.0661 0.290607,0.0385 0.220369,0.25008 -0.09628,0.29001 -1.500375,0.39873 -6.9220207,0.53601 -7.450208,0.18864 -7.008352,0.13256 -11.147299,1.41486 -12.262177,3.79897 -22.807214,3.66102 -32.74914,-0.42844 -2.286712,-0.9406 -5.92073,-3.3064 -7.796072,-5.07535 -5.494204,-5.18253 -9.535098,-11.789853 -10.938713,-17.886063 -0.587535,-2.55179 -1.126318,-3.25796 -0.877272,-1.14982 0.314494,2.66215 1.524155,6.9173 2.642639,9.295843 1.305539,2.77633 1.528634,3.85999 0.475642,2.31037 -1.208225,-1.77806 -3.471202,-6.787383 -4.735162,-10.481733 l -1.222055,-3.57188 -3.137519,-2.05586 c -3.756879,-2.46169 -7.082038,-5.02125 -6.692059,-5.15124 0.154855,-0.0516 2.322418,0.68778 4.816806,1.64312 3.557674,1.36257 4.643471,1.67906 5.037305,1.46828 0.733303,-0.39245 6.874605,-1.85742 7.786499,-1.85742 1.314441,0 0.522185,-0.35289 -2.434666,-1.08446 -1.555573,-0.38487 -4.018939,-1.23176 -5.474147,-1.88197 -1.455208,-0.65021 -2.871234,-1.26359 -3.146723,-1.36307 -0.27549,-0.0995 -0.454084,-0.22698 -0.396875,-0.28333 0.05721,-0.0564 2.544796,0.48955 5.527973,1.21312 6.139375,1.48911 17.392479,4.03318 20.372916,4.60584 2.220317,0.42661 3.548544,0.47921 2.248958,0.0891 -2.538981,-0.76224 -9.749575,-2.69825 -12.699999,-3.40989 -4.898592,-1.18153 -5.49188,-1.34515 -5.359107,-1.47792 0.06505,-0.0651 1.595112,0.13067 3.400145,0.43492 3.965834,0.66847 10.391367,1.54214 10.514457,1.42964 0.04886,-0.0446 -0.822847,-0.65637 -1.937118,-1.35937 -1.11427,-0.703 -4.785649,-3.07831 -8.15862,-5.27847 -8.459855,-5.51829 -16.441933,-9.55697 -18.37818,-9.29879 -0.59018,0.0787 -0.115233,0.39312 2.649583,1.75407 3.026143,1.4896 4.090272,2.1523 3.456049,2.1523 -0.119888,0 -1.826193,-0.69896 -3.791789,-1.55324 -3.921282,-1.70425 -4.977462,-2.01862 -5.850732,-1.74146 -0.494797,0.15704 -0.348835,0.28111 0.986242,0.83829 3.145484,1.31275 2.206992,1.60005 -1.165164,0.35669 -2.071408,-0.76375 -2.134454,-0.77034 -3.753809,-0.39257 -1.91756,0.44733 -4.809571,1.67137 -6.536479,2.76654 -0.665597,0.42211 -1.311826,0.70465 -1.436056,0.62787 -1.16238,-0.71839 2.029837,-6.34411 6.0951,-10.74155 4.108338,-4.44403 10.303752,-8.46882 15.507145,-10.07408 2.858351,-0.881805 4.42313,-1.067127 5.056471,-0.598855 0.468856,0.346658 0.434297,0.396309 -0.558555,0.802485 -3.499381,1.4316 -8.321692,4.15106 -8.330957,4.6981 -0.0019,0.11097 0.800254,-0.20093 1.78252,-0.69312 4.425199,-2.21735 8.777395,-3.59455 11.392698,-3.60509 1.531685,-0.006 1.211171,0.35928 -0.944531,1.07696 -2.00416,0.66723 -1.847482,0.97006 0.267231,0.5165 0.764109,-0.16388 2.460851,-0.36592 3.770539,-0.44898 2.328544,-0.14766 2.417864,-0.13131 4.035462,0.73902 3.674666,1.97711 10.148799,7.14687 16.86662,13.46845 9.128337,8.5899 20.647616,17.7259 33.847311,26.84449 1.2639,0.87313 3.0949917,2.16502 4.0690927,2.87087 3.172285,2.29868 10.95464,6.791103 11.750319,6.782953 0.186738,-0.002 1.172962,-0.71473 2.191608,-1.58402 2.7339,-2.333083 2.979849,-2.076353 0.755232,0.78832 -1.029656,1.3259 -1.191331,1.67078 -0.87658,1.86987 0.212262,0.13427 0.525495,0.24594 0.696074,0.24817 0.850199,0.0111 4.2267863,-5.153713 5.2167563,-7.979543 0.684153,-1.95288 0.484567,-0.15674 -0.231855,2.08653 -0.361944,1.13333 -0.654338,2.179673 -0.649765,2.325193 0.02167,0.68956 1.0706,-1.869703 1.580492,-3.856223 0.644026,-2.5091 0.615969,-3.52459 -0.288205,-10.43128 -0.856703,-6.54409 -0.859921,-6.67981 -0.103497,-4.36563 0.356741,1.09141 0.835722,3.05462 1.064402,4.36268 0.228679,1.30807 0.47604,2.43857 0.549689,2.51222 0.07365,0.0737 0.06295,-0.99659 -0.02378,-2.37831 -0.296524,-4.72396 -0.387224,-9.60383 -0.174067,-9.3652 0.54468,0.60976 1.215758,6.98167 1.195457,11.3509 -0.03173,6.82865 -0.888856,11.46238 -2.887541,15.610423 -1.050215,2.1796 -3.3054723,4.80966 -4.5813843,5.34277 -1.197184,0.50021 -0.977588,0.64314 0.485541,0.31601 2.2441743,-0.50175 4.8681903,-1.979 6.3020603,-3.54788 3.142038,-3.43789 5.243812,-7.490293 6.634992,-12.792833 l 0.74905,-2.85504 -0.239447,-10.39999 c -0.131696,-5.72 -0.185269,-10.45417 -0.119051,-10.52039 0.248719,-0.24872 0.697672,2.0168 0.982185,4.95631 0.161975,1.67349 0.310905,6.37646 0.330956,10.45104 l 0.03646,7.40833 -1.254546,3.7188 c -2.097609,6.217863 -4.686902,10.922433 -7.035039,12.782193 -1.527682,1.20994 -3.413573,2.07655 -6.0337593,2.77263 l -2.345406,0.62308 1.121292,0.57259 c 0.616711,0.31493 1.615883,1.19598 2.220382,1.9579 1.0355293,1.3052 3.5321153,5.03411 4.1761883,6.23757 0.723918,1.35265 1.683798,17.1325 1.16139,19.09253 -0.238095,0.89331 -0.257451,0.85591 -0.547643,-1.05833 z M -30.59167,117.30703 c 3.708677,-0.69307 6.915572,-1.61961 10.395936,-3.0036 2.425329,-0.96446 3.026199,-1.34418 5.22552,-3.30231 1.366791,-1.2169 2.485074,-2.3169 2.485074,-2.44444 0,-0.56942 -2.805831,-3.21967 -4.429562,-4.18394 -1.589184,-0.94376 -5.671533,-2.96977 -5.983989,-2.96977 -0.0656,0 -0.472182,0.62508 -0.903521,1.38906 -1.706925,3.02329 -4.049916,5.2035 -7.336052,6.82636 -6.338116,3.13008 -14.732077,1.02121 -19.423079,-4.8798 -2.969751,-3.73577 -4.090057,-6.587063 -4.544807,-11.566993 -0.219651,-2.40538 -0.410749,-3.36605 -0.717857,-3.60873 -0.778483,-0.61519 -13.217241,-0.23671 -13.876162,0.42221 -0.352959,0.35296 0.234754,3.88565 1.171256,7.04032 0.896737,3.020713 2.393576,6.156263 4.047504,8.478613 1.38379,1.94304 5.591463,6.12933 7.555352,7.51695 3.261929,2.30478 7.54472,3.9776 11.897168,4.64691 3.512124,0.5401 10.55867,0.36398 14.437219,-0.36084 z m 22.5060927,-3.40655 c 0.192133,-0.12511 -0.328482,-0.87172 -1.460817,-2.09495 l -1.7593387,-1.90056 -2.018578,1.76827 -2.018577,1.76827 2.817936,0.29071 c 3.7154217,0.3833 4.0874747,0.3974 4.4393747,0.16826 z m -26.3599787,-4.84642 c 0.654844,-0.1504 2.043461,-0.70619 3.085815,-1.23507 l 1.89519,-0.9616 -1.205235,-1.41074 c -1.585751,-1.85614 -1.185013,-2.19685 0.470944,-0.40039 1.210021,1.31268 1.302149,1.36281 1.57335,0.85606 0.249096,-0.46544 0.101987,-0.73501 -1.087365,-1.99258 -0.756488,-0.79987 -1.305748,-1.524 -1.220576,-1.60917 0.214496,-0.2145 2.573294,1.44008 2.573294,1.80504 0,0.16278 0.06918,0.22679 0.153728,0.14224 0.339458,-0.33946 -1.496885,-2.84488 -2.085147,-2.84488 -0.134705,0 -0.957888,0.53595 -1.829298,1.191 -1.644271,1.23602 -3.900013,2.08128 -5.165871,1.93573 -0.56574,-0.0651 -0.838454,0.087 -1.207982,0.67342 -0.262503,0.41659 -0.552222,0.6825 -0.643819,0.5909 -0.0916,-0.0916 -0.02565,-0.30743 0.146549,-0.47963 0.560869,-0.56087 0.33334,-0.91126 -0.811389,-1.24953 -1.674863,-0.49492 -2.87526,-1.26174 -3.837887,-2.45164 -0.791745,-0.97867 -1.625415,-3.122033 -1.72415,-4.432763 -0.05084,-0.67492 -0.339166,-0.6734 -2.821607,0.0148 -3.090489,0.85683 -3.182142,1.34881 -0.113889,0.61135 1.156183,-0.27789 0.500975,0.22927 -0.913885,0.70739 -0.901899,0.30478 -1.261017,0.57418 -1.322608,0.99219 -0.102927,0.698553 -0.114833,0.698093 1.312425,0.0505 1.185508,-0.53794 2.125307,-0.71479 1.66931,-0.31413 -0.138245,0.12147 -0.816901,0.42897 -1.508125,0.68334 -0.691224,0.254373 -1.256771,0.507773 -1.256771,0.563113 0,0.0553 0.240116,0.70979 0.533592,1.45434 0.605547,1.53629 1.743842,3.05647 2.964277,3.95878 l 0.830867,0.61429 1.275806,-1.40961 c 0.701694,-0.77529 1.340992,-1.34443 1.420661,-1.26476 0.07967,0.0797 -0.393474,0.72433 -1.051432,1.43257 -0.657957,0.70824 -1.199658,1.3673 -1.203779,1.46457 -0.01496,0.35303 1.933292,1.3636 3.785526,1.96358 2.093569,0.67817 5.239065,0.82912 7.319481,0.35128 z m 1.897306,-2.92189 c -0.48445,-0.74069 -0.753881,-1.26826 -0.598735,-1.17237 0.415453,0.25676 1.937879,2.5294 1.690702,2.52383 -0.116131,-0.003 -0.607516,-0.61077 -1.091967,-1.35146 z m -3.972196,-0.76045 c 0,-0.3638 0.06005,-0.51263 0.133452,-0.33073 0.0734,0.1819 0.0734,0.47956 0,0.66146 -0.0734,0.1819 -0.133452,0.0331 -0.133452,-0.33073 z m -10.095942,-7.143753 c 0.218281,-0.14107 0.575468,-0.25648 0.79375,-0.25648 0.352777,0 0.352777,0.0285 0,0.25648 -0.218282,0.14106 -0.575469,0.25648 -0.79375,0.25648 -0.352778,0 -0.352778,-0.0285 0,-0.25648 z m 15.098643,0.78444 c 0.281475,-0.15064 0.511772,-0.36583 0.511772,-0.47821 0,-0.32167 -4.100083,-2.4229 -4.727751,-2.4229 -0.747442,0 -0.713495,0.57539 0.09031,1.53065 1.162395,1.38143 2.978165,1.98459 4.125673,1.37046 z m -14.635623,-2.83424 c 1.137994,-0.24574 0.632419,-0.67305 -0.596958,-0.50454 -1.78406,0.24453 -3.834812,0.98108 -3.834812,1.37731 0,0.27155 0.428094,0.22752 1.918229,-0.19733 1.055026,-0.30079 2.18612,-0.60474 2.513541,-0.67544 z m -2.447395,-0.57549 c 0.873125,-0.27579 1.431863,-0.5123 1.241642,-0.52558 -0.544378,-0.038 -2.802181,0.55246 -3.080496,0.80559 -0.382353,0.34776 0.06898,0.27903 1.838854,-0.28001 z m 35.616324,42.800073 c 0.38023,-0.34077 1.849925,-1.57207 3.2659887,-2.73624 2.487555,-2.04506 5.713999,-5.5103 8.067972,-8.6651 0.62434,-0.83675 1.24782196,-1.52136 1.38551396,-1.52136 0.137693,0 -0.323096,0.72156 -1.02397596,1.60346 -2.086158,2.62498 -2.350815,3.11535 -0.843518,1.56291 0.781702,-0.80511 1.80936196,-1.9192 2.28368996,-2.47574 l 0.86241504,-1.01191 -0.79626904,-0.9069 c -1.062799,-1.21046 -1.014915,-1.46879 0.07622,-0.41122 0.479871,0.46511 0.94801304,0.84565 1.04031704,0.84565 0.0923,0 0.418454,-0.35198 0.72478,-0.78217 l 0.556955,-0.78217 -0.972918,-1.07691 c -0.535106,-0.59229 -0.91315604,-1.13666 -0.84011204,-1.20971 0.07304,-0.073 0.74034304,0.60903 1.48288804,1.51573 0.742545,0.90669 1.288318,1.71029 1.212829,1.78578 -0.07549,0.0755 -0.248202,-0.0379 -0.383806,-0.25196 -0.202519,-0.3197 -0.361084,-0.24745 -0.887845,0.40454 -0.500702,0.61973 -0.574462,0.87462 -0.336449,1.16264 0.247767,0.29982 0.205356,0.33732 -0.226515,0.20025 -0.419935,-0.13328 -0.77203204,0.13296 -1.67908204,1.26968 -2.43234396,3.04821 -9.28324396,9.23149 -12.73436666,11.49338 l -0.926041,0.60694 z m 100.160168,-2.24096 c -4.62898,-0.99306 -10.39076,-3.75182 -14.20046,-6.79924 -1.0914,-0.87303 -2.75828,-1.9375 -3.70416,-2.36549 -4.56508,-2.06559 -6.10509,-2.85035 -7.42837,-3.78534 -0.78935,-0.55773 -2.02777,-1.40661 -2.75206,-1.8864 -2.14724,-1.42241 -1.00249,-0.99511 1.98258,0.74004 1.52564,0.88682 4.13941,2.28054 5.80838,3.09716 1.66897,0.81663 3.78665,2.05408 4.70595,2.74989 5.32977,4.03409 11.56173,7.11999 16.46893,8.15497 1.23693,0.26088 1.9513,0.47606 1.5875,0.47818 -0.3638,0.002 -1.47453,-0.17058 -2.46829,-0.38377 z m -129.955659,-0.2778 c 0.727604,-0.21816 2.870729,-0.77369 4.762499,-1.23451 1.891771,-0.46083 3.603858,-0.9431 3.804638,-1.07172 0.256738,-0.16448 0.32996,-0.12481 0.24678,0.13369 -0.07397,0.22987 -1.796545,0.78494 -4.598388,1.48176 -4.332341,1.07745 -6.918523,1.50124 -4.215529,0.69078 z m 136.921869,-3.10714 c 1.38245,-0.32797 3.89133,-1.03235 5.5753,-1.5653 4.039361,-1.2784 4.351701,-1.20425 0.510111,0.1211 -3.403331,1.17415 -6.937031,2.09162 -7.937491,2.06085 -0.36381,-0.0112 0.46963,-0.28869 1.85208,-0.61665 z m 34.669931,0.54272 c -0.005,-0.12665 0.86637,-1.43634 1.9369,-2.91042 2.63284,-3.62534 4.41754,-6.44146 7.03024,-11.09319 1.20944,-2.15332 2.24227,-3.87184 2.29518,-3.81893 0.17922,0.17921 -3.80595,7.54031 -5.68473,10.5004 -2.23746,3.52522 -5.55455,7.87982 -5.57759,7.32214 z m -160.876176,-1.60193 c 0,-0.0618 1.101328,-0.73478 2.447396,-1.49545 3.575292,-2.02044 10.733851,-6.28932 12.057135,-7.19007 0.62869,-0.42794 1.196711,-0.72444 1.262269,-0.65888 0.17163,0.17163 -5.914897,4.32925 -8.967863,6.12582 -2.304327,1.35602 -6.246747,3.33099 -6.649304,3.33099 -0.0823,0 -0.149633,-0.0506 -0.149633,-0.11241 z m -20.637499,-1.73967 c -0.238467,-0.15411 -0.2711,-0.2581 -0.08176,-0.26053 0.173313,-0.002 0.388699,0.11501 0.478636,0.26053 0.203016,0.32848 0.111422,0.32848 -0.396876,0 z m -4.124141,-2.25678 c -1.582079,-0.95019 -2.998001,-1.86063 -3.146495,-2.0232 -0.170947,-0.18714 -0.17293,-0.24724 -0.0054,-0.16381 0.570591,0.28414 5.835591,3.48771 6.072187,3.69471 0.625743,0.54746 -0.258622,0.0909 -2.920287,-1.5077 z m 35.758965,-0.73991 c 0.445977,-0.17083 2.231914,-1.27654 3.96875,-2.45713 3.917849,-2.66311 5.933614,-3.8066 6.710328,-3.8066 0.5886487,0 2.1360957,0.76516 2.1360957,1.05623 0,0.0816 -0.487502,0.10189 -1.083337,0.0451 -0.8573007,-0.0818 -1.4783557,0.10027 -2.9765627,0.87244 -1.041273,0.53666 -2.369475,1.31669 -2.951558,1.73339 -1.58538,1.13493 -5.264128,2.91024 -5.983055,2.88733 -0.574623,-0.0183 -0.558463,-0.0481 0.179339,-0.33073 z m 60.44017,-1.92025 c 0,-0.89064 6.96712,-10.42914 7.34307,-10.05319 0.0717,0.0717 -0.5275,0.87967 -1.33151,1.79554 -0.80401,0.91587 -2.48552,3.21271 -3.7367,5.1041 -1.25117,1.89139 -2.27486,3.31049 -2.27486,3.15355 z m 46.18873,-1.7245 c -2.15476,-0.22706 -8.0988,-1.4704 -8.34682,-1.74594 -0.0763,-0.0848 0.33746,-0.0777 0.91955,0.0157 4.92627,0.79098 8.46444,1.01717 13.36146,0.85418 2.83765,-0.0944 5.57609,-0.2273 6.08541,-0.29524 l 0.92604,-0.12351 -0.90454,0.4152 c -1.11699,0.51273 -5.9057,1.17112 -8.22358,1.13065 -0.94589,-0.0165 -2.66377,-0.1295 -3.81752,-0.25108 z m 57.800931,0.25832 c -0.005,-0.091 0.39108,-1.04347 0.87936,-2.11666 1.52348,-3.3485 4.32786,-11.04742 5.43319,-14.91585 1.38899,-4.8612 2.30888,-9.462203 2.80363,-14.022913 0.83969,-7.74045 0.91132,-8.0094 0.77511,-2.91042 -0.20424,7.64574 -1.41618,14.177773 -4.07448,21.960423 -1.29713,3.79757 -5.76523,13.01937 -5.81681,12.00542 z M 2.6170977,121.17801 0.91829566,119.26234 2.4381717,120.71755 c 1.283872,1.22925 2.235584,2.38829 1.953183,2.37868 -0.0415,-0.001 -0.839915,-0.86461 -1.774257,-1.91822 z m -46.8522367,1.50004 c -0.363802,-0.0635 -1.197239,-0.20097 -1.852083,-0.30545 -0.755715,-0.12058 1.128895,-0.24617 5.159375,-0.34383 3.4925,-0.0846 6.385128,-0.13109 6.428062,-0.10326 0.43888,0.28448 -8.471307,0.97324 -9.735354,0.75254 z m 10.269141,-1.08291 c 0.190996,-0.0764 0.419199,-0.067 0.507118,0.0209 0.08792,0.0879 -0.06835,0.15045 -0.347266,0.13897 -0.308225,-0.0127 -0.370919,-0.0754 -0.159852,-0.15986 z m 36.6024897,-3.52342 c -1.78967304,-1.89177 -3.13492404,-3.43959 -2.98944704,-3.43959 0.145477,0 1.39623604,1.2204 2.77946404,2.71198 2.420061,2.60965 3.749075,4.16719 3.555762,4.16719 -0.05051,0 -1.556106,-1.54781 -3.345779,-3.43958 z m -71.1951267,0.85989 c -4.439348,-4.43878 -7.361814,-8.5535 -10.16395,-14.31048 -1.699044,-3.49068 -2.404142,-5.407493 -2.692353,-7.319203 l -0.159556,-1.05834 0.530846,1.12016 c 0.291966,0.61608 1.081452,2.4246 1.754414,4.018933 2.495303,5.91169 7.178129,13.27917 11.021716,17.34045 1.313574,1.38797 2.306409,2.52359 2.2063,2.52359 -0.10011,0 -1.223947,-1.0418 -2.497417,-2.31511 z m 17.047455,2.18477 c -0.145521,-0.0487 -0.951889,-0.29458 -1.79193,-0.54638 -0.840042,-0.2518 -1.477917,-0.50725 -1.417502,-0.56767 0.153259,-0.15326 3.15366,0.7216 3.460786,1.0091 0.257418,0.24096 0.211844,0.25999 -0.251354,0.10495 z m 119.194789,-2.01595 c -3.36264,-2.17848 -4.23831,-2.83549 -3.37372,-2.53127 1.01988,0.35885 7.28042,4.68735 6.76277,4.67572 -0.045,-10e-4 -1.57004,-0.96601 -3.38905,-2.14445 z m 35.270201,1.98829 c 0.3201,-0.33637 3.35896,-1.39266 3.35896,-1.16756 0,0.10743 -0.50601,0.38045 -1.12448,0.6067 -1.6685,0.61038 -2.47401,0.81257 -2.23448,0.56086 z m 15.00063,-0.96641 c 0,-0.0537 0.57345,-0.69253 1.27434,-1.41969 4.4266,-4.59252 9.02577,-11.25246 12.67752,-18.35798 0.33654,-0.654853 0.53726,-0.892973 0.44605,-0.529173 -0.32332,1.289523 -3.98092,7.786853 -6.51809,11.578683 -1.74871,2.61347 -4.87973,6.30158 -6.5246,7.6855 -0.74537,0.62713 -1.35522,1.09632 -1.35522,1.04266 z m -5.02709,-2.12892 c 0,-0.0624 1.16086,-1.25494 2.57969,-2.65012 1.41883,-1.39518 3.175,-3.30972 3.90261,-4.25453 0.7276,-0.94481 1.41665,-1.72469 1.53121,-1.73306 0.37159,-0.0271 -1.98937,3.25077 -3.44571,4.78395 -1.29297,1.36119 -4.5678,4.1241 -4.5678,3.85376 z M 67.862919,117.1045 c -0.0954,-0.0954 -0.62127,-0.26031 -1.16858,-0.36645 l -0.99511,-0.19298 0.92604,-0.0264 c 0.92223,-0.0263 1.83695,0.33344 1.55779,0.61259 -0.0807,0.0807 -0.22474,0.0686 -0.32014,-0.0268 z m -130.114863,-0.96559 c -1.477228,-1.02711 -3.203438,-2.51382 -3.500528,-3.01485 -0.192371,-0.32442 3.827195,2.61258 4.839135,3.53585 0.717302,0.65444 -0.112602,0.33144 -1.338607,-0.521 z m -32.489635,-2.94528 c -0.88184,-2.35693 -2.084087,-7.14412 -2.728519,-10.86462 -0.517365,-2.986903 -0.594317,-4.344953 -0.584702,-10.318753 0.0061,-3.78354 0.122459,-7.39564 0.258598,-8.0269 0.175202,-0.81238 0.247525,1.00432 0.247525,6.21771 0,9.5049 0.73939,15.326783 2.768504,21.798893 0.866944,2.76522 0.889679,3.4684 0.03859,1.19367 z m 107.613749,0.0494 c 0.481746,-0.32742 1.668145,-1.16086 2.636442,-1.85208 0.968297,-0.69122 1.918944,-1.25677 2.11255,-1.25677 0.570078,0 0.108314,0.47939 -0.94723,0.98338 l -0.980949,0.46838 1.190625,0.17256 c 0.654844,0.0949 3.791484,0.21456 6.970311,0.26588 3.17883,0.0513 5.82868,0.17258 5.88855,0.26946 0.16566,0.26803 -3.65427,0.60659 -6.77344,0.60032 -1.527973,-0.003 -3.909366,-0.1662 -5.291989,-0.36251 l -2.51386,-0.35692 -1.351861,0.83181 c -1.548093,0.95255 -2.254395,1.13041 -0.939149,0.23649 z m 19.084409,-1.66841 c -0.36836,-0.19553 -1.49945,-0.42993 -2.51354,-0.52087 -2.09635,-0.18801 -5.29754,-1.04353 -5.57312,-1.48942 -0.13482,-0.21815 0.48299,-0.2469 2.30168,-0.10711 l 2.48597,0.19109 -0.86708,-0.90155 c -0.7475,-0.77722 -0.87902,-1.11774 -0.95363,-2.46905 -0.0908,-1.64522 0.23602,-6.285943 0.58561,-8.314363 0.15954,-0.92574 0.24648,-0.2488 0.39078,3.042703 0.10207,2.32834 0.29218,4.68288 0.42247,5.23233 0.27049,1.14067 2.35081,3.71673 3.46802,4.29446 0.40959,0.21181 1.4094,0.46323 2.22181,0.55871 0.81241,0.0955 1.68586,0.33207 1.94102,0.52575 0.3996,0.30332 0.20716,0.34941 -1.38817,0.33248 -1.01865,-0.0108 -2.15347,-0.17963 -2.52182,-0.37516 z m -0.69981,-2.03575 c -0.62349,-0.69281 -2.25128,-3.67727 -2.09235,-3.8362 0.0594,-0.0594 0.41061,0.4085 0.78053,1.03971 0.36991,0.63121 1.09478,1.55688 1.61082,2.05704 0.51604,0.50017 0.93826,1.0051 0.93826,1.12208 0,0.42093 -0.71235,0.20063 -1.23726,-0.38263 z M 133.17096,97.863627 c 0.25012,-0.38172 0.50478,-0.69403 0.56592,-0.69403 0.1914,0 -0.42463,1.01969 -0.73006,1.20846 -0.15983,0.0988 -0.086,-0.13271 0.16414,-0.51443 z m -96.855601,-4.46157 c 0.21452,-1.50276 2.15829,-6.8735 3.60484,-9.96037 1.25068,-2.66887 4.42084,-8.42925 4.75136,-8.63353 0.26398,-0.16315 -0.96321,2.59893 -2.60574,5.86482 -1.33674,2.65788 -4.01051,9.10668 -4.81029,11.60182 -0.74434,2.32217 -1.1864,2.8522 -0.94017,1.12726 z m -38.6524813,-4.57311 c -0.851983,-1.2584 -1.726257,-2.5457 -1.942831,-2.86066 -0.951079,-1.38313 0.571973,0.21891 1.810996,1.90492 1.427256,1.94216 1.99789196,2.92675 1.80691696,3.11773 -0.06931,0.0693 -0.82309896,-0.90358 -1.67508196,-2.16199 z m -8.6659227,-6.54217 c -2.054473,-2.07367 -4.030062,-4.18703 -4.390199,-4.69635 -0.360136,-0.50932 1.010626,0.74083 3.046138,2.77812 4.4076437,4.4115 5.5976287,5.68855 5.3007427,5.68855 -0.121703,0 -1.90221,-1.69664 -3.9566817,-3.77032 z m 72.083524,0.24847 c -0.006,-0.11801 1.80425,-2.43936 4.02344,-5.15856 4.1221,-5.05084 8.17121,-9.46243 9.59114,-10.44975 0.43657,-0.30355 -0.48543,0.78058 -2.04887,2.40917 -1.56345,1.6286 -4.20537,4.65808 -5.87095,6.73218 -3.28746,4.09381 -5.67661,6.80693 -5.69476,6.46696 z m -81.370827,-3.64469 c -1.74625,-1.45854 -3.472656,-2.96169 -3.836458,-3.34033 -0.787721,-0.81986 4.056809,3.07887 5.953124,4.79089 2.28037,2.05875 1.191491,1.31254 -2.116666,-1.45056 z m 150.222218,0.89777 c 0.25743,-0.0671 0.61462,-0.0627 0.79375,0.01 0.17913,0.0725 -0.0315,0.12736 -0.46806,0.12197 -0.43656,-0.005 -0.58312,-0.0647 -0.32569,-0.13177 z m -96.744211,-5.83592 c 0.20124,-0.83885 0.30715,-1.00564 0.50987,-0.80292 0.2163,0.2163 -0.1645,1.53052 -0.44348,1.53052 -0.13252,0 -0.16239,-0.32742 -0.0664,-0.7276 z m 38.74294,-0.82043 c 0.77432,-0.92419 3.124,-3.4245 5.22152,-5.55625 2.09752,-2.13176 3.32493,-3.28061 2.72759,-2.55301 -0.59735,0.72761 -2.94703,3.22792 -5.22152,5.55625 -2.27448,2.32834 -3.5019,3.47719 -2.72759,2.55301 z m -61.058062,-4.61523 c -0.602568,-1.77619 -1.5861003,-4.64235 -2.1856273,-6.36923 -0.599527,-1.72688 -1.024593,-3.20524 -0.944592,-3.28524 0.233205,-0.23321 0.275542,-0.13601 1.934166,4.44065 1.4948213,4.12467 2.6383283,8.09657 2.3996993,8.3352 -0.05944,0.0594 -0.601077,-1.34518 -1.203646,-3.12138 z m 34.934132,2.81126 c 0.18136,-0.86477 4.7055,-9.40971 4.88629,-9.22893 0.0864,0.0863 -0.69361,1.85106 -1.73324,3.92157 -2.02596,4.0349 -3.35552,6.27288 -3.15305,5.30736 z m 107.456991,-2.1381 c -2.26819,-3.93519 -6.76401,-9.53876 -11.95974,-14.90656 -1.78263,-1.84167 -3.24115,-3.42317 -3.24115,-3.51445 0,-0.46326 0.72187,0.012 2.70851,1.78332 2.98159,2.6584 6.61278,6.78458 9.46099,10.75071 2.0399,2.84056 4.23467,6.46027 4.23467,6.984 0,0.51594 -0.57657,-0.01 -1.20328,-1.09702 z M 20.610552,65.239637 c -0.324046,-1.20341 -0.727847,-4.21124 -0.917124,-6.83146 l -0.13379,-1.85208 0.373427,1.4552 c 0.387475,1.50995 1.222156,7.98742 1.051273,8.1583 -0.05346,0.0535 -0.221664,-0.36502 -0.373786,-0.92996 z m 12.324607,-1.27521 c 0.22105,-1.97864 1.05596,-5.96959 1.96498,-9.39271 0.91589,-3.44904 2.88131,-9.617434 3.02013,-9.478609 0.0505,0.05051 -0.73258,2.948002 -1.7402,6.438869 -1.00762,3.49087 -2.07718,7.59719 -2.3768,9.12516 -0.29962,1.52797 -0.65077,3.19484 -0.78033,3.70416 -0.19887,0.78177 -0.21254,0.71994 -0.0878,-0.39687 z m 66.23386,-7.39938 c 0,-0.51581 9.121561,-7.005646 12.766151,-9.082897 2.16249,-1.232523 0.79265,-0.181593 -2.91042,2.232852 -2.14643,1.399495 -5.24206,3.540325 -6.87917,4.757395 -1.63711,1.21706 -2.976561,2.15876 -2.976561,2.09265 z M 4.2122367,46.88717 C 3.5359717,43.750675 2.8658617,38.621456 2.9002227,36.844636 l 0.02302,-1.190625 0.211004,1.190625 c 0.116052,0.654844 0.348444,2.440781 0.516427,3.96875 0.167984,1.527968 0.541566,4.009203 0.830184,5.513855 0.697563,3.636612 0.488638,4.072096 -0.268626,0.559929 z"
       id="path63" /></g></svg>
