<?xml version="1.0" encoding="UTF-8" standalone="no"?>
<!-- Created with Inkscape (http://www.inkscape.org/) -->

<svg
   width="242.97568mm"
   height="54.629948mm"
   viewBox="0 0 242.97567 54.629947"
   version="1.1"
   id="svg1"
   xml:space="preserve"
   xmlns="http://www.w3.org/2000/svg"
   xmlns:svg="http://www.w3.org/2000/svg"><defs
     id="defs1" /><g
     id="layer1"
     transform="translate(75.330721,-78.436515)"><path
       style="fill:#000000"
       d="m 26.767948,132.80902 c 2.08574,-1.366 4.23426,-3.32008 5.1373,-4.6724 0.57932,-0.86754 1.14532,-1.49452 1.25776,-1.39328 0.11244,0.10123 0.11848,0.0347 0.0134,-0.14778 -0.10506,-0.18251 0.0526,-0.77782 0.35047,-1.32291 0.792,-1.4496 2.02074,-5.35048 2.68741,-8.5317 0.45714,-2.18139 0.58842,-3.74427 0.61118,-7.27604 0.016,-2.47386 -0.0613,-5.18253 -0.17176,-6.01927 -0.11041,-0.83675 -0.0994,-1.52136 0.0246,-1.52136 0.31615,0 1.29484,1.99618 1.75122,3.57188 0.21075,0.7276 0.50813,2.33182 0.66085,3.56493 1.05147,8.48988 -1.17653,16.56487 -5.83596,21.15138 -0.7468,0.73512 -1.9687,1.62082 -2.71533,1.96823 -1.48568,0.6913 -4.67989,1.2235 -3.77111,0.62832 z m 37.46919,-0.1757 c -5.55795,-1.69065 -9.51255,-8.26072 -9.96715,-16.55916 -0.164,-2.99363 0.29234,-8.20416 0.7429,-8.48263 0.13132,-0.0812 0.1672,-0.26336 0.0797,-0.40488 -0.18633,-0.3015 0.84461,-3.8467 1.17866,-4.05315 0.12509,-0.0773 0.29413,2.56578 0.37565,5.87355 0.0815,3.30776 0.28208,6.60942 0.44568,7.33702 1.05886,4.70922 1.88119,7.37036 2.88639,9.34071 0.31663,0.62067 0.49327,1.26186 0.39252,1.42487 -0.11149,0.1804 -0.0636,0.22251 0.12229,0.1076 0.168,-0.10383 0.30546,-0.0903 0.30546,0.0301 0,0.36761 2.05642,2.73232 3.10911,3.57522 0.54556,0.43684 0.95922,0.90884 0.91923,1.04889 -0.04,0.14005 0.0422,0.18365 0.18253,0.0969 0.14038,-0.0868 0.64935,0.0825 1.13104,0.37622 l 0.8758,0.53396 -1.05833,-0.0217 c -0.58209,-0.012 -1.35676,-0.11253 -1.72151,-0.22348 z m 3.74808,-1.24127 c -1.37823,-0.50844 -3.88175,-2.8877 -4.9286,-4.68397 -2.65001,-4.54708 -3.91268,-11.19593 -3.32488,-17.50776 0.55422,-5.95126 1.78292,-8.36056 5.15056,-10.099508 1.69972,-0.877681 14.91127,-5.571495 16.99618,-6.038424 0.26638,-0.05966 1.43683,-0.461963 2.601,-0.894011 2.34704,-0.871039 28.692602,-9.489475 29.578772,-9.676118 0.17553,-0.03697 0.49774,-0.135492 0.71602,-0.218939 0.59935,-0.229126 3.15383,-1.02798 3.51731,-1.099956 0.17553,-0.03476 1.03352,-0.281273 1.90665,-0.547812 0.87312,-0.266538 1.76609,-0.507614 1.98437,-0.535725 0.21828,-0.02811 0.72086,-0.18276 1.11685,-0.343667 0.39598,-0.160907 2.06286,-0.549527 3.70416,-0.863599 4.69431,-0.89828 7.95033,-0.423076 12.11233,1.767751 4.26692,2.246056 9.62409,7.262697 14.24177,13.336471 1.75046,2.302444 4.83803,6.879167 4.64084,6.879167 -0.0986,0 0.007,0.20836 0.23465,0.46302 1.27017,1.42104 4.45371,8.51639 6.49954,14.48594 0.91928,2.68236 2.21304,7.76494 2.71309,10.65842 0.49119,2.84222 0.20171,2.91999 -2.33682,0.62783 -2.13826,-1.93074 -2.82785,-2.44798 -6.61947,-4.96511 -1.30994,-0.86963 -2.11749,-1.57105 -2.00964,-1.74555 0.11104,-0.17967 0.0585,-0.21645 -0.1368,-0.0958 -0.17441,0.10779 -0.63929,-0.0177 -1.03307,-0.2788 -1.88864,-1.25239 -8.35656,-4.70218 -10.24097,-5.46221 -1.97185,-0.7953 -2.32484,-0.85257 -5.15937,-0.83708 -3.42531,0.0187 -3.32642,-0.009 -17.06563,4.7466 -9.00751,3.11766 -21.98461,7.22588 -23.415622,7.41279 -0.21828,0.0285 -0.57547,0.12677 -0.79375,0.21834 -0.93641,0.39285 -12.2475,3.14632 -17.59479,4.28312 -6.7661,1.43843 -11.01135,1.76835 -13.05468,1.01454 z m 5.92848,-5.14339 c 2.4571,-0.44115 5.78477,-1.2613 9.24286,-2.27802 1.74625,-0.51342 3.71078,-1.08637 4.36563,-1.27323 0.65484,-0.18685 3.21469,-0.99553 5.68854,-1.79707 2.47385,-0.80153 5.50995,-1.78414 6.74687,-2.18357 4.029992,-1.30136 16.673592,-5.58457 22.225002,-7.52905 2.98318,-1.04492 6.23641,-2.18333 7.22939,-2.5298 0.99299,-0.34648 3.0741,-0.94762 4.62468,-1.33587 2.39109,-0.5987 3.16164,-0.68158 5.07374,-0.54577 3.8234,0.27156 7.16799,1.62092 12.17636,4.91248 2.51768,1.65466 6.8922,4.9364 7.40833,5.55769 0.29208,0.3516 3.38859,2.93408 3.51808,2.93408 0.34127,0 -2.14435,-5.96622 -4.24384,-10.18646 -1.90148,-3.82222 -4.21185,-7.83889 -5.87855,-10.220108 -3.18363,-4.548445 -9.51913,-11.5307 -11.84604,-13.055322 -0.61607,-0.403662 -1.04416,-0.856861 -0.9513,-1.007108 0.0929,-0.150247 0.0452,-0.196754 -0.10596,-0.10335 -0.15113,0.09341 -0.9732,-0.184537 -1.82681,-0.61765 -4.01745,-2.038389 -7.76393,-2.07721 -14.11974,-0.146311 -1.23693,0.375779 -4.09443,1.222619 -6.35,1.881867 -8.46153,2.473094 -10.13667,3.005924 -29.501042,9.383719 -7.42157,2.444345 -14.82169,4.862983 -16.44473,5.374753 -1.62304,0.51177 -3.37369,1.20702 -3.89032,1.545 -1.93744,1.26748 -2.79403,3.76476 -3.0026,8.75375 -0.28805,6.8902 1.11288,12.70544 3.41612,14.18025 1.00683,0.64469 3.76337,0.76662 6.44533,0.2851 z m 3.81891,-4.43808 c 0,-0.48784 13.35168,-13.27171 13.86118,-13.27171 0.29523,0 -0.63626,1.60818 -1.75151,3.02392 -1.99695,2.53502 -5.10194,5.61996 -7.70189,7.65217 -3.05861,2.39072 -4.40778,3.18521 -4.40778,2.59562 z m -2.75866,-2.89384 c 1.61144,-1.56049 3.51278,-3.3135 4.22521,-3.89558 3.14957,-2.57334 4.3431,-3.17182 2.82557,-1.41685 -0.42216,0.48822 -0.99445,1.18534 -1.27175,1.54914 -1.71793,2.25388 -7.18911,6.62489 -8.27067,6.60756 -0.258,-0.004 0.76679,-1.17395 2.49164,-2.84427 z m -6.23718,1.50842 c 0,-0.95428 2.99697,-4.08721 6.19841,-6.47963 l 1.03903,-0.77646 -0.77445,1.19063 c -1.84918,2.8429 -6.46299,7.17292 -6.46299,6.06546 z m 17.49611,-0.70765 c 1.36306,-1.73872 10.27262,-10.03682 11.10284,-10.34086 0.41716,-0.15277 -0.0814,0.83597 -1.04521,2.07263 -1.76509,2.26491 -6.77412,7.0429 -8.27136,7.88986 -1.7045,0.96419 -2.35325,1.10161 -1.78627,0.37837 z m 7.69147,-1.95661 c 0.0631,-0.19717 2.01197,-1.9894 4.33078,-3.98273 2.318812,-1.99333 4.898672,-4.37458 5.733022,-5.29166 1.4844,-1.6316 1.8311,-1.81815 1.22264,-0.65785 -0.45545,0.86851 -4.45845,5.39781 -6.287702,7.11436 -2.1717,2.0379 -5.31659,3.81073 -4.99874,2.81788 z m -26.77508,-0.48134 c 0,-0.50699 1.51341,-3.30853 2.29174,-4.24235 1.05286,-1.26319 3.61587,-3.70601 3.74884,-3.57304 0.0608,0.0608 0.34682,-0.1523 0.63561,-0.47354 l 0.52508,-0.58406 -0.46534,0.79375 c -0.52705,0.89901 -3.37801,4.70244 -4.04684,5.39886 -0.24207,0.25205 -0.94614,1.0233 -1.56461,1.71388 -0.61846,0.69059 -1.12448,1.12551 -1.12448,0.9665 z m 37.306252,-3.88707 c 0,-0.72733 7.20014,-8.55779 7.86892,-8.55779 1.27061,0 -2.13814,4.35177 -5.83213,7.44557 -1.43167,1.19906 -2.03679,1.52949 -2.03679,1.11222 z m 6.87917,-2.40791 c 0,-0.32432 5.03269,-6.14988 5.31286,-6.14988 0.45201,0 -0.49117,1.62313 -1.8317,3.1522 -1.47157,1.67854 -3.48116,3.40903 -3.48116,2.99768 z m 42.01787,-3.4379 c -0.37347,-0.40018 -1.00995,-1.26339 -1.41439,-1.91823 -0.96422,-1.56122 -3.51452,-4.8832 -4.77335,-6.217709 -0.54908,-0.582084 -2.4061,-2.520876 -4.12673,-4.308428 -1.72062,-1.787552 -3.1284,-3.378037 -3.1284,-3.534412 0,-0.431031 1.27146,-0.02952 2.21897,0.700711 0.98968,0.762737 3.64172,3.521522 4.92478,5.122983 1.29368,1.614734 4.49791,6.077935 4.49791,6.265195 0,0.0852 0.28434,0.53389 0.63186,0.99712 0.61274,0.81675 2.1117,3.62037 1.93564,3.62037 -0.048,0 -0.39282,-0.32742 -0.76629,-0.7276 z m -14.14558,-2.81297 c -1.62341,-0.89034 -3.46888,-1.99581 -4.10104,-2.45661 -1.77091,-1.29084 -4.8746,-4.24133 -4.6774,-4.446504 0.2548,-0.26509 4.99181,2.984314 4.91522,3.371654 -0.0353,0.17884 0.0956,0.2917 0.29103,0.25082 0.28934,-0.0605 1.81973,1.00563 6.6341,4.62174 0.0606,0.0455 0.0606,0.12666 0,0.18025 -0.0606,0.0536 -1.43849,-0.63101 -3.06191,-1.52135 z m 5.46521,-3.66761 c -2.83766,-2.925845 -5.17854,-5.269146 -5.20196,-5.207332 -0.0234,0.06181 -0.61873,-0.423585 -1.32292,-1.078664 -0.70418,-0.655079 -1.73096,-1.577814 -2.28173,-2.050521 -1.63264,-1.401248 -0.67038,-0.985746 2.24402,0.968964 4.09195,2.7445 9.00904,7.737583 11.42264,11.599173 0.38656,0.61846 0.61204,1.1163 0.50108,1.10629 -0.11097,-0.01 -2.52348,-2.41206 -5.36113,-5.33791 z m -14.7046,3.5079 c -1.75737,-0.86928 -3.42424,-1.83891 -3.70416,-2.15473 l -0.50895,-0.57422 0.79375,0.19271 c 2.34376,0.56904 6.95835,2.99285 7.21397,3.78913 0.19132,0.59598 -0.55504,0.34956 -3.79461,-1.25289 z m 15.08674,0.19552 c -0.57398,-0.46437 -1.2222,-1.03055 -1.44048,-1.2582 -0.43386,-0.45246 -3.05596,-2.58204 -6.70143,-5.442659 -4.71724,-3.701647 -4.55562,-3.552712 -3.85545,-3.552712 2.1041,0 7.80485,4.531894 12.40886,9.864611 1.11078,1.28659 0.92041,1.46652 -0.4115,0.38896 z M 17.010728,130.87558 c -6.99216,-1.25681 -19.8265596,-4.1683 -25.0031196,-5.67197 -0.94589,-0.27476 -3.3985804,-0.97764 -5.4504404,-1.56196 -3.55608,-1.01269 -12.7607,-3.8388 -13.599559,-4.1755 -0.218281,-0.0876 -0.515938,-0.18656 -0.661458,-0.21989 -0.145521,-0.0333 -3.003021,-0.96331 -6.35,-2.06662 -11.228507,-3.70141 -13.580798,-4.16418 -16.933333,-3.33132 -2.648018,0.65783 -7.752269,3.31566 -13.280168,6.91509 -1.449036,0.94353 -2.561854,1.50364 -2.752859,1.38559 -0.198104,-0.12244 -0.252032,-0.0872 -0.141136,0.0922 0.104878,0.1697 -0.628766,0.88811 -1.765164,1.72852 -1.069549,0.79097 -2.705531,2.11706 -3.635514,2.94687 -1.860408,1.66001 -2.536585,2.1031 -2.73053,1.78929 -0.349573,-0.56562 1.784964,-9.77312 3.019139,-13.02331 0.303918,-0.80036 0.583336,-1.57427 0.620929,-1.71979 0.314464,-1.21726 0.805236,-2.51354 0.951629,-2.51354 0.09823,0 0.178606,-0.16256 0.178606,-0.36125 0,-1.72613 6.375019,-13.630877 7.069518,-13.201653 0.134303,0.083 0.169007,0.02927 0.07712,-0.119402 -0.358642,-0.580294 5.964892,-8.701132 6.512069,-8.362958 0.148469,0.09176 0.189548,0.03712 0.09144,-0.121632 -0.20096,-0.325161 2.268395,-2.917882 4.867951,-5.111148 1.51923,-1.281785 4.8399,-3.526196 5.262689,-3.557002 0.08371,-0.0061 0.515171,-0.205115 0.958801,-0.442255 2.729393,-1.458987 6.843699,-2.082692 10.183676,-1.543788 2.730314,0.440536 7.410752,1.632341 11.499306,2.928131 12.978161,4.113182 43.161591,14.083291 47.913201,15.826557 5.90602,2.166793 7.94215,4.04139 8.97551,8.26347 0.63752,2.60471 0.79204,8.57824 0.30411,11.75606 -0.97895,6.37575 -3.5998,11.72988 -6.53575,13.3519 -1.71892,0.94965 -4.82108,0.98865 -9.64666,0.12127 z m 8.99325,-4.951 c 2.05626,-2.05626 3.39197,-10.09931 2.7388,-16.49174 -0.41523,-4.06373 -0.91242,-5.10092 -3.04716,-6.35666 -1.05239,-0.61906 -21.1410996,-7.455578 -32.1005096,-10.924335 -2.83766,-0.898145 -7.5963204,-2.412328 -10.5748104,-3.36485 -9.826899,-3.142642 -18.896105,-5.383545 -21.787868,-5.383545 -2.591308,0 -6.420379,1.599647 -9.208528,3.84699 -1.962539,1.581873 -6.965302,6.826438 -8.823416,9.249884 -4.519483,5.894536 -8.709241,13.119366 -11.756398,20.272766 -1.607798,3.77441 -1.488101,4.11773 0.701544,2.01223 6.815822,-6.5539 13.031732,-10.5725 18.298175,-11.8298 2.818969,-0.673 6.225624,-0.13876 12.591927,1.97468 1.164167,0.38647 3.545417,1.16016 5.291667,1.71931 1.74625,0.55915 7.044531,2.26656 11.773957,3.79425 4.72943,1.52768 10.0277104,3.21674 11.7739604,3.75346 1.74625,0.53672 4.66328,1.43842 6.48229,2.00379 17.4756396,5.43156 21.6302696,6.53086 24.8311396,6.5702 1.85996,0.0229 1.98262,-0.014 2.81523,-0.84663 z m -8.99325,-4.22217 c -3.10132,-2.31608 -8.2055096,-7.23412 -8.8631196,-8.53988 -0.21805,-0.43296 -0.5157,-0.87468 -0.66145,-0.98159 -0.4488,-0.32921 0.21106,-0.21562 0.79944,0.13761 2.7688296,1.66226 12.3068596,10.37494 12.2997396,11.23542 -0.005,0.653 -0.70871,0.2887 -3.57461,-1.85156 z m 5.37512,-0.43911 c -0.94339,-0.71416 -2.2278,-1.87502 -2.85425,-2.57969 -1.4144,-1.59098 -2.98406,-3.99267 -2.85754,-4.37223 0.0952,-0.28568 7.16781,6.92117 7.64229,7.78738 0.4203,0.76731 -0.12506,0.53129 -1.9305,-0.83546 z m -11.72512,-0.65875 c -2.3137796,-0.89373 -3.7930196,-1.97789 -7.2409196,-5.30702 -2.25547,-2.17777 -6.12053,-6.51781 -6.12053,-6.87267 0,-0.08 0.4722,0.18074 1.04933,0.57954 0.57714,0.3988 0.99991998,0.86785 0.93951998,1.04234 -0.0605,0.17475 0.0444,0.25808 0.23347,0.18553 0.67683,-0.25973 12.06517962,9.67503 12.06517962,10.52519 0,0.11925 -0.0298,0.20262 -0.0661,0.18525 -0.0364,-0.0174 -0.42333,-0.16953 -0.8599,-0.33816 z m 14.21262,-1.5485 c -0.58953,-0.71689 -1.80412,-6.07677 -1.49162,-6.5824 0.20489,-0.33153 0.76588,0.54989 1.36877,2.15063 0.35605,0.94534 0.78317,4.7625 0.5329,4.7625 -0.0759,0 -0.26047,-0.14883 -0.41005,-0.33073 z M 2.0544984,118.15333 c -0.3598,-0.24183 -1.75750002,-1.26748 -3.10601,-2.2792 -3.43588,-2.57779 -7.94101,-7.48167 -7.38453,-8.03814 0.1144,-0.1144 5.37521,4.68214 9.8344,8.96653 1.7706,1.70118 2.05813,2.29314 0.65614,1.35081 z m -8.54239,-2.19933 c -2.30595,-0.90096 -5.7930804,-4.04347 -7.9347104,-7.15055 -0.45137,-0.65485 -0.95093,-1.32373 -1.11013,-1.48641 -0.55964,-0.57185 -2.58479,-3.82249 -2.45948,-3.9478 0.0697,-0.0697 0.77063,0.61761 1.55757,1.52741 3.3657,3.89117 7.0721904,7.61476 9.5277304,9.57168 2.60171,2.0734 2.68573,2.37129 0.41902,1.48567 z M -20.5601,109.16775 c -0.727604,-0.66452 -1.729635,-1.58243 -2.226735,-2.03981 -1.004419,-0.92415 -2.403473,-2.7619 -2.403473,-3.15712 0,-0.25127 1.196616,0.42707 1.726211,0.97855 2.452847,2.55423 4.770755,5.48819 4.293055,5.43409 -0.0364,-0.004 -0.661454,-0.55119 -1.389058,-1.21571 z m -6.97226,-4.10767 c -1.669553,-2.02311 -1.98464,-2.81068 -0.503948,-1.25964 1.199565,1.25657 2.396923,2.89445 2.234612,3.05676 -0.07461,0.0746 -0.853413,-0.73409 -1.730664,-1.79712 z m -26.395219,0.63948 c 0.652468,-1.28142 4.036587,-5.23366 6.404419,-7.479575 2.544952,-2.413921 5.355551,-4.449304 6.444703,-4.667135 1.021382,-0.204276 1.022537,-0.01915 0.0039,0.625804 -0.441646,0.279631 -1.542974,1.221871 -2.447395,2.093867 -0.904422,0.871996 -2.47784,2.339586 -3.496486,3.261311 -1.018646,0.921728 -3.087867,2.878448 -4.59827,4.348258 -1.973284,1.92026 -2.623671,2.43178 -2.310877,1.81747 z m 4.942198,-0.13599 c 0.371741,-0.81588 4.660277,-5.02747 6.597157,-6.478791 2.110637,-1.581515 4.518162,-2.98133 5.127554,-2.98133 0.522329,0 0.52251,0.0054 0.01556,0.463977 -0.831693,0.752346 -6.917214,5.662934 -8.441961,6.812064 -0.772346,0.58208 -1.897017,1.45778 -2.499269,1.94599 -1.01342,0.82151 -1.072953,0.83925 -0.799046,0.23809 z m 5.537718,0.2849 c -0.0019,-0.59693 4.05706,-4.26017 5.983138,-5.39987 2.126831,-1.258492 3.577913,-1.833663 3.389883,-1.343666 -0.06694,0.174455 -0.387308,0.482744 -0.71192,0.685088 -0.539863,0.336518 -4.117502,3.135268 -4.426662,3.462928 -0.327159,0.34674 -2.341412,1.80684 -3.241146,2.34945 -0.703585,0.42432 -0.992509,0.4959 -0.993293,0.24607 z m -13.220014,-0.49028 c -0.0077,-0.38776 1.261828,-2.43326 2.637787,-4.24991 1.305536,-1.723665 4.579535,-4.985618 4.84152,-4.823702 0.147028,0.09087 0.188875,0.03828 0.09299,-0.116858 -0.09588,-0.15514 0.570332,-0.926282 1.480474,-1.713649 1.651497,-1.428716 3.374596,-2.713215 3.374596,-2.515624 0,0.0574 -1.997362,2.121994 -4.438581,4.587984 -4.022663,4.063479 -6.86717,7.288559 -7.677896,8.705139 -0.218562,0.3819 -0.305087,0.41714 -0.310893,0.12662 z m -0.801796,-2.77423 c 0,-1.20348 5.754673,-7.72779 8.130679,-9.218087 1.49067,-0.93499 1.623724,-0.885339 0.423113,0.157889 -1.430171,1.242696 -3.690041,3.67899 -5.990016,6.457644 -1.908687,2.305934 -2.563776,2.970924 -2.563776,2.602554 z"
       id="path1" /></g></svg>
